font.ufo
<glyph name="exclam" format="1">
  <advance width="361"/>
  <unicode hex="0021"/>
  <outline>
    <contour>
      <point x="128" y="277" type="line"/>
      <point x="127" y="246"/>
      <point x="140" y="230"/>
      <point x="165" y="230" type="curve"/>
      <point x="189" y="230"/>
      <point x="204" y="242"/>
      <point x="220" y="272" type="curve"/>
      <point x="377" y="552" type="line" smooth="yes"/>
      <point x="443" y="671"/>
      <point x="399" y="743"/>
      <point x="292" y="743" type="curve" smooth="yes"/>
      <point x="202" y="743"/>
      <point x="146" y="698"/>
      <point x="141" y="594" type="curve" smooth="yes"/>
    </contour>
    <contour>
      <point x="27" y="90" type="curve" smooth="yes"/>
      <point x="28" y="38"/>
      <point x="68" y="-3"/>
      <point x="121" y="-3" type="curve" smooth="yes"/>
      <point x="189" y="-3"/>
      <point x="234" y="56"/>
      <point x="233" y="111" type="curve" smooth="yes"/>
      <point x="232" y="162"/>
      <point x="191" y="202"/>
      <point x="138" y="202" type="curve" smooth="yes"/>
      <point x="70" y="202"/>
      <point x="27" y="142"/>
    </contour>
  </outline>
</glyph>
<glyph name="quotedbl" format="1">
  <advance width="426"/>
  <unicode hex="0022"/>
  <outline>
    <contour>
      <point x="104" y="523" type="line" smooth="yes"/>
      <point x="100" y="503"/>
      <point x="112" y="491"/>
      <point x="132" y="491" type="curve" smooth="yes"/>
      <point x="167" y="491" type="line" smooth="yes"/>
      <point x="191" y="491"/>
      <point x="205" y="498"/>
      <point x="220" y="522" type="curve" smooth="yes"/>
      <point x="298" y="655" type="line" smooth="yes"/>
      <point x="308" y="672"/>
      <point x="310" y="680"/>
      <point x="310" y="689" type="curve" smooth="yes"/>
      <point x="310" y="708"/>
      <point x="293" y="724"/>
      <point x="264" y="724" type="curve" smooth="yes"/>
      <point x="191" y="724" type="line" smooth="yes"/>
      <point x="148" y="724"/>
      <point x="134" y="707"/>
      <point x="127" y="664" type="curve" smooth="yes"/>
    </contour>
    <contour>
      <point x="314" y="523" type="line" smooth="yes"/>
      <point x="310" y="503"/>
      <point x="322" y="491"/>
      <point x="342" y="491" type="curve" smooth="yes"/>
      <point x="377" y="491" type="line" smooth="yes"/>
      <point x="401" y="491"/>
      <point x="415" y="498"/>
      <point x="430" y="522" type="curve" smooth="yes"/>
      <point x="508" y="655" type="line" smooth="yes"/>
      <point x="518" y="672"/>
      <point x="520" y="680"/>
      <point x="520" y="689" type="curve" smooth="yes"/>
      <point x="520" y="708"/>
      <point x="503" y="724"/>
      <point x="474" y="724" type="curve" smooth="yes"/>
      <point x="401" y="724" type="line" smooth="yes"/>
      <point x="358" y="724"/>
      <point x="344" y="707"/>
      <point x="337" y="664" type="curve" smooth="yes"/>
    </contour>
  </outline>
</glyph>
<glyph name="ampersand" format="1">
  <advance width="819"/>
  <unicode hex="0026"/>
  <outline>
    <contour>
      <point x="319" y="-40" type="curve" smooth="yes"/>
      <point x="303" y="-84"/>
      <point x="405" y="-101"/>
      <point x="473" y="-101" type="curve" smooth="yes"/>
      <point x="587" y="-101"/>
      <point x="680" y="-44"/>
      <point x="704" y="44" type="curve" smooth="yes"/>
      <point x="720" y="97"/>
      <point x="701" y="158"/>
      <point x="653" y="206" type="curve" smooth="yes"/>
      <point x="404" y="456" type="line" smooth="yes"/>
      <point x="386" y="473"/>
      <point x="381" y="487"/>
      <point x="381" y="502" type="curve" smooth="yes"/>
      <point x="381" y="528"/>
      <point x="400" y="547"/>
      <point x="432" y="547" type="curve" smooth="yes"/>
      <point x="464" y="547"/>
      <point x="484" y="524"/>
      <point x="478" y="499" type="curve" smooth="yes"/>
      <point x="470" y="463"/>
      <point x="431" y="436"/>
      <point x="388" y="430" type="curve"/>
      <point x="431" y="366" type="line"/>
      <point x="524" y="385"/>
      <point x="588" y="431"/>
      <point x="601" y="490" type="curve" smooth="yes"/>
      <point x="619" y="570"/>
      <point x="549" y="632"/>
      <point x="426" y="632" type="curve" smooth="yes"/>
      <point x="252" y="632"/>
      <point x="157" y="557"/>
      <point x="154" y="450" type="curve" smooth="yes"/>
      <point x="153" y="420"/>
      <point x="162" y="382"/>
      <point x="189" y="351" type="curve" smooth="yes"/>
      <point x="413" y="100" type="line" smooth="yes"/>
      <point x="438" y="73"/>
      <point x="451" y="49"/>
      <point x="451" y="31" type="curve" smooth="yes"/>
      <point x="449" y="-3"/>
      <point x="421" y="-22"/>
      <point x="388" y="-22" type="curve" smooth="yes"/>
      <point x="381" y="-22"/>
      <point x="359" y="-20"/>
      <point x="352" y="-20" type="curve" smooth="yes"/>
      <point x="341" y="-20"/>
      <point x="323" y="-27"/>
    </contour>
    <contour>
      <point x="622" y="277" type="line" smooth="yes"/>
      <point x="640" y="294"/>
      <point x="652" y="291"/>
      <point x="658" y="291" type="curve" smooth="yes"/>
      <point x="696" y="291"/>
      <point x="686" y="240"/>
      <point x="730" y="240" type="curve" smooth="yes"/>
      <point x="764" y="240"/>
      <point x="829" y="254"/>
      <point x="845" y="318" type="curve" smooth="yes"/>
      <point x="867" y="406"/>
      <point x="788" y="443"/>
      <point x="733" y="443" type="curve" smooth="yes"/>
      <point x="690" y="443"/>
      <point x="653" y="426"/>
      <point x="606" y="385" type="curve" smooth="yes"/>
      <point x="367" y="175" type="line" smooth="yes"/>
      <point x="332" y="150"/>
      <point x="302" y="135"/>
      <point x="276" y="135" type="curve" smooth="yes"/>
      <point x="234" y="135"/>
      <point x="215" y="159"/>
      <point x="224" y="195" type="curve" smooth="yes"/>
      <point x="231" y="224"/>
      <point x="275" y="257"/>
      <point x="340" y="257" type="curve"/>
      <point x="312" y="306" type="line"/>
      <point x="225" y="333"/>
      <point x="31" y="333"/>
      <point x="-16" y="186" type="curve" smooth="yes"/>
      <point x="-49" y="83"/>
      <point x="24" y="-2"/>
      <point x="184" y="-2" type="curve" smooth="yes"/>
      <point x="282" y="-2"/>
      <point x="340" y="28"/>
      <point x="409" y="89" type="curve" smooth="yes"/>
    </contour>
  </outline>
</glyph>
<glyph name="quotesingle" format="1">
  <advance width="259"/>
  <unicode hex="0027"/>
  <outline>
    <contour>
      <point x="136" y="523" type="line" smooth="yes"/>
      <point x="132" y="503"/>
      <point x="144" y="491"/>
      <point x="164" y="491" type="curve" smooth="yes"/>
      <point x="199" y="491" type="line" smooth="yes"/>
      <point x="223" y="491"/>
      <point x="237" y="498"/>
      <point x="252" y="522" type="curve" smooth="yes"/>
      <point x="330" y="655" type="line" smooth="yes"/>
      <point x="340" y="672"/>
      <point x="342" y="680"/>
      <point x="342" y="689" type="curve" smooth="yes"/>
      <point x="342" y="708"/>
      <point x="325" y="724"/>
      <point x="296" y="724" type="curve" smooth="yes"/>
      <point x="223" y="724" type="line" smooth="yes"/>
      <point x="180" y="724"/>
      <point x="166" y="707"/>
      <point x="159" y="664" type="curve" smooth="yes"/>
    </contour>
  </outline>
</glyph>
<glyph name="parenright" format="1">
  <advance width="517"/>
  <unicode hex="0029"/>
  <outline>
    <contour>
      <point x="-96" y="-193" type="curve" smooth="yes"/>
      <point x="-138" y="-193"/>
      <point x="-163" y="-177"/>
      <point x="-155" y="-151" type="curve" smooth="yes"/>
      <point x="-137" y="-92"/>
      <point x="92" y="-68"/>
      <point x="177" y="284" type="curve" smooth="yes"/>
      <point x="262" y="634"/>
      <point x="76" y="737"/>
      <point x="95" y="790" type="curve" smooth="yes"/>
      <point x="99" y="801"/>
      <point x="108" y="807"/>
      <point x="128" y="807" type="curve" smooth="yes"/>
      <point x="232" y="807"/>
      <point x="504" y="590"/>
      <point x="438" y="263" type="curve" smooth="yes"/>
      <point x="376" y="-47"/>
      <point x="53" y="-193"/>
    </contour>
  </outline>
</glyph>
<glyph name="comma" format="1">
  <advance width="291"/>
  <unicode hex="002C"/>
  <outline>
    <contour>
      <point x="-6" y="90" type="curve" smooth="yes"/>
      <point x="-6" y="29"/>
      <point x="40" y="8"/>
      <point x="40" y="-19" type="curve" smooth="yes"/>
      <point x="40" y="-64"/>
      <point x="-49" y="-91"/>
      <point x="-49" y="-131" type="curve" smooth="yes"/>
      <point x="-49" y="-147"/>
      <point x="-36" y="-154"/>
      <point x="-16" y="-154" type="curve" smooth="yes"/>
      <point x="66" y="-154"/>
      <point x="201" y="-52"/>
      <point x="204" y="81" type="curve" smooth="yes"/>
      <point x="206" y="156"/>
      <point x="157" y="202"/>
      <point x="96" y="202" type="curve" smooth="yes"/>
      <point x="39" y="202"/>
      <point x="-6" y="151"/>
    </contour>
  </outline>
</glyph>
<glyph name="slash" format="1">
  <advance width="450"/>
  <unicode hex="002F"/>
  <outline>
    <contour>
      <point x="504" y="739" type="curve" smooth="yes"/>
      <point x="483" y="739"/>
      <point x="466" y="728"/>
      <point x="449" y="701" type="curve" smooth="yes"/>
      <point x="-13" y="-5" type="line" smooth="yes"/>
      <point x="-34" y="-36"/>
      <point x="-18" y="-73"/>
      <point x="23" y="-73" type="curve" smooth="yes"/>
      <point x="42" y="-73"/>
      <point x="58" y="-62"/>
      <point x="76" y="-35" type="curve" smooth="yes"/>
      <point x="538" y="669" type="line" smooth="yes"/>
      <point x="559" y="700"/>
      <point x="543" y="739"/>
    </contour>
  </outline>
</glyph>
<glyph name="zero" format="1">
  <advance width="711"/>
  <unicode hex="0030"/>
  <outline>
    <contour>
      <point x="48" y="331" type="curve" smooth="yes"/>
      <point x="-23" y="81"/>
      <point x="98" y="-6"/>
      <point x="300" y="-6" type="curve" smooth="yes"/>
      <point x="502" y="-6"/>
      <point x="647" y="81"/>
      <point x="717" y="331" type="curve" smooth="yes"/>
      <point x="788" y="581"/>
      <point x="666" y="668"/>
      <point x="464" y="668" type="curve" smooth="yes"/>
      <point x="263" y="668"/>
      <point x="119" y="581"/>
    </contour>
    <contour>
      <point x="448" y="331" type="curve" smooth="yes"/>
      <point x="394" y="128"/>
      <point x="356" y="85"/>
      <point x="313" y="85" type="curve" smooth="yes"/>
      <point x="271" y="85"/>
      <point x="262" y="128"/>
      <point x="317" y="331" type="curve" smooth="yes"/>
      <point x="373" y="533"/>
      <point x="410" y="576"/>
      <point x="453" y="576" type="curve" smooth="yes"/>
      <point x="495" y="576"/>
      <point x="504" y="533"/>
    </contour>
  </outline>
</glyph>
<glyph name="two" format="1">
  <advance width="710"/>
  <unicode hex="0032"/>
  <outline>
    <contour>
      <point x="117" y="546" type="curve" smooth="yes"/>
      <point x="96" y="473"/>
      <point x="137" y="421"/>
      <point x="212" y="421" type="curve" smooth="yes"/>
      <point x="291" y="421"/>
      <point x="364" y="465"/>
      <point x="355" y="575" type="curve"/>
      <point x="420" y="591"/>
      <point x="461" y="552"/>
      <point x="441" y="484" type="curve" smooth="yes"/>
      <point x="425" y="433"/>
      <point x="400" y="399"/>
      <point x="258" y="357" type="curve" smooth="yes"/>
      <point x="126" y="319"/>
      <point x="52" y="268"/>
      <point x="23" y="174" type="curve" smooth="yes"/>
      <point x="-7" y="73"/>
      <point x="23" y="0"/>
      <point x="82" y="0" type="curve" smooth="yes"/>
      <point x="435" y="0" type="line" smooth="yes"/>
      <point x="577" y="0"/>
      <point x="637" y="34"/>
      <point x="664" y="118" type="curve" smooth="yes"/>
      <point x="690" y="203"/>
      <point x="654" y="262"/>
      <point x="625" y="262" type="curve" smooth="yes"/>
      <point x="584" y="262"/>
      <point x="579" y="179"/>
      <point x="439" y="179" type="curve" smooth="yes"/>
      <point x="151" y="179" type="line"/>
      <point x="155" y="221"/>
      <point x="189" y="239"/>
      <point x="356" y="270" type="curve" smooth="yes"/>
      <point x="620" y="321"/>
      <point x="686" y="344"/>
      <point x="713" y="426" type="curve" smooth="yes"/>
      <point x="748" y="538"/>
      <point x="630" y="666"/>
      <point x="395" y="666" type="curve" smooth="yes"/>
      <point x="246" y="666"/>
      <point x="141" y="626"/>
    </contour>
  </outline>
</glyph>
<glyph name="three" format="1">
  <advance width="722"/>
  <unicode hex="0033"/>
  <outline>
    <contour>
      <point x="432" y="666" type="curve" smooth="yes"/>
      <point x="227" y="666"/>
      <point x="145" y="613"/>
      <point x="126" y="548" type="curve" smooth="yes"/>
      <point x="104" y="473"/>
      <point x="148" y="422"/>
      <point x="244" y="422" type="curve" smooth="yes"/>
      <point x="325" y="422"/>
      <point x="368" y="460"/>
      <point x="380" y="508" type="curve" smooth="yes"/>
      <point x="384" y="528"/>
      <point x="384" y="548"/>
      <point x="380" y="571" type="curve"/>
      <point x="393" y="574"/>
      <point x="402" y="575"/>
      <point x="418" y="575" type="curve" smooth="yes"/>
      <point x="460" y="575"/>
      <point x="505" y="545"/>
      <point x="483" y="459" type="curve" smooth="yes"/>
      <point x="468" y="410"/>
      <point x="435" y="377"/>
      <point x="387" y="375" type="curve" smooth="yes"/>
      <point x="358" y="375" type="line" smooth="yes"/>
      <point x="326" y="375"/>
      <point x="312" y="360"/>
      <point x="303" y="335" type="curve" smooth="yes"/>
      <point x="294" y="299"/>
      <point x="319" y="287"/>
      <point x="358" y="287" type="curve" smooth="yes"/>
      <point x="412" y="287"/>
      <point x="450" y="244"/>
      <point x="429" y="174" type="curve" smooth="yes"/>
      <point x="415" y="122"/>
      <point x="379" y="95"/>
      <point x="329" y="95" type="curve" smooth="yes"/>
      <point x="305" y="95"/>
      <point x="283" y="98"/>
      <point x="264" y="106" type="curve"/>
      <point x="277" y="125"/>
      <point x="285" y="153"/>
      <point x="285" y="174" type="curve" smooth="yes"/>
      <point x="287" y="234"/>
      <point x="230" y="274"/>
      <point x="148" y="274" type="curve" smooth="yes"/>
      <point x="92" y="274"/>
      <point x="38" y="255"/>
      <point x="20" y="194" type="curve" smooth="yes"/>
      <point x="-11" y="91"/>
      <point x="85" y="-5"/>
      <point x="344" y="-5" type="curve" smooth="yes"/>
      <point x="526" y="-5"/>
      <point x="662" y="56"/>
      <point x="691" y="151" type="curve" smooth="yes"/>
      <point x="714" y="228"/>
      <point x="685" y="281"/>
      <point x="591" y="318" type="curve"/>
      <point x="672" y="332"/>
      <point x="724" y="362"/>
      <point x="746" y="438" type="curve" smooth="yes"/>
      <point x="785" y="568"/>
      <point x="638" y="666"/>
    </contour>
  </outline>
</glyph>
<glyph name="five" format="1">
  <advance width="676"/>
  <unicode hex="0035"/>
  <outline>
    <contour>
      <point x="488" y="634" type="curve" smooth="yes"/>
      <point x="417" y="634"/>
      <point x="342" y="640"/>
      <point x="289" y="640" type="curve" smooth="yes"/>
      <point x="224" y="640"/>
      <point x="191" y="622"/>
      <point x="173" y="561" type="curve" smooth="yes"/>
      <point x="105" y="330" type="line" smooth="yes"/>
      <point x="91" y="283"/>
      <point x="109" y="269"/>
      <point x="137" y="269" type="curve" smooth="yes"/>
      <point x="170" y="269" type="line" smooth="yes"/>
      <point x="229" y="269"/>
      <point x="250" y="292"/>
      <point x="302" y="292" type="curve" smooth="yes"/>
      <point x="362" y="292"/>
      <point x="397" y="255"/>
      <point x="376" y="181" type="curve" smooth="yes"/>
      <point x="357" y="111"/>
      <point x="298" y="68"/>
      <point x="194" y="87" type="curve"/>
      <point x="239" y="164"/>
      <point x="205" y="235"/>
      <point x="110" y="235" type="curve" smooth="yes"/>
      <point x="50" y="235"/>
      <point x="14" y="209"/>
      <point x="1" y="164" type="curve" smooth="yes"/>
      <point x="-22" y="86"/>
      <point x="42" y="-6"/>
      <point x="309" y="-6" type="curve" smooth="yes"/>
      <point x="505" y="-6"/>
      <point x="620" y="69"/>
      <point x="644" y="174" type="curve" smooth="yes"/>
      <point x="676" y="314"/>
      <point x="536" y="387"/>
      <point x="388" y="387" type="curve" smooth="yes"/>
      <point x="325" y="387"/>
      <point x="269" y="377"/>
      <point x="212" y="354" type="curve"/>
      <point x="237" y="445" type="line" smooth="yes"/>
      <point x="245" y="472"/>
      <point x="262" y="484"/>
      <point x="282" y="484" type="curve" smooth="yes"/>
      <point x="348" y="484"/>
      <point x="435" y="421"/>
      <point x="539" y="421" type="curve" smooth="yes"/>
      <point x="640" y="421"/>
      <point x="689" y="461"/>
      <point x="707" y="545" type="curve" smooth="yes"/>
      <point x="725" y="628"/>
      <point x="691" y="675"/>
      <point x="667" y="675" type="curve" smooth="yes"/>
      <point x="640" y="675"/>
      <point x="626" y="634"/>
    </contour>
  </outline>
</glyph>
<glyph name="six" format="1">
  <advance width="723"/>
  <unicode hex="0036"/>
  <outline>
    <contour>
      <point x="78" y="396" type="curve" smooth="yes"/>
      <point x="6" y="148"/>
      <point x="103" y="-7"/>
      <point x="357" y="-7" type="curve" smooth="yes"/>
      <point x="567" y="-7"/>
      <point x="668" y="76"/>
      <point x="696" y="191" type="curve" smooth="yes"/>
      <point x="728" y="327"/>
      <point x="617" y="421"/>
      <point x="444" y="420" type="curve" smooth="yes"/>
      <point x="371" y="419"/>
      <point x="321" y="397"/>
      <point x="273" y="360" type="curve"/>
      <point x="319" y="347" type="line"/>
      <point x="359" y="529"/>
      <point x="418" y="599"/>
      <point x="511" y="584" type="curve"/>
      <point x="467" y="494"/>
      <point x="519" y="428"/>
      <point x="620" y="428" type="curve" smooth="yes"/>
      <point x="713" y="428"/>
      <point x="743" y="483"/>
      <point x="743" y="536" type="curve" smooth="yes"/>
      <point x="742" y="611"/>
      <point x="646" y="673"/>
      <point x="461" y="673" type="curve" smooth="yes"/>
      <point x="272" y="673"/>
      <point x="134" y="589"/>
    </contour>
    <contour>
      <point x="422" y="200" type="curve" smooth="yes"/>
      <point x="403" y="130"/>
      <point x="374" y="83"/>
      <point x="339" y="83" type="curve" smooth="yes"/>
      <point x="303" y="83"/>
      <point x="286" y="130"/>
      <point x="302" y="200" type="curve" smooth="yes"/>
      <point x="318" y="281"/>
      <point x="354" y="321"/>
      <point x="389" y="321" type="curve" smooth="yes"/>
      <point x="421" y="321"/>
      <point x="441" y="273"/>
    </contour>
  </outline>
</glyph>
<glyph name="seven" format="1">
  <advance width="650"/>
  <unicode hex="0037"/>
  <outline>
    <contour>
      <point x="267" y="636" type="line" smooth="yes"/>
      <point x="242" y="636"/>
      <point x="228" y="642"/>
      <point x="212" y="655" type="curve" smooth="yes"/>
      <point x="199" y="666"/>
      <point x="189" y="671"/>
      <point x="173" y="671" type="curve" smooth="yes"/>
      <point x="153" y="671"/>
      <point x="138" y="659"/>
      <point x="129" y="629" type="curve" smooth="yes"/>
      <point x="71" y="425" type="line" smooth="yes"/>
      <point x="61" y="391"/>
      <point x="71" y="375"/>
      <point x="107" y="375" type="curve" smooth="yes"/>
      <point x="127" y="375"/>
      <point x="140" y="381"/>
      <point x="166" y="406" type="curve" smooth="yes"/>
      <point x="188" y="427" type="line" smooth="yes"/>
      <point x="208" y="447"/>
      <point x="226" y="454"/>
      <point x="253" y="454" type="curve" smooth="yes"/>
      <point x="556" y="454" type="line"/>
      <point x="267" y="331"/>
      <point x="191" y="253"/>
      <point x="165" y="163" type="curve" smooth="yes"/>
      <point x="138" y="65"/>
      <point x="204" y="-8"/>
      <point x="291" y="-8" type="curve" smooth="yes"/>
      <point x="365" y="-8"/>
      <point x="416" y="29"/>
      <point x="459" y="149" type="curve" smooth="yes"/>
      <point x="512" y="293"/>
      <point x="551" y="363"/>
      <point x="642" y="433" type="curve" smooth="yes"/>
      <point x="691" y="470"/>
      <point x="711" y="492"/>
      <point x="721" y="527" type="curve" smooth="yes"/>
      <point x="737" y="585"/>
      <point x="703" y="636"/>
      <point x="615" y="636" type="curve" smooth="yes"/>
    </contour>
  </outline>
</glyph>
<glyph name="colon" format="1">
  <advance width="353"/>
  <unicode hex="003A"/>
  <outline>
    <contour>
      <point x="36" y="90" type="curve" smooth="yes"/>
      <point x="37" y="38"/>
      <point x="77" y="-3"/>
      <point x="130" y="-3" type="curve" smooth="yes"/>
      <point x="198" y="-3"/>
      <point x="243" y="56"/>
      <point x="242" y="111" type="curve" smooth="yes"/>
      <point x="241" y="162"/>
      <point x="200" y="202"/>
      <point x="147" y="202" type="curve" smooth="yes"/>
      <point x="79" y="202"/>
      <point x="36" y="142"/>
    </contour>
    <contour>
      <point x="139" y="415" type="curve" smooth="yes"/>
      <point x="140" y="363"/>
      <point x="179" y="323"/>
      <point x="232" y="323" type="curve" smooth="yes"/>
      <point x="300" y="323"/>
      <point x="345" y="382"/>
      <point x="344" y="437" type="curve" smooth="yes"/>
      <point x="343" y="488"/>
      <point x="303" y="528"/>
      <point x="250" y="528" type="curve" smooth="yes"/>
      <point x="182" y="528"/>
      <point x="138" y="468"/>
    </contour>
  </outline>
</glyph>
<glyph name="semicolon" format="1">
  <advance width="353"/>
  <unicode hex="003B"/>
  <outline>
    <contour>
      <point x="39" y="90" type="curve" smooth="yes"/>
      <point x="37" y="22"/>
      <point x="85" y="8"/>
      <point x="85" y="-14" type="curve" smooth="yes"/>
      <point x="84" y="-41"/>
      <point x="26" y="-78"/>
      <point x="26" y="-98" type="curve" smooth="yes"/>
      <point x="26" y="-106"/>
      <point x="32" y="-112"/>
      <point x="47" y="-112" type="curve" smooth="yes"/>
      <point x="115" y="-112"/>
      <point x="234" y="-12"/>
      <point x="238" y="101" type="curve" smooth="yes"/>
      <point x="241" y="161"/>
      <point x="202" y="202"/>
      <point x="149" y="202" type="curve" smooth="yes"/>
      <point x="84" y="202"/>
      <point x="41" y="142"/>
    </contour>
    <contour>
      <point x="139" y="415" type="curve" smooth="yes"/>
      <point x="140" y="363"/>
      <point x="179" y="323"/>
      <point x="232" y="323" type="curve" smooth="yes"/>
      <point x="300" y="323"/>
      <point x="345" y="382"/>
      <point x="344" y="437" type="curve" smooth="yes"/>
      <point x="343" y="488"/>
      <point x="303" y="528"/>
      <point x="250" y="528" type="curve" smooth="yes"/>
      <point x="182" y="528"/>
      <point x="138" y="468"/>
    </contour>
  </outline>
</glyph>
<glyph name="less" format="1">
  <advance width="690"/>
  <unicode hex="003C"/>
  <outline>
    <contour>
      <point x="94" y="267" type="curve" smooth="yes"/>
      <point x="502" y="98" type="line" smooth="yes"/>
      <point x="556" y="76"/>
      <point x="589" y="90"/>
      <point x="599" y="126" type="curve" smooth="yes"/>
      <point x="609" y="164"/>
      <point x="589" y="195"/>
      <point x="543" y="213" type="curve" smooth="yes"/>
      <point x="225" y="336" type="line"/>
      <point x="225" y="294" type="line"/>
      <point x="600" y="421" type="line" smooth="yes"/>
      <point x="649" y="438"/>
      <point x="669" y="454"/>
      <point x="678" y="490" type="curve" smooth="yes"/>
      <point x="686" y="527"/>
      <point x="657" y="574"/>
      <point x="585" y="548" type="curve" smooth="yes"/>
      <point x="115" y="378" type="line" smooth="yes"/>
      <point x="81" y="366"/>
      <point x="65" y="353"/>
      <point x="59" y="326" type="curve" smooth="yes"/>
      <point x="52" y="300"/>
      <point x="66" y="279"/>
    </contour>
  </outline>
</glyph>
<glyph name="equal" format="1">
  <advance width="700"/>
  <unicode hex="003D"/>
  <outline>
    <contour>
      <point x="158" y="369" type="curve" smooth="yes"/>
      <point x="601" y="369" type="line" smooth="yes"/>
      <point x="646" y="369"/>
      <point x="673" y="391"/>
      <point x="685" y="430" type="curve" smooth="yes"/>
      <point x="694" y="469"/>
      <point x="676" y="491"/>
      <point x="632" y="491" type="curve" smooth="yes"/>
      <point x="189" y="491" type="line" smooth="yes"/>
      <point x="146" y="491"/>
      <point x="116" y="469"/>
      <point x="106" y="430" type="curve" smooth="yes"/>
      <point x="95" y="391"/>
      <point x="114" y="369"/>
    </contour>
    <contour>
      <point x="102" y="149" type="curve" smooth="yes"/>
      <point x="545" y="149" type="line" smooth="yes"/>
      <point x="590" y="149"/>
      <point x="617" y="171"/>
      <point x="629" y="210" type="curve" smooth="yes"/>
      <point x="638" y="249"/>
      <point x="620" y="271"/>
      <point x="576" y="271" type="curve" smooth="yes"/>
      <point x="133" y="271" type="line" smooth="yes"/>
      <point x="90" y="271"/>
      <point x="60" y="249"/>
      <point x="50" y="210" type="curve" smooth="yes"/>
      <point x="39" y="171"/>
      <point x="58" y="149"/>
    </contour>
  </outline>
</glyph>
<glyph name="A" format="1">
  <advance width="698"/>
  <unicode hex="0041"/>
  <outline>
    <contour>
      <point x="488" y="0" type="move" name="ogonek"/>
    </contour>
    <contour>
      <point x="287" y="0" type="move" name="bottom"/>
    </contour>
    <contour>
      <point x="513" y="651" type="move" name="top"/>
    </contour>
    <contour>
      <point x="160" y="204" type="line"/>
      <point x="526" y="204" type="line"/>
      <point x="530" y="304" type="line"/>
      <point x="164" y="304" type="line"/>
    </contour>
    <contour>
      <point x="-40" y="40" type="curve" smooth="yes"/>
      <point x="-46" y="18"/>
      <point x="-30" y="0"/>
      <point x="6" y="0" type="curve" smooth="yes"/>
      <point x="155" y="0" type="line" smooth="yes"/>
      <point x="191" y="0"/>
      <point x="206" y="6"/>
      <point x="211" y="26" type="curve" smooth="yes"/>
      <point x="221" y="63"/>
      <point x="156" y="49"/>
      <point x="202" y="147" type="curve" smooth="yes"/>
      <point x="357" y="479" type="line" smooth="yes"/>
      <point x="380" y="528"/>
      <point x="400" y="543"/>
      <point x="432" y="543" type="curve" smooth="yes"/>
      <point x="464" y="543"/>
      <point x="481" y="521"/>
      <point x="468" y="480" type="curve" smooth="yes"/>
      <point x="359" y="118" type="line" smooth="yes"/>
      <point x="341" y="57"/>
      <point x="305" y="69"/>
      <point x="292" y="39" type="curve" smooth="yes"/>
      <point x="282" y="15"/>
      <point x="297" y="0"/>
      <point x="333" y="0" type="curve" smooth="yes"/>
      <point x="570" y="0" type="line" smooth="yes"/>
      <point x="606" y="0"/>
      <point x="624" y="6"/>
      <point x="629" y="25" type="curve" smooth="yes"/>
      <point x="641" y="58"/>
      <point x="593" y="54"/>
      <point x="611" y="118" type="curve" smooth="yes"/>
      <point x="709" y="458" type="line" smooth="yes"/>
      <point x="748" y="591"/>
      <point x="671" y="679"/>
      <point x="505" y="679" type="curve" smooth="yes"/>
      <point x="380" y="679"/>
      <point x="315" y="627"/>
      <point x="262" y="516" type="curve" smooth="yes"/>
      <point x="84" y="147" type="line" smooth="yes"/>
      <point x="50" y="76"/>
      <point x="-29" y="79"/>
    </contour>
  </outline>
</glyph>
<glyph name="H" format="1">
  <advance width="834"/>
  <unicode hex="0048"/>
  <outline>
    <contour>
      <point x="211" y="666" type="line" smooth="yes"/>
      <point x="175" y="666"/>
      <point x="157" y="660"/>
      <point x="151" y="642" type="curve" smooth="yes"/>
      <point x="140" y="608"/>
      <point x="185" y="609"/>
      <point x="168" y="549" type="curve" smooth="yes"/>
      <point x="45" y="118" type="line" smooth="yes"/>
      <point x="28" y="58"/>
      <point x="-9" y="69"/>
      <point x="-23" y="39" type="curve" smooth="yes"/>
      <point x="-32" y="15"/>
      <point x="-18" y="0"/>
      <point x="18" y="0" type="curve" smooth="yes"/>
      <point x="253" y="0" type="line" smooth="yes"/>
      <point x="289" y="0"/>
      <point x="307" y="6"/>
      <point x="314" y="25" type="curve" smooth="yes"/>
      <point x="325" y="58"/>
      <point x="279" y="57"/>
      <point x="296" y="118" type="curve" smooth="yes"/>
      <point x="419" y="549" type="line" smooth="yes"/>
      <point x="436" y="608"/>
      <point x="474" y="597"/>
      <point x="487" y="628" type="curve" smooth="yes"/>
      <point x="497" y="651"/>
      <point x="481" y="666"/>
      <point x="446" y="666" type="curve" smooth="yes"/>
    </contour>
    <contour>
      <point x="639" y="666" type="line" smooth="yes"/>
      <point x="603" y="666"/>
      <point x="585" y="660"/>
      <point x="579" y="642" type="curve" smooth="yes"/>
      <point x="568" y="608"/>
      <point x="613" y="609"/>
      <point x="596" y="549" type="curve" smooth="yes"/>
      <point x="473" y="118" type="line" smooth="yes"/>
      <point x="456" y="58"/>
      <point x="419" y="69"/>
      <point x="405" y="39" type="curve" smooth="yes"/>
      <point x="396" y="15"/>
      <point x="411" y="0"/>
      <point x="446" y="0" type="curve" smooth="yes"/>
      <point x="681" y="0" type="line" smooth="yes"/>
      <point x="717" y="0"/>
      <point x="735" y="6"/>
      <point x="742" y="25" type="curve" smooth="yes"/>
      <point x="753" y="58"/>
      <point x="707" y="57"/>
      <point x="724" y="118" type="curve" smooth="yes"/>
      <point x="847" y="549" type="line" smooth="yes"/>
      <point x="864" y="608"/>
      <point x="902" y="597"/>
      <point x="915" y="628" type="curve" smooth="yes"/>
      <point x="925" y="651"/>
      <point x="909" y="666"/>
      <point x="874" y="666" type="curve" smooth="yes"/>
    </contour>
    <contour>
      <point x="270" y="285" type="line"/>
      <point x="636" y="285" type="line"/>
      <point x="640" y="385" type="line"/>
      <point x="274" y="385" type="line"/>
    </contour>
  </outline>
</glyph>
<glyph name="J" format="1">
  <advance width="590"/>
  <unicode hex="004A"/>
  <outline>
    <contour>
      <point x="178" y="84" type="curve" smooth="yes"/>
      <point x="163" y="84"/>
      <point x="152" y="87"/>
      <point x="141" y="94" type="curve"/>
      <point x="165" y="109"/>
      <point x="178" y="129"/>
      <point x="186" y="156" type="curve" smooth="yes"/>
      <point x="206" y="226"/>
      <point x="177" y="294"/>
      <point x="99" y="294" type="curve" smooth="yes"/>
      <point x="51" y="294"/>
      <point x="2" y="267"/>
      <point x="-16" y="203" type="curve" smooth="yes"/>
      <point x="-46" y="101"/>
      <point x="30" y="-6"/>
      <point x="216" y="-6" type="curve" smooth="yes"/>
      <point x="369" y="-6"/>
      <point x="465" y="61"/>
      <point x="505" y="203" type="curve" smooth="yes"/>
      <point x="603" y="549" type="line" smooth="yes"/>
      <point x="620" y="608"/>
      <point x="658" y="597"/>
      <point x="671" y="628" type="curve" smooth="yes"/>
      <point x="681" y="651"/>
      <point x="665" y="666"/>
      <point x="630" y="666" type="curve" smooth="yes"/>
      <point x="346" y="666" type="line" smooth="yes"/>
      <point x="313" y="666"/>
      <point x="297" y="661"/>
      <point x="293" y="642" type="curve" smooth="yes"/>
      <point x="283" y="603"/>
      <point x="369" y="601"/>
      <point x="351" y="540" type="curve" smooth="yes"/>
      <point x="242" y="164" type="line" smooth="yes"/>
      <point x="228" y="114"/>
      <point x="206" y="84"/>
    </contour>
  </outline>
</glyph>
<glyph name="K" format="1">
  <advance width="787"/>
  <unicode hex="004B"/>
  <outline>
    <contour>
      <point x="540" y="833" type="move" name="top"/>
    </contour>
    <contour>
      <point x="413" y="0" type="move" name="bottom"/>
    </contour>
    <contour>
      <point x="209" y="666" type="line" smooth="yes"/>
      <point x="173" y="666"/>
      <point x="155" y="660"/>
      <point x="150" y="642" type="curve" smooth="yes"/>
      <point x="138" y="608"/>
      <point x="183" y="609"/>
      <point x="166" y="549" type="curve" smooth="yes"/>
      <point x="44" y="118" type="line" smooth="yes"/>
      <point x="27" y="58"/>
      <point x="-10" y="69"/>
      <point x="-23" y="39" type="curve" smooth="yes"/>
      <point x="-33" y="15"/>
      <point x="-18" y="0"/>
      <point x="18" y="0" type="curve" smooth="yes"/>
      <point x="253" y="0" type="line" smooth="yes"/>
      <point x="289" y="0"/>
      <point x="307" y="6"/>
      <point x="313" y="25" type="curve" smooth="yes"/>
      <point x="324" y="58"/>
      <point x="279" y="57"/>
      <point x="296" y="118" type="curve" smooth="yes"/>
      <point x="417" y="549" type="line" smooth="yes"/>
      <point x="434" y="608"/>
      <point x="472" y="597"/>
      <point x="485" y="628" type="curve" smooth="yes"/>
      <point x="495" y="651"/>
      <point x="480" y="666"/>
      <point x="444" y="666" type="curve" smooth="yes"/>
    </contour>
    <contour>
      <point x="354" y="276" type="line"/>
      <point x="408" y="93" type="line" smooth="yes"/>
      <point x="427" y="30"/>
      <point x="450" y="0"/>
      <point x="519" y="0" type="curve" smooth="yes"/>
      <point x="650" y="0" type="line" smooth="yes"/>
      <point x="693" y="0"/>
      <point x="710" y="10"/>
      <point x="714" y="25" type="curve" smooth="yes"/>
      <point x="724" y="62"/>
      <point x="675" y="62"/>
      <point x="650" y="137" type="curve" smooth="yes"/>
      <point x="544" y="451" type="line"/>
    </contour>
    <contour>
      <point x="285" y="200" type="line"/>
      <point x="639" y="496" type="line"/>
      <point x="663" y="466"/>
      <point x="688" y="454"/>
      <point x="725" y="454" type="curve" smooth="yes"/>
      <point x="780" y="454"/>
      <point x="830" y="499"/>
      <point x="830" y="570" type="curve" smooth="yes"/>
      <point x="830" y="633"/>
      <point x="787" y="670"/>
      <point x="732" y="670" type="curve" smooth="yes"/>
      <point x="700" y="670"/>
      <point x="674" y="658"/>
      <point x="640" y="629" type="curve" smooth="yes"/>
      <point x="320" y="352" type="line"/>
    </contour>
  </outline>
</glyph>
<glyph name="M" format="1">
  <advance width="1035"/>
  <unicode hex="004D"/>
  <outline>
    <contour>
      <point x="781" y="495" type="line"/>
      <point x="675" y="119" type="line" smooth="yes"/>
      <point x="658" y="60"/>
      <point x="620" y="71"/>
      <point x="607" y="40" type="curve" smooth="yes"/>
      <point x="598" y="17"/>
      <point x="612" y="1"/>
      <point x="648" y="1" type="curve" smooth="yes"/>
      <point x="883" y="1" type="line" smooth="yes"/>
      <point x="919" y="1"/>
      <point x="937" y="8"/>
      <point x="943" y="26" type="curve" smooth="yes"/>
      <point x="954" y="59"/>
      <point x="909" y="59"/>
      <point x="926" y="119" type="curve" smooth="yes"/>
      <point x="1048" y="549" type="line" smooth="yes"/>
      <point x="1065" y="608"/>
      <point x="1103" y="597"/>
      <point x="1115" y="628" type="curve" smooth="yes"/>
      <point x="1126" y="651"/>
      <point x="1110" y="666"/>
      <point x="1074" y="666" type="curve" smooth="yes"/>
      <point x="925" y="666" type="line" smooth="yes"/>
      <point x="874" y="666"/>
      <point x="844" y="658"/>
      <point x="808" y="613" type="curve" smooth="yes"/>
      <point x="523" y="258" type="line"/>
      <point x="550" y="234" type="line"/>
      <point x="437" y="608" type="line" smooth="yes"/>
      <point x="425" y="649"/>
      <point x="411" y="666"/>
      <point x="369" y="666" type="curve" smooth="yes"/>
      <point x="214" y="666" type="line" smooth="yes"/>
      <point x="171" y="666"/>
      <point x="158" y="648"/>
      <point x="172" y="603" type="curve" smooth="yes"/>
      <point x="334" y="68" type="line" smooth="yes"/>
      <point x="348" y="21"/>
      <point x="363" y="0"/>
      <point x="396" y="0" type="curve" smooth="yes"/>
      <point x="430" y="0"/>
      <point x="451" y="17"/>
      <point x="492" y="68" type="curve" smooth="yes"/>
      <point x="827" y="483" type="line"/>
    </contour>
    <contour>
      <point x="264" y="459" type="line"/>
      <point x="202" y="599" type="line"/>
      <point x="66" y="118" type="line" smooth="yes"/>
      <point x="49" y="58"/>
      <point x="12" y="69"/>
      <point x="-1" y="39" type="curve" smooth="yes"/>
      <point x="-11" y="15"/>
      <point x="4" y="0"/>
      <point x="40" y="0" type="curve" smooth="yes"/>
      <point x="123" y="0" type="line" smooth="yes"/>
      <point x="159" y="0"/>
      <point x="177" y="6"/>
      <point x="183" y="25" type="curve" smooth="yes"/>
      <point x="194" y="58"/>
      <point x="149" y="57"/>
      <point x="166" y="118" type="curve" smooth="yes"/>
    </contour>
  </outline>
</glyph>
<glyph name="O" format="1">
  <advance width="733"/>
  <unicode hex="004F"/>
  <outline>
    <contour>
      <point x="460" y="651" type="move" name="top"/>
    </contour>
    <contour>
      <point x="57" y="336" type="curve" smooth="yes"/>
      <point x="-4" y="108"/>
      <point x="105" y="-12"/>
      <point x="307" y="-12" type="curve" smooth="yes"/>
      <point x="509" y="-12"/>
      <point x="678" y="108"/>
      <point x="739" y="336" type="curve" smooth="yes"/>
      <point x="798" y="563"/>
      <point x="689" y="681"/>
      <point x="487" y="681" type="curve" smooth="yes"/>
      <point x="284" y="681"/>
      <point x="116" y="563"/>
    </contour>
    <contour>
      <point x="475" y="329" type="curve" smooth="yes"/>
      <point x="420" y="143"/>
      <point x="382" y="77"/>
      <point x="323" y="77" type="curve" smooth="yes"/>
      <point x="263" y="77"/>
      <point x="263" y="143"/>
      <point x="317" y="329" type="curve" smooth="yes"/>
      <point x="371" y="519"/>
      <point x="409" y="583"/>
      <point x="469" y="583" type="curve" smooth="yes"/>
      <point x="528" y="583"/>
      <point x="529" y="519"/>
    </contour>
  </outline>
</glyph>
<glyph name="R" format="1">
  <advance width="759"/>
  <unicode hex="0052"/>
  <outline>
    <contour>
      <point x="447" y="651" type="move" name="top"/>
    </contour>
    <contour>
      <point x="422" y="0" type="move" name="bottom"/>
    </contour>
    <contour>
      <point x="543" y="666" type="curve" smooth="yes"/>
      <point x="208" y="666" type="line" smooth="yes"/>
      <point x="172" y="666"/>
      <point x="154" y="660"/>
      <point x="149" y="642" type="curve" smooth="yes"/>
      <point x="137" y="608"/>
      <point x="182" y="609"/>
      <point x="165" y="549" type="curve" smooth="yes"/>
      <point x="43" y="118" type="line" smooth="yes"/>
      <point x="27" y="59"/>
      <point x="-16" y="68"/>
      <point x="-24" y="36" type="curve" smooth="yes"/>
      <point x="-29" y="13"/>
      <point x="-11" y="0"/>
      <point x="24" y="0" type="curve" smooth="yes"/>
      <point x="275" y="0" type="line" smooth="yes"/>
      <point x="310" y="0"/>
      <point x="332" y="6"/>
      <point x="337" y="25" type="curve" smooth="yes"/>
      <point x="346" y="57"/>
      <point x="280" y="64"/>
      <point x="295" y="118" type="curve" smooth="yes"/>
      <point x="341" y="284" type="line"/>
      <point x="379" y="284" type="line" smooth="yes"/>
      <point x="434" y="284"/>
      <point x="453" y="266"/>
      <point x="440" y="214" type="curve" smooth="yes"/>
      <point x="424" y="150" type="line" smooth="yes"/>
      <point x="397" y="46"/>
      <point x="460" y="-9"/>
      <point x="562" y="-9" type="curve" smooth="yes"/>
      <point x="672" y="-9"/>
      <point x="724" y="45"/>
      <point x="731" y="87" type="curve" smooth="yes"/>
      <point x="735" y="109"/>
      <point x="720" y="115"/>
      <point x="694" y="115" type="curve" smooth="yes"/>
      <point x="676" y="115"/>
      <point x="667" y="130"/>
      <point x="673" y="155" type="curve" smooth="yes"/>
      <point x="684" y="204" type="line" smooth="yes"/>
      <point x="701" y="274"/>
      <point x="672" y="326"/>
      <point x="593" y="332" type="curve"/>
      <point x="680" y="342"/>
      <point x="742" y="384"/>
      <point x="764" y="463" type="curve" smooth="yes"/>
      <point x="794" y="573"/>
      <point x="707" y="666"/>
    </contour>
    <contour>
      <point x="411" y="384" type="curve" smooth="yes"/>
      <point x="369" y="384" type="line"/>
      <point x="413" y="561" type="line"/>
      <point x="455" y="561" type="line" smooth="yes"/>
      <point x="495" y="561"/>
      <point x="525" y="543"/>
      <point x="508" y="473" type="curve" smooth="yes"/>
      <point x="490" y="403"/>
      <point x="461" y="384"/>
    </contour>
  </outline>
</glyph>
<glyph name="S" format="1">
  <advance width="689"/>
  <unicode hex="0053"/>
  <outline>
    <contour>
      <point x="431" y="651" type="move" name="top"/>
    </contour>
    <contour>
      <point x="347" y="0" type="move" name="bottom"/>
    </contour>
    <contour>
      <point x="139" y="519" type="curve" smooth="yes"/>
      <point x="61" y="263"/>
      <point x="416" y="250"/>
      <point x="382" y="139" type="curve" smooth="yes"/>
      <point x="374" y="115"/>
      <point x="357" y="103"/>
      <point x="320" y="103" type="curve" smooth="yes"/>
      <point x="269" y="103"/>
      <point x="238" y="124"/>
      <point x="195" y="185" type="curve" smooth="yes"/>
      <point x="157" y="238"/>
      <point x="137" y="259"/>
      <point x="105" y="259" type="curve" smooth="yes"/>
      <point x="77" y="259"/>
      <point x="58" y="246"/>
      <point x="47" y="211" type="curve" smooth="yes"/>
      <point x="-2" y="62" type="line" smooth="yes"/>
      <point x="-15" y="23"/>
      <point x="7" y="0"/>
      <point x="44" y="0" type="curve" smooth="yes"/>
      <point x="71" y="0"/>
      <point x="88" y="9"/>
      <point x="121" y="36" type="curve" smooth="yes"/>
      <point x="157" y="66" type="line"/>
      <point x="220" y="17"/>
      <point x="275" y="-4"/>
      <point x="369" y="-4" type="curve" smooth="yes"/>
      <point x="486" y="-4"/>
      <point x="590" y="48"/>
      <point x="623" y="159" type="curve" smooth="yes"/>
      <point x="696" y="401"/>
      <point x="335" y="426"/>
      <point x="368" y="534" type="curve" smooth="yes"/>
      <point x="374" y="555"/>
      <point x="394" y="570"/>
      <point x="418" y="570" type="curve" smooth="yes"/>
      <point x="456" y="570"/>
      <point x="492" y="553"/>
      <point x="540" y="497" type="curve" smooth="yes"/>
      <point x="582" y="447"/>
      <point x="598" y="428"/>
      <point x="630" y="428" type="curve" smooth="yes"/>
      <point x="658" y="428"/>
      <point x="670" y="440"/>
      <point x="679" y="472" type="curve" smooth="yes"/>
      <point x="721" y="610" type="line" smooth="yes"/>
      <point x="732" y="647"/>
      <point x="709" y="668"/>
      <point x="672" y="668" type="curve" smooth="yes"/>
      <point x="645" y="668"/>
      <point x="628" y="660"/>
      <point x="597" y="635" type="curve" smooth="yes"/>
      <point x="574" y="616" type="line"/>
      <point x="509" y="655"/>
      <point x="448" y="672"/>
      <point x="374" y="672" type="curve" smooth="yes"/>
      <point x="263" y="672"/>
      <point x="167" y="611"/>
    </contour>
  </outline>
</glyph>
<glyph name="T" format="1">
  <advance width="759"/>
  <unicode hex="0054"/>
  <outline>
    <contour>
      <point x="477" y="651" type="move" name="top"/>
    </contour>
    <contour>
      <point x="352" y="0" type="move" name="bottom"/>
    </contour>
    <contour>
      <point x="356" y="580" type="line"/>
      <point x="226" y="119" type="line" smooth="yes"/>
      <point x="209" y="61"/>
      <point x="172" y="71"/>
      <point x="158" y="40" type="curve" smooth="yes"/>
      <point x="149" y="17"/>
      <point x="164" y="1"/>
      <point x="199" y="1" type="curve" smooth="yes"/>
      <point x="434" y="1" type="line" smooth="yes"/>
      <point x="470" y="1"/>
      <point x="488" y="8"/>
      <point x="495" y="26" type="curve" smooth="yes"/>
      <point x="506" y="59"/>
      <point x="461" y="60"/>
      <point x="477" y="119" type="curve" smooth="yes"/>
      <point x="608" y="580" type="line"/>
    </contour>
    <contour>
      <point x="627" y="566" type="line" smooth="yes"/>
      <point x="653" y="566"/>
      <point x="662" y="558"/>
      <point x="672" y="533" type="curve" smooth="yes"/>
      <point x="689" y="492" type="line" smooth="yes"/>
      <point x="703" y="458"/>
      <point x="717" y="438"/>
      <point x="753" y="438" type="curve" smooth="yes"/>
      <point x="794" y="438"/>
      <point x="812" y="457"/>
      <point x="826" y="505" type="curve" smooth="yes"/>
      <point x="850" y="586" type="line" smooth="yes"/>
      <point x="866" y="642"/>
      <point x="849" y="666"/>
      <point x="801" y="666" type="curve" smooth="yes"/>
      <point x="218" y="666" type="line" smooth="yes"/>
      <point x="150" y="666"/>
      <point x="134" y="649"/>
      <point x="119" y="596" type="curve" smooth="yes"/>
      <point x="93" y="505" type="line" smooth="yes"/>
      <point x="82" y="464"/>
      <point x="100" y="438"/>
      <point x="139" y="438" type="curve" smooth="yes"/>
      <point x="174" y="438"/>
      <point x="201" y="458"/>
      <point x="230" y="492" type="curve" smooth="yes"/>
      <point x="263" y="533" type="line" smooth="yes"/>
      <point x="284" y="558"/>
      <point x="300" y="566"/>
      <point x="329" y="566" type="curve" smooth="yes"/>
    </contour>
  </outline>
</glyph>
<glyph name="V" format="1">
  <advance width="733"/>
  <unicode hex="0056"/>
  <outline>
    <contour>
      <point x="407" y="217" type="line" smooth="yes"/>
      <point x="478" y="230" type="line" smooth="yes"/>
      <point x="426" y="550" type="line" smooth="yes"/>
      <point x="419" y="595"/>
      <point x="459" y="602"/>
      <point x="459" y="631" type="curve" smooth="yes"/>
      <point x="460" y="652"/>
      <point x="444" y="666"/>
      <point x="413" y="666" type="curve" smooth="yes"/>
      <point x="163" y="666" type="line" smooth="yes"/>
      <point x="128" y="666"/>
      <point x="116" y="652"/>
      <point x="119" y="629" type="curve" smooth="yes"/>
      <point x="119" y="603"/>
      <point x="160" y="597"/>
      <point x="169" y="548" type="curve" smooth="yes"/>
      <point x="253" y="86" type="line" smooth="yes"/>
      <point x="264" y="24"/>
      <point x="289" y="0"/>
      <point x="329" y="0" type="curve" smooth="yes"/>
      <point x="369" y="0"/>
      <point x="396" y="27"/>
      <point x="431" y="86" type="curve" smooth="yes"/>
      <point x="672" y="492" type="line"/>
      <point x="688" y="471"/>
      <point x="714" y="455"/>
      <point x="748" y="455" type="curve" smooth="yes"/>
      <point x="794" y="455"/>
      <point x="852" y="495"/>
      <point x="851" y="572" type="curve" smooth="yes"/>
      <point x="849" y="634"/>
      <point x="809" y="670"/>
      <point x="750" y="670" type="curve" smooth="yes"/>
      <point x="681" y="670"/>
      <point x="643" y="636"/>
      <point x="597" y="553" type="curve" smooth="yes"/>
    </contour>
  </outline>
</glyph>
<glyph name="Y" format="1">
  <advance width="789"/>
  <unicode hex="0059"/>
  <outline>
    <contour>
      <point x="518" y="651" type="move" name="top"/>
    </contour>
    <contour>
      <point x="520" y="352" type="line"/>
      <point x="466" y="557" type="line" smooth="yes"/>
      <point x="455" y="600"/>
      <point x="498" y="608"/>
      <point x="498" y="639" type="curve" smooth="yes"/>
      <point x="497" y="659"/>
      <point x="483" y="666"/>
      <point x="436" y="666" type="curve" smooth="yes"/>
      <point x="169" y="666" type="line" smooth="yes"/>
      <point x="145" y="666"/>
      <point x="132" y="658"/>
      <point x="129" y="645" type="curve" smooth="yes"/>
      <point x="122" y="609"/>
      <point x="175" y="617"/>
      <point x="204" y="536" type="curve" smooth="yes"/>
      <point x="303" y="254" type="line"/>
      <point x="307" y="312" type="line"/>
      <point x="250" y="118" type="line" smooth="yes"/>
      <point x="233" y="60"/>
      <point x="191" y="68"/>
      <point x="183" y="36" type="curve" smooth="yes"/>
      <point x="178" y="13"/>
      <point x="196" y="0"/>
      <point x="230" y="0" type="curve" smooth="yes"/>
      <point x="482" y="0" type="line" smooth="yes"/>
      <point x="517" y="0"/>
      <point x="538" y="6"/>
      <point x="544" y="25" type="curve" smooth="yes"/>
      <point x="553" y="57"/>
      <point x="485" y="63"/>
      <point x="501" y="118" type="curve" smooth="yes"/>
      <point x="551" y="287" type="line"/>
      <point x="530" y="251" type="line"/>
      <point x="733" y="515" type="line"/>
      <point x="696" y="513" type="line"/>
      <point x="720" y="469"/>
      <point x="747" y="453"/>
      <point x="790" y="453" type="curve" smooth="yes"/>
      <point x="838" y="453"/>
      <point x="884" y="479"/>
      <point x="896" y="547" type="curve" smooth="yes"/>
      <point x="908" y="617"/>
      <point x="863" y="670"/>
      <point x="798" y="670" type="curve" smooth="yes"/>
      <point x="738" y="670"/>
      <point x="693" y="639"/>
      <point x="639" y="562" type="curve" smooth="yes"/>
      <point x="491" y="351" type="line"/>
    </contour>
  </outline>
</glyph>
<glyph name="bracketleft" format="1">
  <advance width="522"/>
  <unicode hex="005B"/>
  <outline>
    <contour>
      <point x="333" y="-169" type="line" smooth="yes"/>
      <point x="356" y="-169"/>
      <point x="370" y="-160"/>
      <point x="377" y="-135" type="curve" smooth="yes"/>
      <point x="381" y="-120" type="line" smooth="yes"/>
      <point x="389" y="-92"/>
      <point x="375" y="-75"/>
      <point x="347" y="-75" type="curve" smooth="yes"/>
      <point x="336" y="-75" type="line" smooth="yes"/>
      <point x="308" y="-75"/>
      <point x="294" y="-57"/>
      <point x="302" y="-30" type="curve" smooth="yes"/>
      <point x="500" y="671" type="line" smooth="yes"/>
      <point x="506" y="694"/>
      <point x="522" y="705"/>
      <point x="545" y="705" type="curve" smooth="yes"/>
      <point x="580" y="705" type="line" smooth="yes"/>
      <point x="603" y="705"/>
      <point x="618" y="715"/>
      <point x="624" y="739" type="curve" smooth="yes"/>
      <point x="628" y="754" type="line" smooth="yes"/>
      <point x="636" y="782"/>
      <point x="622" y="799"/>
      <point x="594" y="799" type="curve" smooth="yes"/>
      <point x="348" y="799" type="line" smooth="yes"/>
      <point x="307" y="799"/>
      <point x="280" y="780"/>
      <point x="269" y="740" type="curve" smooth="yes"/>
      <point x="35" y="-90" type="line" smooth="yes"/>
      <point x="21" y="-139"/>
      <point x="45" y="-169"/>
      <point x="95" y="-169" type="curve" smooth="yes"/>
    </contour>
  </outline>
</glyph>
<glyph name="bracketright" format="1">
  <advance width="523"/>
  <unicode hex="005D"/>
  <outline>
    <contour>
      <point x="222" y="799" type="line" smooth="yes"/>
      <point x="199" y="799"/>
      <point x="185" y="790"/>
      <point x="178" y="765" type="curve" smooth="yes"/>
      <point x="174" y="750" type="line" smooth="yes"/>
      <point x="166" y="722"/>
      <point x="180" y="705"/>
      <point x="208" y="705" type="curve" smooth="yes"/>
      <point x="219" y="705" type="line" smooth="yes"/>
      <point x="247" y="705"/>
      <point x="261" y="687"/>
      <point x="253" y="660" type="curve" smooth="yes"/>
      <point x="55" y="-41" type="line" smooth="yes"/>
      <point x="49" y="-64"/>
      <point x="33" y="-75"/>
      <point x="10" y="-75" type="curve" smooth="yes"/>
      <point x="-25" y="-75" type="line" smooth="yes"/>
      <point x="-48" y="-75"/>
      <point x="-63" y="-85"/>
      <point x="-69" y="-109" type="curve" smooth="yes"/>
      <point x="-73" y="-124" type="line" smooth="yes"/>
      <point x="-81" y="-152"/>
      <point x="-67" y="-169"/>
      <point x="-39" y="-169" type="curve" smooth="yes"/>
      <point x="207" y="-169" type="line" smooth="yes"/>
      <point x="248" y="-169"/>
      <point x="275" y="-150"/>
      <point x="286" y="-110" type="curve" smooth="yes"/>
      <point x="520" y="720" type="line" smooth="yes"/>
      <point x="534" y="769"/>
      <point x="510" y="799"/>
      <point x="460" y="799" type="curve" smooth="yes"/>
    </contour>
  </outline>
</glyph>
<glyph name="asciicircum" format="1">
  <advance width="615"/>
  <unicode hex="005E"/>
  <outline>
    <contour>
      <point x="484" y="678" type="line" smooth="yes"/>
      <point x="469" y="737"/>
      <point x="447" y="755"/>
      <point x="418" y="755" type="curve" smooth="yes"/>
      <point x="395" y="755"/>
      <point x="377" y="742"/>
      <point x="354" y="712" type="curve" smooth="yes"/>
      <point x="106" y="382" type="line" smooth="yes"/>
      <point x="93" y="365"/>
      <point x="84" y="349"/>
      <point x="81" y="335" type="curve" smooth="yes"/>
      <point x="72" y="297"/>
      <point x="100" y="265"/>
      <point x="135" y="265" type="curve" smooth="yes"/>
      <point x="161" y="265"/>
      <point x="181" y="281"/>
      <point x="200" y="308" type="curve" smooth="yes"/>
      <point x="387" y="578" type="line"/>
      <point x="449" y="336" type="line" smooth="yes"/>
      <point x="463" y="282"/>
      <point x="482" y="260"/>
      <point x="513" y="260" type="curve" smooth="yes"/>
      <point x="542" y="260"/>
      <point x="562" y="278"/>
      <point x="569" y="305" type="curve" smooth="yes"/>
      <point x="573" y="320"/>
      <point x="573" y="336"/>
      <point x="568" y="354" type="curve" smooth="yes"/>
    </contour>
  </outline>
</glyph>
<glyph name="grave" format="1">
  <advance width="258"/>
  <unicode hex="0060"/>
  <outline>
    <contour>
      <point x="248" y="500" type="move" name="_top"/>
    </contour>
    <contour>
      <point x="201" y="761" type="curve" smooth="yes"/>
      <point x="160" y="761"/>
      <point x="137" y="737"/>
      <point x="135" y="705" type="curve" smooth="yes"/>
      <point x="133" y="669"/>
      <point x="151" y="647"/>
      <point x="188" y="618" type="curve" smooth="yes"/>
      <point x="246" y="573" type="line" smooth="yes"/>
      <point x="266" y="557"/>
      <point x="279" y="553"/>
      <point x="294" y="553" type="curve" smooth="yes"/>
      <point x="305" y="553"/>
      <point x="315" y="560"/>
      <point x="318" y="571" type="curve" smooth="yes"/>
      <point x="320" y="579"/>
      <point x="320" y="589"/>
      <point x="315" y="602" type="curve" smooth="yes"/>
      <point x="290" y="681" type="line" smooth="yes"/>
      <point x="271" y="738"/>
      <point x="243" y="761"/>
    </contour>
  </outline>
</glyph>
<glyph name="b" format="1">
  <advance width="677"/>
  <unicode hex="0062"/>
  <outline>
    <contour>
      <point x="317" y="407" type="curve"/>
      <point x="342" y="384" type="line"/>
      <point x="356" y="405"/>
      <point x="375" y="414"/>
      <point x="390" y="414" type="curve" smooth="yes"/>
      <point x="415" y="414"/>
      <point x="433" y="384"/>
      <point x="397" y="258" type="curve" smooth="yes"/>
      <point x="359" y="121"/>
      <point x="331" y="92"/>
      <point x="302" y="92" type="curve" smooth="yes"/>
      <point x="277" y="92"/>
      <point x="259" y="110"/>
      <point x="274" y="158" type="curve"/>
      <point x="186" y="113" type="line"/>
      <point x="211" y="39"/>
      <point x="272" y="-9"/>
      <point x="374" y="-9" type="curve" smooth="yes"/>
      <point x="502" y="-9"/>
      <point x="617" y="73"/>
      <point x="662" y="252" type="curve" smooth="yes"/>
      <point x="702" y="414"/>
      <point x="632" y="533"/>
      <point x="510" y="533" type="curve" smooth="yes"/>
      <point x="426" y="533"/>
      <point x="366" y="487"/>
    </contour>
    <contour>
      <point x="415" y="614" type="line" smooth="yes"/>
      <point x="436" y="681"/>
      <point x="413" y="739"/>
      <point x="309" y="739" type="curve" smooth="yes"/>
      <point x="229" y="739"/>
      <point x="136" y="713"/>
      <point x="127" y="681" type="curve" smooth="yes"/>
      <point x="119" y="649"/>
      <point x="175" y="653"/>
      <point x="160" y="605" type="curve" smooth="yes"/>
      <point x="-7" y="62" type="line" smooth="yes"/>
      <point x="-19" y="23"/>
      <point x="1" y="0"/>
      <point x="42" y="0" type="curve" smooth="yes"/>
      <point x="86" y="0" type="line" smooth="yes"/>
      <point x="123" y="0"/>
      <point x="147" y="13"/>
      <point x="173" y="35" type="curve" smooth="yes"/>
      <point x="236" y="89" type="line" smooth="yes"/>
      <point x="245" y="97"/>
      <point x="262" y="120"/>
      <point x="280" y="177" type="curve" smooth="yes"/>
    </contour>
  </outline>
</glyph>
<glyph name="c" format="1">
  <advance width="542"/>
  <unicode hex="0063"/>
  <outline>
    <contour>
      <point x="347" y="500" type="move" name="top"/>
    </contour>
    <contour>
      <point x="283" y="0" type="move" name="bottom"/>
    </contour>
    <contour>
      <point x="24" y="284" type="curve" smooth="yes"/>
      <point x="-15" y="109"/>
      <point x="92" y="-3"/>
      <point x="260" y="-3" type="curve" smooth="yes"/>
      <point x="405" y="-3"/>
      <point x="503" y="98"/>
      <point x="502" y="170" type="curve" smooth="yes"/>
      <point x="502" y="180"/>
      <point x="500" y="183"/>
      <point x="492" y="183" type="curve" smooth="yes"/>
      <point x="471" y="183"/>
      <point x="434" y="149"/>
      <point x="361" y="149" type="curve" smooth="yes"/>
      <point x="271" y="149"/>
      <point x="227" y="204"/>
      <point x="251" y="313" type="curve" smooth="yes"/>
      <point x="267" y="388"/>
      <point x="317" y="428"/>
      <point x="369" y="442" type="curve"/>
      <point x="347" y="363"/>
      <point x="385" y="309"/>
      <point x="465" y="309" type="curve" smooth="yes"/>
      <point x="530" y="309"/>
      <point x="568" y="350"/>
      <point x="567" y="403" type="curve" smooth="yes"/>
      <point x="566" y="477"/>
      <point x="486" y="534"/>
      <point x="363" y="534" type="curve" smooth="yes"/>
      <point x="203" y="534"/>
      <point x="62" y="456"/>
    </contour>
  </outline>
</glyph>
<glyph name="e" format="1">
  <advance width="560"/>
  <unicode hex="0065"/>
  <outline>
    <contour>
      <point x="312" y="0" type="move" name="ogonek"/>
    </contour>
    <contour>
      <point x="333" y="500" type="move" name="top"/>
    </contour>
    <contour>
      <point x="24" y="286" type="curve" smooth="yes"/>
      <point x="-16" y="91"/>
      <point x="107" y="-3"/>
      <point x="269" y="-3" type="curve" smooth="yes"/>
      <point x="429" y="-3"/>
      <point x="504" y="99"/>
      <point x="503" y="163" type="curve" smooth="yes"/>
      <point x="503" y="173"/>
      <point x="499" y="176"/>
      <point x="492" y="176" type="curve" smooth="yes"/>
      <point x="471" y="176"/>
      <point x="411" y="144"/>
      <point x="352" y="144" type="curve" smooth="yes"/>
      <point x="283" y="144"/>
      <point x="231" y="169"/>
      <point x="245" y="267" type="curve" smooth="yes"/>
      <point x="264" y="391"/>
      <point x="308" y="451"/>
      <point x="330" y="451" type="curve" smooth="yes"/>
      <point x="339" y="451"/>
      <point x="345" y="442"/>
      <point x="346" y="423" type="curve" smooth="yes"/>
      <point x="347" y="362"/>
      <point x="317" y="287"/>
      <point x="247" y="298" type="curve"/>
      <point x="232" y="240" type="line"/>
      <point x="349" y="220"/>
      <point x="547" y="228"/>
      <point x="576" y="355" type="curve" smooth="yes"/>
      <point x="595" y="440"/>
      <point x="551" y="534"/>
      <point x="339" y="534" type="curve" smooth="yes"/>
      <point x="184" y="534"/>
      <point x="58" y="455"/>
    </contour>
  </outline>
</glyph>
<glyph name="g" format="1">
  <advance width="635"/>
  <unicode hex="0067"/>
  <outline>
    <contour>
      <point x="264" y="507" type="move" name="top"/>
    </contour>
    <contour>
      <point x="29" y="103" type="curve" smooth="yes"/>
      <point x="11" y="39"/>
      <point x="65" y="-14"/>
      <point x="190" y="-14" type="curve" smooth="yes"/>
      <point x="286" y="-14" type="line" smooth="yes"/>
      <point x="315" y="-14"/>
      <point x="326" y="-31"/>
      <point x="318" y="-53" type="curve" smooth="yes"/>
      <point x="308" y="-83"/>
      <point x="263" y="-98"/>
      <point x="208" y="-98" type="curve" smooth="yes"/>
      <point x="154" y="-98"/>
      <point x="128" y="-84"/>
      <point x="127" y="-51" type="curve" smooth="yes"/>
      <point x="126" y="-18"/>
      <point x="143" y="4"/>
      <point x="187" y="18" type="curve"/>
      <point x="106" y="27" type="line"/>
      <point x="-46" y="27"/>
      <point x="-82" y="-8"/>
      <point x="-94" y="-47" type="curve" smooth="yes"/>
      <point x="-118" y="-127"/>
      <point x="-22" y="-200"/>
      <point x="203" y="-200" type="curve" smooth="yes"/>
      <point x="434" y="-200"/>
      <point x="542" y="-125"/>
      <point x="564" y="-52" type="curve" smooth="yes"/>
      <point x="590" y="36"/>
      <point x="527" y="87"/>
      <point x="407" y="87" type="curve" smooth="yes"/>
      <point x="257" y="87" type="line" smooth="yes"/>
      <point x="210" y="87"/>
      <point x="202" y="107"/>
      <point x="206" y="124" type="curve" smooth="yes"/>
      <point x="209" y="138"/>
      <point x="217" y="149"/>
      <point x="233" y="158" type="curve"/>
      <point x="168" y="190" type="line"/>
      <point x="72" y="174"/>
      <point x="39" y="134"/>
    </contour>
    <contour>
      <point x="389" y="337" type="curve" smooth="yes"/>
      <point x="363" y="252"/>
      <point x="339" y="225"/>
      <point x="307" y="225" type="curve" smooth="yes"/>
      <point x="276" y="225"/>
      <point x="270" y="251"/>
      <point x="295" y="337" type="curve" smooth="yes"/>
      <point x="321" y="424"/>
      <point x="344" y="449"/>
      <point x="376" y="449" type="curve" smooth="yes"/>
      <point x="407" y="449"/>
      <point x="415" y="423"/>
    </contour>
    <contour>
      <point x="54" y="346" type="curve" smooth="yes"/>
      <point x="25" y="219"/>
      <point x="109" y="141"/>
      <point x="329" y="141" type="curve" smooth="yes"/>
      <point x="486" y="141"/>
      <point x="601" y="224"/>
      <point x="625" y="328" type="curve" smooth="yes"/>
      <point x="653" y="453"/>
      <point x="572" y="533"/>
      <point x="352" y="533" type="curve" smooth="yes"/>
      <point x="195" y="533"/>
      <point x="78" y="449"/>
    </contour>
    <contour>
      <point x="507" y="598" type="curve" smooth="yes"/>
      <point x="507" y="557"/>
      <point x="531" y="502"/>
      <point x="569" y="468" type="curve"/>
      <point x="615" y="435" type="line"/>
      <point x="597" y="470"/>
      <point x="584" y="524"/>
      <point x="593" y="547" type="curve"/>
      <point x="610" y="539"/>
      <point x="624" y="532"/>
      <point x="658" y="532" type="curve" smooth="yes"/>
      <point x="711" y="532"/>
      <point x="738" y="552"/>
      <point x="738" y="591" type="curve" smooth="yes"/>
      <point x="737" y="647"/>
      <point x="670" y="692"/>
      <point x="606" y="692" type="curve" smooth="yes"/>
      <point x="533" y="692"/>
      <point x="506" y="643"/>
    </contour>
  </outline>
</glyph>
<glyph name="j" format="1">
  <advance width="335"/>
  <unicode hex="006A"/>
  <outline>
    <contour>
      <point x="-42" y="-44" type="line" smooth="yes"/>
      <point x="-66" y="-123"/>
      <point x="-134" y="-119"/>
      <point x="-143" y="-149" type="curve" smooth="yes"/>
      <point x="-151" y="-176"/>
      <point x="-95" y="-190"/>
      <point x="-43" y="-190" type="curve" smooth="yes"/>
      <point x="94" y="-190"/>
      <point x="182" y="-148"/>
      <point x="223" y="-11" type="curve" smooth="yes"/>
      <point x="346" y="403" type="line" smooth="yes"/>
      <point x="367" y="472"/>
      <point x="345" y="529"/>
      <point x="241" y="529" type="curve" smooth="yes"/>
      <point x="161" y="529"/>
      <point x="67" y="503"/>
      <point x="59" y="471" type="curve" smooth="yes"/>
      <point x="50" y="438"/>
      <point x="105" y="443"/>
      <point x="91" y="395" type="curve" smooth="yes"/>
    </contour>
    <contour>
      <point x="219" y="641" type="curve" smooth="yes"/>
      <point x="220" y="589"/>
      <point x="259" y="548"/>
      <point x="312" y="548" type="curve" smooth="yes"/>
      <point x="380" y="548"/>
      <point x="425" y="607"/>
      <point x="424" y="662" type="curve" smooth="yes"/>
      <point x="424" y="713"/>
      <point x="383" y="753"/>
      <point x="330" y="753" type="curve" smooth="yes"/>
      <point x="262" y="753"/>
      <point x="218" y="693"/>
    </contour>
  </outline>
</glyph>
<glyph name="m" format="1">
  <advance width="1048"/>
  <unicode hex="006D"/>
  <outline>
    <contour>
      <point x="324" y="354" type="curve"/>
      <point x="335" y="305" type="line"/>
      <point x="353" y="362"/>
      <point x="384" y="379"/>
      <point x="405" y="379" type="curve" smooth="yes"/>
      <point x="425" y="379"/>
      <point x="442" y="363"/>
      <point x="429" y="330" type="curve" smooth="yes"/>
      <point x="374" y="186" type="line" smooth="yes"/>
      <point x="362" y="155"/>
      <point x="356" y="126"/>
      <point x="356" y="103" type="curve" smooth="yes"/>
      <point x="357" y="35"/>
      <point x="413" y="-9"/>
      <point x="501" y="-9" type="curve" smooth="yes"/>
      <point x="614" y="-9"/>
      <point x="672" y="55"/>
      <point x="671" y="110" type="curve" smooth="yes"/>
      <point x="671" y="121"/>
      <point x="667" y="132"/>
      <point x="660" y="132" type="curve" smooth="yes"/>
      <point x="653" y="132"/>
      <point x="647" y="111"/>
      <point x="628" y="111" type="curve" smooth="yes"/>
      <point x="617" y="111"/>
      <point x="611" y="122"/>
      <point x="617" y="138" type="curve" smooth="yes"/>
      <point x="678" y="335" type="line" smooth="yes"/>
      <point x="712" y="445"/>
      <point x="654" y="529"/>
      <point x="552" y="529" type="curve" smooth="yes"/>
      <point x="472" y="529"/>
      <point x="394" y="498"/>
    </contour>
    <contour>
      <point x="658" y="354" type="curve"/>
      <point x="668" y="305" type="line"/>
      <point x="687" y="362"/>
      <point x="718" y="379"/>
      <point x="739" y="379" type="curve" smooth="yes"/>
      <point x="759" y="379"/>
      <point x="776" y="363"/>
      <point x="763" y="330" type="curve" smooth="yes"/>
      <point x="708" y="186" type="line" smooth="yes"/>
      <point x="696" y="155"/>
      <point x="690" y="126"/>
      <point x="690" y="103" type="curve" smooth="yes"/>
      <point x="691" y="35"/>
      <point x="747" y="-9"/>
      <point x="835" y="-9" type="curve" smooth="yes"/>
      <point x="948" y="-9"/>
      <point x="1006" y="55"/>
      <point x="1005" y="110" type="curve" smooth="yes"/>
      <point x="1005" y="121"/>
      <point x="1001" y="132"/>
      <point x="994" y="132" type="curve" smooth="yes"/>
      <point x="986" y="132"/>
      <point x="981" y="111"/>
      <point x="962" y="111" type="curve" smooth="yes"/>
      <point x="951" y="111"/>
      <point x="945" y="122"/>
      <point x="951" y="138" type="curve" smooth="yes"/>
      <point x="1012" y="335" type="line" smooth="yes"/>
      <point x="1046" y="445"/>
      <point x="988" y="529"/>
      <point x="886" y="529" type="curve" smooth="yes"/>
      <point x="806" y="529"/>
      <point x="727" y="498"/>
    </contour>
    <contour>
      <point x="262" y="529" type="curve" smooth="yes"/>
      <point x="182" y="529"/>
      <point x="88" y="503"/>
      <point x="80" y="471" type="curve" smooth="yes"/>
      <point x="71" y="438"/>
      <point x="126" y="443"/>
      <point x="112" y="395" type="curve" smooth="yes"/>
      <point x="23" y="106" type="line" smooth="yes"/>
      <point x="4" y="46"/>
      <point x="-31" y="59"/>
      <point x="-40" y="31" type="curve" smooth="yes"/>
      <point x="-44" y="13"/>
      <point x="-30" y="0"/>
      <point x="6" y="0" type="curve" smooth="yes"/>
      <point x="234" y="0" type="line" smooth="yes"/>
      <point x="277" y="0"/>
      <point x="295" y="8"/>
      <point x="300" y="25" type="curve" smooth="yes"/>
      <point x="308" y="51"/>
      <point x="256" y="48"/>
      <point x="274" y="104" type="curve" smooth="yes"/>
      <point x="358" y="378" type="line" smooth="yes"/>
      <point x="388" y="472"/>
      <point x="343" y="529"/>
    </contour>
  </outline>
</glyph>
<glyph name="n" format="1">
  <advance width="716"/>
  <unicode hex="006E"/>
  <outline>
    <contour>
      <point x="378" y="500" type="move" name="top"/>
    </contour>
    <contour>
      <point x="374" y="0" type="move" name="bottom"/>
    </contour>
    <contour>
      <point x="554" y="529" type="curve" smooth="yes"/>
      <point x="489" y="529"/>
      <point x="426" y="509"/>
      <point x="367" y="425" type="curve"/>
      <point x="371" y="491"/>
      <point x="328" y="529"/>
      <point x="262" y="529" type="curve" smooth="yes"/>
      <point x="182" y="529"/>
      <point x="88" y="503"/>
      <point x="80" y="471" type="curve" smooth="yes"/>
      <point x="71" y="438"/>
      <point x="126" y="443"/>
      <point x="112" y="395" type="curve" smooth="yes"/>
      <point x="23" y="106" type="line" smooth="yes"/>
      <point x="4" y="46"/>
      <point x="-31" y="59"/>
      <point x="-40" y="31" type="curve"/>
      <point x="-44" y="13"/>
      <point x="-30" y="0"/>
      <point x="6" y="0" type="curve" smooth="yes"/>
      <point x="234" y="0" type="line" smooth="yes"/>
      <point x="277" y="0"/>
      <point x="295" y="8"/>
      <point x="300" y="25" type="curve" smooth="yes"/>
      <point x="308" y="51"/>
      <point x="256" y="48"/>
      <point x="274" y="104" type="curve" smooth="yes"/>
      <point x="336" y="308" type="line" smooth="yes"/>
      <point x="348" y="347"/>
      <point x="377" y="379"/>
      <point x="407" y="379" type="curve" smooth="yes"/>
      <point x="427" y="379"/>
      <point x="444" y="363"/>
      <point x="431" y="330" type="curve" smooth="yes"/>
      <point x="376" y="186" type="line" smooth="yes"/>
      <point x="364" y="155"/>
      <point x="358" y="126"/>
      <point x="358" y="103" type="curve" smooth="yes"/>
      <point x="359" y="35"/>
      <point x="415" y="-9"/>
      <point x="503" y="-9" type="curve" smooth="yes"/>
      <point x="616" y="-9"/>
      <point x="674" y="55"/>
      <point x="673" y="110" type="curve"/>
      <point x="673" y="121"/>
      <point x="669" y="132"/>
      <point x="662" y="132" type="curve" smooth="yes"/>
      <point x="655" y="132"/>
      <point x="649" y="111"/>
      <point x="630" y="111" type="curve" smooth="yes"/>
      <point x="619" y="111"/>
      <point x="613" y="122"/>
      <point x="619" y="138" type="curve"/>
      <point x="680" y="335" type="line" smooth="yes"/>
      <point x="714" y="445"/>
      <point x="656" y="529"/>
    </contour>
  </outline>
</glyph>
<glyph name="p" format="1">
  <advance width="691"/>
  <unicode hex="0070"/>
  <outline>
    <contour>
      <point x="319" y="361" type="curve"/>
      <point x="344" y="335" type="line"/>
      <point x="367" y="385"/>
      <point x="396" y="393"/>
      <point x="406" y="393" type="curve" smooth="yes"/>
      <point x="431" y="393"/>
      <point x="447" y="379"/>
      <point x="407" y="236" type="curve" smooth="yes"/>
      <point x="368" y="98"/>
      <point x="334" y="82"/>
      <point x="305" y="82" type="curve" smooth="yes"/>
      <point x="285" y="82"/>
      <point x="269" y="95"/>
      <point x="257" y="120" type="curve"/>
      <point x="224" y="41" type="line"/>
      <point x="261" y="6"/>
      <point x="320" y="-9"/>
      <point x="373" y="-9" type="curve" smooth="yes"/>
      <point x="511" y="-9"/>
      <point x="633" y="73"/>
      <point x="675" y="244" type="curve" smooth="yes"/>
      <point x="717" y="414"/>
      <point x="655" y="533"/>
      <point x="523" y="533" type="curve" smooth="yes"/>
      <point x="449" y="533"/>
      <point x="376" y="482"/>
    </contour>
    <contour>
      <point x="265" y="529" type="curve" smooth="yes"/>
      <point x="185" y="529"/>
      <point x="91" y="503"/>
      <point x="83" y="471" type="curve" smooth="yes"/>
      <point x="74" y="438"/>
      <point x="130" y="442"/>
      <point x="115" y="395" type="curve" smooth="yes"/>
      <point x="-31" y="-84" type="line" smooth="yes"/>
      <point x="-48" y="-144"/>
      <point x="-84" y="-131"/>
      <point x="-92" y="-160" type="curve" smooth="yes"/>
      <point x="-98" y="-177"/>
      <point x="-83" y="-190"/>
      <point x="-48" y="-190" type="curve" smooth="yes"/>
      <point x="181" y="-190" type="line" smooth="yes"/>
      <point x="223" y="-190"/>
      <point x="241" y="-183"/>
      <point x="246" y="-166" type="curve" smooth="yes"/>
      <point x="254" y="-139"/>
      <point x="203" y="-141"/>
      <point x="221" y="-87" type="curve" smooth="yes"/>
      <point x="362" y="378" type="line" smooth="yes"/>
      <point x="391" y="471"/>
      <point x="346" y="529"/>
    </contour>
  </outline>
</glyph>
<glyph name="q" format="1">
  <advance width="682"/>
  <unicode hex="0071"/>
  <outline>
    <contour>
      <point x="173" y="-3" type="curve" smooth="yes"/>
      <point x="256" y="-3"/>
      <point x="310" y="43"/>
      <point x="350" y="98" type="curve"/>
      <point x="360" y="191" type="line"/>
      <point x="346" y="146"/>
      <point x="334" y="127"/>
      <point x="313" y="127" type="curve" smooth="yes"/>
      <point x="280" y="127"/>
      <point x="258" y="172"/>
      <point x="293" y="284" type="curve" smooth="yes"/>
      <point x="328" y="398"/>
      <point x="356" y="427"/>
      <point x="387" y="427" type="curve" smooth="yes"/>
      <point x="411" y="427"/>
      <point x="426" y="410"/>
      <point x="412" y="361" type="curve"/>
      <point x="514" y="421" type="line"/>
      <point x="466" y="493"/>
      <point x="414" y="529"/>
      <point x="312" y="529" type="curve" smooth="yes"/>
      <point x="191" y="529"/>
      <point x="65" y="450"/>
      <point x="22" y="278" type="curve" smooth="yes"/>
      <point x="-24" y="94"/>
      <point x="64" y="-3"/>
    </contour>
    <contour>
      <point x="293" y="-26" type="line" smooth="yes"/>
      <point x="262" y="-129"/>
      <point x="318" y="-190"/>
      <point x="435" y="-190" type="curve" smooth="yes"/>
      <point x="536" y="-190"/>
      <point x="641" y="-123"/>
      <point x="640" y="-72" type="curve" smooth="yes"/>
      <point x="640" y="-63"/>
      <point x="637" y="-56"/>
      <point x="628" y="-56" type="curve" smooth="yes"/>
      <point x="616" y="-56"/>
      <point x="596" y="-63"/>
      <point x="573" y="-63" type="curve" smooth="yes"/>
      <point x="546" y="-63"/>
      <point x="537" y="-53"/>
      <point x="553" y="0" type="curve" smooth="yes"/>
      <point x="692" y="458" type="line" smooth="yes"/>
      <point x="704" y="496"/>
      <point x="685" y="519"/>
      <point x="644" y="519" type="curve" smooth="yes"/>
      <point x="599" y="519" type="line" smooth="yes"/>
      <point x="562" y="519"/>
      <point x="539" y="507"/>
      <point x="513" y="484" type="curve" smooth="yes"/>
      <point x="448" y="431" type="line" smooth="yes"/>
      <point x="440" y="423"/>
      <point x="424" y="399"/>
      <point x="406" y="342" type="curve" smooth="yes"/>
    </contour>
  </outline>
</glyph>
<glyph name="r" format="1">
  <advance width="579"/>
  <unicode hex="0072"/>
  <outline>
    <contour>
      <point x="338" y="500" type="move" name="top"/>
    </contour>
    <contour>
      <point x="164" y="0" type="move" name="bottom"/>
    </contour>
    <contour>
      <point x="319" y="361" type="curve"/>
      <point x="351" y="354" type="line"/>
      <point x="359" y="382"/>
      <point x="369" y="390"/>
      <point x="382" y="390" type="curve" smooth="yes"/>
      <point x="419" y="390"/>
      <point x="410" y="291"/>
      <point x="505" y="291" type="curve" smooth="yes"/>
      <point x="556" y="291"/>
      <point x="597" y="320"/>
      <point x="610" y="376" type="curve" smooth="yes"/>
      <point x="630" y="455"/>
      <point x="582" y="529"/>
      <point x="491" y="529" type="curve" smooth="yes"/>
      <point x="424" y="529"/>
      <point x="361" y="491"/>
    </contour>
    <contour>
      <point x="262" y="529" type="curve" smooth="yes"/>
      <point x="182" y="529"/>
      <point x="88" y="503"/>
      <point x="80" y="471" type="curve" smooth="yes"/>
      <point x="71" y="438"/>
      <point x="126" y="443"/>
      <point x="112" y="395" type="curve" smooth="yes"/>
      <point x="23" y="106" type="line" smooth="yes"/>
      <point x="4" y="46"/>
      <point x="-31" y="59"/>
      <point x="-40" y="31" type="curve" smooth="yes"/>
      <point x="-44" y="13"/>
      <point x="-30" y="0"/>
      <point x="6" y="0" type="curve" smooth="yes"/>
      <point x="262" y="0" type="line" smooth="yes"/>
      <point x="304" y="0"/>
      <point x="316" y="8"/>
      <point x="319" y="25" type="curve" smooth="yes"/>
      <point x="323" y="53"/>
      <point x="259" y="52"/>
      <point x="274" y="104" type="curve" smooth="yes"/>
      <point x="358" y="378" type="line" smooth="yes"/>
      <point x="388" y="473"/>
      <point x="343" y="529"/>
    </contour>
  </outline>
</glyph>
<glyph name="u" format="1">
  <advance width="686"/>
  <unicode hex="0075"/>
  <outline>
    <contour>
      <point x="492" y="0" type="move" name="ogonek"/>
    </contour>
    <contour>
      <point x="370" y="500" type="move" name="top"/>
    </contour>
    <contour>
      <point x="342" y="403" type="line" smooth="yes"/>
      <point x="363" y="472"/>
      <point x="341" y="529"/>
      <point x="237" y="529" type="curve" smooth="yes"/>
      <point x="157" y="529"/>
      <point x="63" y="503"/>
      <point x="55" y="471" type="curve" smooth="yes"/>
      <point x="46" y="438"/>
      <point x="102" y="443"/>
      <point x="87" y="395" type="curve" smooth="yes"/>
      <point x="23" y="186" type="line" smooth="yes"/>
      <point x="-19" y="62"/>
      <point x="72" y="-3"/>
      <point x="178" y="-3" type="curve" smooth="yes"/>
      <point x="260" y="-3"/>
      <point x="343" y="46"/>
      <point x="396" y="154" type="curve"/>
      <point x="362" y="200" type="line"/>
      <point x="346" y="162"/>
      <point x="332" y="146"/>
      <point x="304" y="146" type="curve" smooth="yes"/>
      <point x="282" y="146"/>
      <point x="268" y="162"/>
      <point x="279" y="195" type="curve" smooth="yes"/>
    </contour>
    <contour>
      <point x="357" y="186" type="line" smooth="yes"/>
      <point x="347" y="155"/>
      <point x="343" y="126"/>
      <point x="343" y="103" type="curve" smooth="yes"/>
      <point x="344" y="42"/>
      <point x="390" y="-9"/>
      <point x="485" y="-9" type="curve" smooth="yes"/>
      <point x="584" y="-9"/>
      <point x="650" y="55"/>
      <point x="649" y="110" type="curve" smooth="yes"/>
      <point x="649" y="121"/>
      <point x="644" y="132"/>
      <point x="637" y="132" type="curve" smooth="yes"/>
      <point x="630" y="132"/>
      <point x="624" y="111"/>
      <point x="605" y="111" type="curve" smooth="yes"/>
      <point x="594" y="111"/>
      <point x="589" y="122"/>
      <point x="594" y="138" type="curve" smooth="yes"/>
      <point x="675" y="403" type="line" smooth="yes"/>
      <point x="697" y="472"/>
      <point x="675" y="529"/>
      <point x="570" y="529" type="curve" smooth="yes"/>
      <point x="490" y="529"/>
      <point x="396" y="503"/>
      <point x="389" y="471" type="curve" smooth="yes"/>
      <point x="379" y="438"/>
      <point x="435" y="443"/>
      <point x="420" y="395" type="curve" smooth="yes"/>
    </contour>
  </outline>
</glyph>
<glyph name="v" format="1">
  <advance width="599"/>
  <unicode hex="0076"/>
  <outline>
    <contour>
      <point x="379" y="404" type="curve" smooth="yes"/>
      <point x="380" y="361"/>
      <point x="396" y="316"/>
      <point x="452" y="268" type="curve"/>
      <point x="413" y="163"/>
      <point x="337" y="106"/>
      <point x="295" y="106" type="curve" smooth="yes"/>
      <point x="267" y="106"/>
      <point x="256" y="122"/>
      <point x="264" y="148" type="curve" smooth="yes"/>
      <point x="329" y="362" type="line" smooth="yes"/>
      <point x="357" y="456"/>
      <point x="308" y="529"/>
      <point x="195" y="529" type="curve" smooth="yes"/>
      <point x="108" y="529"/>
      <point x="53" y="489"/>
      <point x="54" y="462" type="curve" smooth="yes"/>
      <point x="54" y="440"/>
      <point x="97" y="433"/>
      <point x="86" y="395" type="curve" smooth="yes"/>
      <point x="23" y="180" type="line" smooth="yes"/>
      <point x="-15" y="55"/>
      <point x="75" y="-9"/>
      <point x="207" y="-9" type="curve" smooth="yes"/>
      <point x="393" y="-9"/>
      <point x="614" y="207"/>
      <point x="611" y="391" type="curve" smooth="yes"/>
      <point x="610" y="478"/>
      <point x="555" y="529"/>
      <point x="488" y="529" type="curve" smooth="yes"/>
      <point x="413" y="529"/>
      <point x="378" y="468"/>
    </contour>
  </outline>
</glyph>
<glyph name="y" format="1">
  <advance width="620"/>
  <unicode hex="0079"/>
  <outline>
    <contour>
      <point x="314" y="500" type="move" name="top"/>
    </contour>
    <contour>
      <point x="435" y="448" type="curve" smooth="yes"/>
      <point x="413" y="374"/>
      <point x="435" y="304"/>
      <point x="489" y="255" type="curve"/>
      <point x="457" y="173"/>
      <point x="424" y="130"/>
      <point x="400" y="130" type="curve" smooth="yes"/>
      <point x="390" y="130"/>
      <point x="384" y="138"/>
      <point x="382" y="155" type="curve" smooth="yes"/>
      <point x="352" y="375" type="line" smooth="yes"/>
      <point x="340" y="475"/>
      <point x="306" y="530"/>
      <point x="218" y="530" type="curve" smooth="yes"/>
      <point x="127" y="530"/>
      <point x="59" y="465"/>
      <point x="37" y="394" type="curve" smooth="yes"/>
      <point x="27" y="361"/>
      <point x="33" y="347"/>
      <point x="40" y="347" type="curve" smooth="yes"/>
      <point x="48" y="347"/>
      <point x="58" y="361"/>
      <point x="70" y="361" type="curve" smooth="yes"/>
      <point x="82" y="361"/>
      <point x="89" y="354"/>
      <point x="93" y="327" type="curve" smooth="yes"/>
      <point x="133" y="82" type="line" smooth="yes"/>
      <point x="145" y="9"/>
      <point x="175" y="-20"/>
      <point x="242" y="-32" type="curve"/>
      <point x="207" y="-66"/>
      <point x="170" y="-85"/>
      <point x="124" y="-87" type="curve"/>
      <point x="113" y="-15"/>
      <point x="73" y="31"/>
      <point x="11" y="31" type="curve" smooth="yes"/>
      <point x="-26" y="31"/>
      <point x="-57" y="12"/>
      <point x="-69" y="-27" type="curve" smooth="yes"/>
      <point x="-92" y="-102"/>
      <point x="-35" y="-190"/>
      <point x="92" y="-190" type="curve" smooth="yes"/>
      <point x="309" y="-190"/>
      <point x="533" y="36"/>
      <point x="608" y="283" type="curve" smooth="yes"/>
      <point x="653" y="432"/>
      <point x="613" y="529"/>
      <point x="530" y="529" type="curve" smooth="yes"/>
      <point x="489" y="529"/>
      <point x="452" y="504"/>
    </contour>
  </outline>
</glyph>
<glyph name="z" format="1">
  <advance width="662"/>
  <unicode hex="007A"/>
  <outline>
    <contour>
      <point x="370" y="500" type="move" name="top"/>
    </contour>
    <contour>
      <point x="373" y="415" type="curve" smooth="yes"/>
      <point x="355" y="415"/>
      <point x="331" y="529"/>
      <point x="214" y="529" type="curve" smooth="yes"/>
      <point x="140" y="529"/>
      <point x="92" y="476"/>
      <point x="88" y="419" type="curve" smooth="yes"/>
      <point x="83" y="359"/>
      <point x="125" y="327"/>
      <point x="165" y="327" type="curve" smooth="yes"/>
      <point x="193" y="327"/>
      <point x="205" y="410"/>
      <point x="256" y="410" type="curve" smooth="yes"/>
      <point x="277" y="410"/>
      <point x="292" y="399"/>
      <point x="314" y="371" type="curve"/>
      <point x="57" y="214" type="line" smooth="yes"/>
      <point x="6" y="182"/>
      <point x="-14" y="150"/>
      <point x="-16" y="119" type="curve" smooth="yes"/>
      <point x="-20" y="54"/>
      <point x="47" y="-3"/>
      <point x="140" y="-3" type="curve" smooth="yes"/>
      <point x="245" y="-3"/>
      <point x="274" y="115"/>
      <point x="301" y="115" type="curve" smooth="yes"/>
      <point x="322" y="115"/>
      <point x="340" y="-3"/>
      <point x="474" y="-3" type="curve" smooth="yes"/>
      <point x="561" y="-3"/>
      <point x="618" y="53"/>
      <point x="623" y="119" type="curve" smooth="yes"/>
      <point x="629" y="202"/>
      <point x="566" y="241"/>
      <point x="531" y="241" type="curve" smooth="yes"/>
      <point x="499" y="241"/>
      <point x="450" y="69"/>
      <point x="355" y="174" type="curve"/>
      <point x="567" y="300" type="line" smooth="yes"/>
      <point x="624" y="334"/>
      <point x="652" y="365"/>
      <point x="655" y="414" type="curve" smooth="yes"/>
      <point x="659" y="470"/>
      <point x="602" y="529"/>
      <point x="532" y="529" type="curve" smooth="yes"/>
      <point x="435" y="529"/>
      <point x="397" y="415"/>
    </contour>
  </outline>
</glyph>
<glyph name="braceleft" format="1">
  <advance width="495"/>
  <unicode hex="007B"/>
  <outline>
    <contour>
      <point x="96" y="270" type="curve" smooth="yes"/>
      <point x="126" y="251"/>
      <point x="125" y="227"/>
      <point x="116" y="195" type="curve" smooth="yes"/>
      <point x="99" y="135"/>
      <point x="46" y="73"/>
      <point x="28" y="10" type="curve" smooth="yes"/>
      <point x="-1" y="-91"/>
      <point x="44" y="-182"/>
      <point x="219" y="-182" type="curve" smooth="yes"/>
      <point x="323" y="-182"/>
      <point x="410" y="-138"/>
      <point x="423" y="-85" type="curve" smooth="yes"/>
      <point x="426" y="-73"/>
      <point x="422" y="-60"/>
      <point x="405" y="-60" type="curve" smooth="yes"/>
      <point x="390" y="-60"/>
      <point x="368" y="-69"/>
      <point x="343" y="-69" type="curve" smooth="yes"/>
      <point x="291" y="-69"/>
      <point x="269" y="-34"/>
      <point x="283" y="15" type="curve" smooth="yes"/>
      <point x="301" y="80"/>
      <point x="351" y="125"/>
      <point x="370" y="190" type="curve" smooth="yes"/>
      <point x="387" y="249"/>
      <point x="366" y="282"/>
      <point x="332" y="300" type="curve" smooth="yes"/>
      <point x="310" y="312"/>
      <point x="310" y="315"/>
      <point x="335" y="323" type="curve" smooth="yes"/>
      <point x="386" y="339"/>
      <point x="422" y="371"/>
      <point x="433" y="413" type="curve" smooth="yes"/>
      <point x="449" y="471"/>
      <point x="426" y="559"/>
      <point x="445" y="628" type="curve" smooth="yes"/>
      <point x="462" y="688"/>
      <point x="500" y="704"/>
      <point x="531" y="704" type="curve" smooth="yes"/>
      <point x="559" y="704"/>
      <point x="584" y="690"/>
      <point x="605" y="690" type="curve" smooth="yes"/>
      <point x="622" y="690"/>
      <point x="631" y="695"/>
      <point x="634" y="708" type="curve" smooth="yes"/>
      <point x="641" y="738"/>
      <point x="577" y="811"/>
      <point x="435" y="811" type="curve" smooth="yes"/>
      <point x="315" y="811"/>
      <point x="218" y="742"/>
      <point x="193" y="652" type="curve" smooth="yes"/>
      <point x="170" y="569"/>
      <point x="196" y="484"/>
      <point x="180" y="425" type="curve" smooth="yes"/>
      <point x="170" y="386"/>
      <point x="152" y="367"/>
      <point x="121" y="359" type="curve" smooth="yes"/>
      <point x="94" y="352"/>
      <point x="85" y="348"/>
      <point x="78" y="321" type="curve" smooth="yes"/>
      <point x="71" y="294"/>
      <point x="77" y="282"/>
    </contour>
  </outline>
</glyph>
<glyph name="bar" format="1">
  <advance width="439"/>
  <unicode hex="007C"/>
  <outline>
    <contour>
      <point x="475" y="717" type="line" smooth="yes"/>
      <point x="485" y="752"/>
      <point x="472" y="766"/>
      <point x="435" y="766" type="curve" smooth="yes"/>
      <point x="278" y="766" type="line" smooth="yes"/>
      <point x="248" y="766"/>
      <point x="235" y="755"/>
      <point x="226" y="725" type="curve" smooth="yes"/>
      <point x="5" y="-51" type="line" smooth="yes"/>
      <point x="-5" y="-86"/>
      <point x="8" y="-100"/>
      <point x="45" y="-100" type="curve" smooth="yes"/>
      <point x="202" y="-100" type="line" smooth="yes"/>
      <point x="232" y="-100"/>
      <point x="245" y="-89"/>
      <point x="254" y="-59" type="curve" smooth="yes"/>
    </contour>
  </outline>
</glyph>
<glyph name="cent" format="1">
  <advance width="550"/>
  <unicode hex="00A2"/>
  <outline>
    <contour>
      <point x="213" y="75" type="line"/>
      <point x="184" y="-31" type="line" smooth="yes"/>
      <point x="173" y="-70"/>
      <point x="185" y="-100"/>
      <point x="222" y="-100" type="curve" smooth="yes"/>
      <point x="247" y="-100"/>
      <point x="269" y="-90"/>
      <point x="280" y="-51" type="curve" smooth="yes"/>
      <point x="315" y="75" type="line"/>
    </contour>
    <contour>
      <point x="421" y="467" type="line"/>
      <point x="450" y="571" type="line" smooth="yes"/>
      <point x="460" y="606"/>
      <point x="444" y="631"/>
      <point x="409" y="631" type="curve" smooth="yes"/>
      <point x="383" y="631"/>
      <point x="361" y="620"/>
      <point x="350" y="581" type="curve" smooth="yes"/>
      <point x="319" y="467" type="line"/>
    </contour>
    <component base="c"/>
  </outline>
</glyph>
<glyph name="sterling" format="1">
  <advance width="799"/>
  <unicode hex="00A3"/>
  <outline>
    <contour>
      <point x="414" y="173" type="curve" smooth="yes"/>
      <point x="516" y="536" type="line" smooth="yes"/>
      <point x="526" y="572"/>
      <point x="561" y="594"/>
      <point x="603" y="574" type="curve"/>
      <point x="563" y="488"/>
      <point x="615" y="420"/>
      <point x="713" y="420" type="curve" smooth="yes"/>
      <point x="781" y="420"/>
      <point x="820" y="451"/>
      <point x="832" y="500" type="curve" smooth="yes"/>
      <point x="849" y="570"/>
      <point x="771" y="667"/>
      <point x="547" y="667" type="curve" smooth="yes"/>
      <point x="369" y="667"/>
      <point x="268" y="613"/>
      <point x="242" y="527" type="curve" smooth="yes"/>
      <point x="225" y="470"/>
      <point x="235" y="414"/>
      <point x="271" y="375" type="curve"/>
      <point x="232" y="235" type="line"/>
      <point x="196" y="251"/>
      <point x="170" y="262"/>
      <point x="135" y="262" type="curve" smooth="yes"/>
      <point x="61" y="262"/>
      <point x="15" y="220"/>
      <point x="1" y="165" type="curve" smooth="yes"/>
      <point x="-19" y="82"/>
      <point x="37" y="-4"/>
      <point x="178" y="-4" type="curve" smooth="yes"/>
      <point x="306" y="-4"/>
      <point x="383" y="63"/>
    </contour>
    <contour>
      <point x="107" y="135" type="curve" smooth="yes"/>
      <point x="107" y="155"/>
      <point x="120" y="168"/>
      <point x="143" y="168" type="curve" smooth="yes"/>
      <point x="166" y="168"/>
      <point x="183" y="155"/>
      <point x="200" y="143" type="curve"/>
      <point x="190" y="111"/>
      <point x="172" y="99"/>
      <point x="149" y="99" type="curve" smooth="yes"/>
      <point x="126" y="99"/>
      <point x="107" y="115"/>
    </contour>
    <contour>
      <point x="756" y="101" type="curve" smooth="yes"/>
      <point x="781" y="201"/>
      <point x="692" y="262"/>
      <point x="662" y="262" type="curve" smooth="yes"/>
      <point x="632" y="262"/>
      <point x="601" y="149"/>
      <point x="451" y="149" type="curve" smooth="yes"/>
      <point x="419" y="149"/>
      <point x="371" y="161"/>
      <point x="348" y="172" type="curve"/>
      <point x="287" y="97" type="line"/>
      <point x="357" y="32"/>
      <point x="454" y="-6"/>
      <point x="559" y="-4" type="curve" smooth="yes"/>
      <point x="671" y="-2"/>
      <point x="740" y="37"/>
    </contour>
    <contour>
      <point x="181" y="302" type="curve" smooth="yes"/>
      <point x="547" y="302" type="line" smooth="yes"/>
      <point x="581" y="302"/>
      <point x="601" y="319"/>
      <point x="610" y="348" type="curve" smooth="yes"/>
      <point x="617" y="377"/>
      <point x="604" y="394"/>
      <point x="570" y="394" type="curve" smooth="yes"/>
      <point x="205" y="394" type="line" smooth="yes"/>
      <point x="172" y="394"/>
      <point x="150" y="377"/>
      <point x="142" y="348" type="curve" smooth="yes"/>
      <point x="134" y="319"/>
      <point x="148" y="302"/>
    </contour>
  </outline>
</glyph>
<glyph name="brokenbar" format="1">
  <advance width="440"/>
  <unicode hex="00A6"/>
  <outline>
    <contour>
      <point x="333" y="218" type="line" smooth="yes"/>
      <point x="342" y="251"/>
      <point x="330" y="267"/>
      <point x="293" y="267" type="curve" smooth="yes"/>
      <point x="136" y="267" type="line" smooth="yes"/>
      <point x="106" y="267"/>
      <point x="92" y="255"/>
      <point x="84" y="226" type="curve" smooth="yes"/>
      <point x="5" y="-50" type="line" smooth="yes"/>
      <point x="-4" y="-83"/>
      <point x="8" y="-99"/>
      <point x="45" y="-99" type="curve" smooth="yes"/>
      <point x="202" y="-99" type="line" smooth="yes"/>
      <point x="232" y="-99"/>
      <point x="246" y="-87"/>
      <point x="254" y="-58" type="curve" smooth="yes"/>
    </contour>
    <contour>
      <point x="476" y="717" type="line" smooth="yes"/>
      <point x="485" y="750"/>
      <point x="473" y="766"/>
      <point x="436" y="766" type="curve" smooth="yes"/>
      <point x="279" y="766" type="line" smooth="yes"/>
      <point x="249" y="766"/>
      <point x="235" y="754"/>
      <point x="227" y="725" type="curve" smooth="yes"/>
      <point x="148" y="449" type="line" smooth="yes"/>
      <point x="139" y="416"/>
      <point x="151" y="400"/>
      <point x="188" y="400" type="curve" smooth="yes"/>
      <point x="345" y="400" type="line" smooth="yes"/>
      <point x="375" y="400"/>
      <point x="389" y="412"/>
      <point x="397" y="441" type="curve" smooth="yes"/>
    </contour>
  </outline>
</glyph>
<glyph name="dieresis" format="1">
  <advance width="460"/>
  <unicode hex="00A8"/>
  <outline>
    <contour>
      <point x="272" y="500" type="move" name="_top"/>
    </contour>
    <contour>
      <point x="120" y="644" type="curve" smooth="yes"/>
      <point x="121" y="594"/>
      <point x="159" y="555"/>
      <point x="210" y="555" type="curve" smooth="yes"/>
      <point x="274" y="555"/>
      <point x="317" y="611"/>
      <point x="316" y="664" type="curve" smooth="yes"/>
      <point x="315" y="712"/>
      <point x="276" y="750"/>
      <point x="225" y="750" type="curve" smooth="yes"/>
      <point x="161" y="750"/>
      <point x="120" y="693"/>
    </contour>
    <contour>
      <point x="344" y="644" type="curve" smooth="yes"/>
      <point x="345" y="594"/>
      <point x="383" y="555"/>
      <point x="434" y="555" type="curve" smooth="yes"/>
      <point x="498" y="555"/>
      <point x="541" y="611"/>
      <point x="540" y="664" type="curve" smooth="yes"/>
      <point x="539" y="712"/>
      <point x="500" y="750"/>
      <point x="449" y="750" type="curve" smooth="yes"/>
      <point x="385" y="750"/>
      <point x="344" y="693"/>
    </contour>
  </outline>
</glyph>
<glyph name="ordfeminine" format="1">
  <advance width="490"/>
  <unicode hex="00AA"/>
  <outline>
    <contour>
      <point x="142" y="589" type="curve" smooth="yes"/>
      <point x="143" y="559"/>
      <point x="172" y="533"/>
      <point x="227" y="533" type="curve" smooth="yes"/>
      <point x="299" y="533"/>
      <point x="322" y="584"/>
      <point x="305" y="627" type="curve"/>
      <point x="339" y="627"/>
      <point x="354" y="615"/>
      <point x="356" y="591" type="curve" smooth="yes"/>
      <point x="356" y="578"/>
      <point x="353" y="561"/>
      <point x="347" y="541" type="curve" smooth="yes"/>
      <point x="329" y="491" type="line"/>
      <point x="292" y="502"/>
      <point x="250" y="511"/>
      <point x="198" y="511" type="curve" smooth="yes"/>
      <point x="123" y="511"/>
      <point x="59" y="479"/>
      <point x="44" y="405" type="curve" smooth="yes"/>
      <point x="32" y="348"/>
      <point x="72" y="274"/>
      <point x="174" y="274" type="curve" smooth="yes"/>
      <point x="225" y="274"/>
      <point x="269" y="295"/>
      <point x="299" y="331" type="curve"/>
      <point x="316" y="293"/>
      <point x="359" y="274"/>
      <point x="413" y="274" type="curve" smooth="yes"/>
      <point x="485" y="274"/>
      <point x="538" y="323"/>
      <point x="536" y="364" type="curve" smooth="yes"/>
      <point x="535" y="372"/>
      <point x="531" y="382"/>
      <point x="526" y="382" type="curve" smooth="yes"/>
      <point x="520" y="382"/>
      <point x="516" y="366"/>
      <point x="501" y="366" type="curve" smooth="yes"/>
      <point x="492" y="366"/>
      <point x="487" y="373"/>
      <point x="490" y="385" type="curve" smooth="yes"/>
      <point x="519" y="490" type="line" smooth="yes"/>
      <point x="555" y="624"/>
      <point x="457" y="678"/>
      <point x="320" y="678" type="curve" smooth="yes"/>
      <point x="189" y="678"/>
      <point x="139" y="635"/>
    </contour>
    <contour>
      <point x="314" y="445" type="curve"/>
      <point x="299" y="401" type="line" smooth="yes"/>
      <point x="291" y="377"/>
      <point x="270" y="369"/>
      <point x="259" y="369" type="curve" smooth="yes"/>
      <point x="240" y="369"/>
      <point x="232" y="388"/>
      <point x="236" y="407" type="curve" smooth="yes"/>
      <point x="241" y="428"/>
      <point x="257" y="448"/>
      <point x="283" y="448" type="curve" smooth="yes"/>
      <point x="290" y="448"/>
      <point x="305" y="447"/>
    </contour>
  </outline>
</glyph>
<glyph name="registered" format="1">
  <advance width="517"/>
  <unicode hex="00AE"/>
  <outline>
    <contour>
      <point x="365" y="595" type="curve" smooth="yes"/>
      <point x="261" y="595" type="line" smooth="yes"/>
      <point x="250" y="595"/>
      <point x="244" y="594"/>
      <point x="243" y="588" type="curve" smooth="yes"/>
      <point x="239" y="577"/>
      <point x="253" y="578"/>
      <point x="248" y="559" type="curve" smooth="yes"/>
      <point x="209" y="425" type="line" smooth="yes"/>
      <point x="204" y="406"/>
      <point x="191" y="409"/>
      <point x="188" y="399" type="curve" smooth="yes"/>
      <point x="187" y="392"/>
      <point x="193" y="388"/>
      <point x="204" y="388" type="curve" smooth="yes"/>
      <point x="282" y="388" type="line" smooth="yes"/>
      <point x="293" y="388"/>
      <point x="299" y="389"/>
      <point x="301" y="396" type="curve" smooth="yes"/>
      <point x="304" y="405"/>
      <point x="283" y="407"/>
      <point x="288" y="425" type="curve" smooth="yes"/>
      <point x="303" y="476" type="line"/>
      <point x="314" y="476" type="line" smooth="yes"/>
      <point x="332" y="476"/>
      <point x="338" y="471"/>
      <point x="333" y="455" type="curve" smooth="yes"/>
      <point x="329" y="435" type="line" smooth="yes"/>
      <point x="320" y="402"/>
      <point x="340" y="385"/>
      <point x="371" y="385" type="curve" smooth="yes"/>
      <point x="406" y="385"/>
      <point x="422" y="402"/>
      <point x="424" y="415" type="curve" smooth="yes"/>
      <point x="426" y="422"/>
      <point x="421" y="423"/>
      <point x="412" y="423" type="curve" smooth="yes"/>
      <point x="407" y="423"/>
      <point x="404" y="428"/>
      <point x="406" y="436" type="curve" smooth="yes"/>
      <point x="409" y="451" type="line" smooth="yes"/>
      <point x="415" y="473"/>
      <point x="406" y="489"/>
      <point x="381" y="492" type="curve"/>
      <point x="408" y="494"/>
      <point x="427" y="507"/>
      <point x="435" y="532" type="curve" smooth="yes"/>
      <point x="444" y="566"/>
      <point x="417" y="595"/>
    </contour>
    <contour>
      <point x="324" y="507" type="curve" smooth="yes"/>
      <point x="311" y="507" type="line"/>
      <point x="325" y="563" type="line"/>
      <point x="338" y="563" type="line" smooth="yes"/>
      <point x="351" y="563"/>
      <point x="360" y="558"/>
      <point x="355" y="535" type="curve" smooth="yes"/>
      <point x="349" y="513"/>
      <point x="340" y="507"/>
    </contour>
    <contour>
      <point x="535" y="483" type="curve" smooth="yes"/>
      <point x="557" y="590"/>
      <point x="482" y="680"/>
      <point x="354" y="680" type="curve" smooth="yes"/>
      <point x="230" y="680"/>
      <point x="120" y="594"/>
      <point x="100" y="488" type="curve" smooth="yes"/>
      <point x="78" y="380"/>
      <point x="153" y="290"/>
      <point x="281" y="290" type="curve" smooth="yes"/>
      <point x="405" y="290"/>
      <point x="515" y="376"/>
    </contour>
    <contour>
      <point x="146" y="483" type="curve" smooth="yes"/>
      <point x="163" y="569"/>
      <point x="251" y="638"/>
      <point x="353" y="638" type="curve" smooth="yes"/>
      <point x="451" y="638"/>
      <point x="505" y="572"/>
      <point x="489" y="488" type="curve" smooth="yes"/>
      <point x="472" y="401"/>
      <point x="384" y="332"/>
      <point x="283" y="332" type="curve" smooth="yes"/>
      <point x="184" y="332"/>
      <point x="130" y="399"/>
    </contour>
  </outline>
</glyph>
<glyph name="macron" format="1">
  <advance width="398"/>
  <unicode hex="00AF"/>
  <outline>
    <contour>
      <point x="241" y="500" type="move" name="_top"/>
    </contour>
    <contour>
      <point x="153" y="581" type="curve" smooth="yes"/>
      <point x="409" y="581" type="line" smooth="yes"/>
      <point x="443" y="581"/>
      <point x="463" y="598"/>
      <point x="472" y="627" type="curve" smooth="yes"/>
      <point x="479" y="656"/>
      <point x="466" y="673"/>
      <point x="432" y="673" type="curve" smooth="yes"/>
      <point x="177" y="673" type="line" smooth="yes"/>
      <point x="144" y="673"/>
      <point x="122" y="656"/>
      <point x="114" y="627" type="curve" smooth="yes"/>
      <point x="106" y="598"/>
      <point x="120" y="581"/>
    </contour>
  </outline>
</glyph>
<glyph name="degree" format="1">
  <advance width="436"/>
  <unicode hex="00B0"/>
  <outline>
    <contour>
      <point x="246" y="527" type="curve" smooth="yes"/>
      <point x="258" y="595"/>
      <point x="276" y="621"/>
      <point x="309" y="621" type="curve" smooth="yes"/>
      <point x="338" y="621"/>
      <point x="345" y="599"/>
      <point x="336" y="546" type="curve" smooth="yes"/>
      <point x="323" y="478"/>
      <point x="303" y="452"/>
      <point x="270" y="452" type="curve" smooth="yes"/>
      <point x="244" y="452"/>
      <point x="237" y="473"/>
    </contour>
    <contour>
      <point x="491" y="555" type="curve" smooth="yes"/>
      <point x="490" y="636"/>
      <point x="410" y="697"/>
      <point x="305" y="697" type="curve" smooth="yes"/>
      <point x="179" y="697"/>
      <point x="88" y="623"/>
      <point x="88" y="522" type="curve" smooth="yes"/>
      <point x="89" y="439"/>
      <point x="168" y="375"/>
      <point x="273" y="375" type="curve" smooth="yes"/>
      <point x="400" y="375"/>
      <point x="494" y="453"/>
    </contour>
  </outline>
</glyph>
<glyph name="acute" format="1">
  <advance width="245"/>
  <unicode hex="00B4"/>
  <outline>
    <contour>
      <point x="83" y="500" type="move" name="_top"/>
    </contour>
    <contour>
      <point x="113" y="608" type="line" smooth="yes"/>
      <point x="93" y="573"/>
      <point x="106" y="554"/>
      <point x="130" y="554" type="curve" smooth="yes"/>
      <point x="139" y="554"/>
      <point x="150" y="557"/>
      <point x="162" y="562" type="curve" smooth="yes"/>
      <point x="249" y="604" type="line" smooth="yes"/>
      <point x="301" y="629"/>
      <point x="327" y="652"/>
      <point x="333" y="685" type="curve" smooth="yes"/>
      <point x="341" y="730"/>
      <point x="313" y="761"/>
      <point x="267" y="761" type="curve" smooth="yes"/>
      <point x="218" y="761"/>
      <point x="187" y="735"/>
      <point x="156" y="681" type="curve" smooth="yes"/>
    </contour>
  </outline>
</glyph>
<glyph name="cedilla" format="1">
  <advance width="400"/>
  <unicode hex="00B8"/>
  <outline>
    <contour>
      <point x="178" y="0" type="move" name="_bottom"/>
    </contour>
    <contour>
      <point x="21" y="-76" type="line" smooth="yes"/>
      <point x="16" y="-89"/>
      <point x="21" y="-103"/>
      <point x="39" y="-103" type="curve" smooth="yes"/>
      <point x="55" y="-103"/>
      <point x="74" y="-99"/>
      <point x="91" y="-99" type="curve" smooth="yes"/>
      <point x="109" y="-99"/>
      <point x="129" y="-110"/>
      <point x="122" y="-134" type="curve" smooth="yes"/>
      <point x="116" y="-153"/>
      <point x="97" y="-162"/>
      <point x="63" y="-162" type="curve" smooth="yes"/>
      <point x="-5" y="-162"/>
      <point x="-44" y="-123"/>
      <point x="-61" y="-123" type="curve" smooth="yes"/>
      <point x="-67" y="-123"/>
      <point x="-72" y="-126"/>
      <point x="-75" y="-133" type="curve" smooth="yes"/>
      <point x="-92" y="-181"/>
      <point x="0" y="-250"/>
      <point x="113" y="-250" type="curve" smooth="yes"/>
      <point x="199" y="-250"/>
      <point x="257" y="-218"/>
      <point x="276" y="-165" type="curve" smooth="yes"/>
      <point x="300" y="-97"/>
      <point x="247" y="-43"/>
      <point x="184" y="-43" type="curve"/>
      <point x="214" y="42" type="line"/>
      <point x="64" y="44" type="line"/>
    </contour>
  </outline>
</glyph>
<glyph name="guillemotright" format="1">
  <advance width="549"/>
  <unicode hex="00BB"/>
  <outline>
    <contour>
      <point x="295" y="378" type="curve" smooth="yes"/>
      <point x="193" y="479" type="line" smooth="yes"/>
      <point x="180" y="492"/>
      <point x="168" y="498"/>
      <point x="156" y="498" type="curve" smooth="yes"/>
      <point x="135" y="498"/>
      <point x="114" y="481"/>
      <point x="107" y="461" type="curve" smooth="yes"/>
      <point x="99" y="437"/>
      <point x="111" y="417"/>
      <point x="130" y="399" type="curve" smooth="yes"/>
      <point x="228" y="308" type="line"/>
      <point x="223" y="345" type="line"/>
      <point x="77" y="243" type="line" smooth="yes"/>
      <point x="55" y="227"/>
      <point x="42" y="215"/>
      <point x="37" y="197" type="curve" smooth="yes"/>
      <point x="29" y="171"/>
      <point x="52" y="140"/>
      <point x="78" y="140" type="curve" smooth="yes"/>
      <point x="88" y="140"/>
      <point x="101" y="145"/>
      <point x="114" y="154" type="curve" smooth="yes"/>
      <point x="285" y="272" type="line" smooth="yes"/>
      <point x="310" y="290"/>
      <point x="321" y="302"/>
      <point x="324" y="320" type="curve" smooth="yes"/>
      <point x="327" y="340"/>
      <point x="318" y="356"/>
    </contour>
    <contour>
      <point x="503" y="360" type="curve" smooth="yes"/>
      <point x="407" y="476" type="line" smooth="yes"/>
      <point x="391" y="495"/>
      <point x="377" y="500"/>
      <point x="363" y="500" type="curve" smooth="yes"/>
      <point x="342" y="500"/>
      <point x="322" y="485"/>
      <point x="315" y="465" type="curve" smooth="yes"/>
      <point x="307" y="441"/>
      <point x="323" y="421"/>
      <point x="340" y="401" type="curve" smooth="yes"/>
      <point x="436" y="290" type="line"/>
      <point x="434" y="327" type="line"/>
      <point x="323" y="243" type="line" smooth="yes"/>
      <point x="299" y="225"/>
      <point x="288" y="215"/>
      <point x="283" y="197" type="curve" smooth="yes"/>
      <point x="275" y="171"/>
      <point x="296" y="140"/>
      <point x="324" y="140" type="curve" smooth="yes"/>
      <point x="338" y="140"/>
      <point x="347" y="144"/>
      <point x="360" y="154" type="curve" smooth="yes"/>
      <point x="493" y="254" type="line" smooth="yes"/>
      <point x="517" y="272"/>
      <point x="529" y="284"/>
      <point x="532" y="302" type="curve" smooth="yes"/>
      <point x="535" y="322"/>
      <point x="524" y="335"/>
    </contour>
  </outline>
</glyph>
<glyph name="AE" format="1">
  <advance width="986"/>
  <unicode hex="00C6"/>
  <outline>
    <contour>
      <point x="160" y="204" type="line"/>
      <point x="526" y="204" type="line"/>
      <point x="530" y="304" type="line"/>
      <point x="164" y="304" type="line"/>
    </contour>
    <contour>
      <point x="653" y="308" type="line"/>
      <point x="704" y="308" type="line" smooth="yes"/>
      <point x="716" y="308"/>
      <point x="722" y="302"/>
      <point x="726" y="293" type="curve" smooth="yes"/>
      <point x="743" y="258" type="line" smooth="yes"/>
      <point x="751" y="241"/>
      <point x="764" y="229"/>
      <point x="785" y="229" type="curve" smooth="yes"/>
      <point x="805" y="229"/>
      <point x="828" y="240"/>
      <point x="837" y="272" type="curve" smooth="yes"/>
      <point x="878" y="411" type="line" smooth="yes"/>
      <point x="886" y="438"/>
      <point x="867" y="457"/>
      <point x="839" y="457" type="curve" smooth="yes"/>
      <point x="816" y="457"/>
      <point x="803" y="447"/>
      <point x="786" y="432" type="curve" smooth="yes"/>
      <point x="752" y="402" type="line" smooth="yes"/>
      <point x="745" y="396"/>
      <point x="740" y="392"/>
      <point x="733" y="392" type="curve" smooth="yes"/>
      <point x="680" y="392" type="line"/>
    </contour>
    <contour>
      <point x="501" y="666" type="line" smooth="yes"/>
      <point x="376" y="666"/>
      <point x="320" y="629"/>
      <point x="258" y="503" type="curve" smooth="yes"/>
      <point x="84" y="147" type="line" smooth="yes"/>
      <point x="49" y="76"/>
      <point x="-29" y="79"/>
      <point x="-40" y="40" type="curve" smooth="yes"/>
      <point x="-46" y="18"/>
      <point x="-30" y="0"/>
      <point x="6" y="0" type="curve" smooth="yes"/>
      <point x="155" y="0" type="line" smooth="yes"/>
      <point x="191" y="0"/>
      <point x="206" y="6"/>
      <point x="211" y="26" type="curve" smooth="yes"/>
      <point x="221" y="63"/>
      <point x="156" y="48"/>
      <point x="202" y="147" type="curve" smooth="yes"/>
      <point x="354" y="471" type="line" smooth="yes"/>
      <point x="377" y="520"/>
      <point x="397" y="535"/>
      <point x="429" y="535" type="curve" smooth="yes"/>
      <point x="461" y="535"/>
      <point x="477" y="513"/>
      <point x="465" y="472" type="curve" smooth="yes"/>
      <point x="359" y="118" type="line" smooth="yes"/>
      <point x="341" y="57"/>
      <point x="305" y="69"/>
      <point x="292" y="39" type="curve" smooth="yes"/>
      <point x="282" y="15"/>
      <point x="297" y="0"/>
      <point x="333" y="0" type="curve" smooth="yes"/>
      <point x="810" y="0" type="line" smooth="yes"/>
      <point x="864" y="0"/>
      <point x="888" y="18"/>
      <point x="903" y="68" type="curve" smooth="yes"/>
      <point x="932" y="169" type="line" smooth="yes"/>
      <point x="944" y="212"/>
      <point x="916" y="228"/>
      <point x="885" y="228" type="curve" smooth="yes"/>
      <point x="855" y="228"/>
      <point x="839" y="217"/>
      <point x="819" y="196" type="curve" smooth="yes"/>
      <point x="759" y="130" type="line" smooth="yes"/>
      <point x="736" y="105"/>
      <point x="720" y="96"/>
      <point x="694" y="96" type="curve" smooth="yes"/>
      <point x="605" y="96" type="line"/>
      <point x="740" y="570" type="line"/>
      <point x="844" y="570" type="line" smooth="yes"/>
      <point x="871" y="570"/>
      <point x="877" y="563"/>
      <point x="883" y="540" type="curve" smooth="yes"/>
      <point x="899" y="483" type="line" smooth="yes"/>
      <point x="908" y="450"/>
      <point x="925" y="438"/>
      <point x="957" y="438" type="curve" smooth="yes"/>
      <point x="989" y="438"/>
      <point x="1006" y="449"/>
      <point x="1016" y="486" type="curve" smooth="yes"/>
      <point x="1042" y="579" type="line" smooth="yes"/>
      <point x="1058" y="634"/>
      <point x="1028" y="666"/>
      <point x="968" y="666" type="curve" smooth="yes"/>
    </contour>
  </outline>
</glyph>
<glyph name="Oslash" format="1">
  <advance width="764"/>
  <unicode hex="00D8"/>
  <outline>
    <contour>
      <point x="46" y="-7" type="curve" smooth="yes"/>
      <point x="63" y="-7"/>
      <point x="75" y="0"/>
      <point x="88" y="10" type="curve" smooth="yes"/>
      <point x="781" y="576" type="line" smooth="yes"/>
      <point x="798" y="590"/>
      <point x="808" y="600"/>
      <point x="811" y="618" type="curve" smooth="yes"/>
      <point x="816" y="641"/>
      <point x="801" y="676"/>
      <point x="769" y="676" type="curve" smooth="yes"/>
      <point x="756" y="676"/>
      <point x="745" y="670"/>
      <point x="731" y="659" type="curve" smooth="yes"/>
      <point x="40" y="96" type="line" smooth="yes"/>
      <point x="19" y="79"/>
      <point x="11" y="66"/>
      <point x="8" y="49" type="curve" smooth="yes"/>
      <point x="3" y="25"/>
      <point x="22" y="-7"/>
    </contour>
    <contour>
      <point x="69" y="336" type="curve" smooth="yes"/>
      <point x="8" y="108"/>
      <point x="117" y="-12"/>
      <point x="319" y="-12" type="curve" smooth="yes"/>
      <point x="521" y="-12"/>
      <point x="690" y="108"/>
      <point x="751" y="336" type="curve" smooth="yes"/>
      <point x="810" y="563"/>
      <point x="701" y="681"/>
      <point x="499" y="681" type="curve" smooth="yes"/>
      <point x="296" y="681"/>
      <point x="128" y="563"/>
    </contour>
    <contour>
      <point x="487" y="329" type="curve" smooth="yes"/>
      <point x="432" y="143"/>
      <point x="394" y="77"/>
      <point x="335" y="77" type="curve" smooth="yes"/>
      <point x="275" y="77"/>
      <point x="275" y="143"/>
      <point x="329" y="329" type="curve" smooth="yes"/>
      <point x="383" y="519"/>
      <point x="421" y="583"/>
      <point x="481" y="583" type="curve" smooth="yes"/>
      <point x="540" y="583"/>
      <point x="541" y="519"/>
    </contour>
  </outline>
</glyph>
<glyph name="Thorn" format="1">
  <advance width="693"/>
  <unicode hex="00DE"/>
  <outline>
    <contour>
      <point x="204" y="161" type="line"/>
      <point x="435" y="161" type="line" smooth="yes"/>
      <point x="610" y="161"/>
      <point x="702" y="210"/>
      <point x="734" y="325" type="curve" smooth="yes"/>
      <point x="766" y="440"/>
      <point x="711" y="518"/>
      <point x="536" y="518" type="curve" smooth="yes"/>
      <point x="301" y="518" type="line"/>
      <point x="315" y="428" type="line"/>
      <point x="436" y="428" type="line" smooth="yes"/>
      <point x="486" y="428"/>
      <point x="502" y="400"/>
      <point x="485" y="340" type="curve" smooth="yes"/>
      <point x="468" y="280"/>
      <point x="436" y="251"/>
      <point x="386" y="251" type="curve" smooth="yes"/>
      <point x="229" y="251" type="line"/>
    </contour>
    <contour>
      <point x="209" y="666" type="line" smooth="yes"/>
      <point x="173" y="666"/>
      <point x="155" y="660"/>
      <point x="150" y="642" type="curve" smooth="yes"/>
      <point x="138" y="608"/>
      <point x="183" y="609"/>
      <point x="166" y="549" type="curve" smooth="yes"/>
      <point x="44" y="118" type="line" smooth="yes"/>
      <point x="27" y="58"/>
      <point x="-10" y="69"/>
      <point x="-23" y="39" type="curve" smooth="yes"/>
      <point x="-33" y="15"/>
      <point x="-18" y="0"/>
      <point x="18" y="0" type="curve" smooth="yes"/>
      <point x="253" y="0" type="line" smooth="yes"/>
      <point x="289" y="0"/>
      <point x="307" y="6"/>
      <point x="313" y="25" type="curve" smooth="yes"/>
      <point x="324" y="58"/>
      <point x="279" y="57"/>
      <point x="296" y="118" type="curve" smooth="yes"/>
      <point x="417" y="549" type="line" smooth="yes"/>
      <point x="434" y="608"/>
      <point x="472" y="597"/>
      <point x="485" y="628" type="curve" smooth="yes"/>
      <point x="495" y="651"/>
      <point x="480" y="666"/>
      <point x="444" y="666" type="curve" smooth="yes"/>
    </contour>
  </outline>
</glyph>
<glyph name="ae" format="1">
  <advance width="905"/>
  <unicode hex="00E6"/>
  <outline>
    <contour>
      <point x="521" y="498" type="curve"/>
      <point x="477" y="519"/>
      <point x="421" y="529"/>
      <point x="357" y="529" type="curve" smooth="yes"/>
      <point x="193" y="529"/>
      <point x="129" y="472"/>
      <point x="130" y="412" type="curve" smooth="yes"/>
      <point x="131" y="372"/>
      <point x="166" y="338"/>
      <point x="234" y="338" type="curve" smooth="yes"/>
      <point x="324" y="338"/>
      <point x="356" y="406"/>
      <point x="336" y="462" type="curve"/>
      <point x="378" y="462"/>
      <point x="397" y="446"/>
      <point x="398" y="414" type="curve" smooth="yes"/>
      <point x="398" y="397"/>
      <point x="393" y="370"/>
      <point x="382" y="340" type="curve" smooth="yes"/>
      <point x="360" y="283" type="line"/>
      <point x="320" y="297"/>
      <point x="266" y="309"/>
      <point x="197" y="309" type="curve" smooth="yes"/>
      <point x="104" y="309"/>
      <point x="22" y="267"/>
      <point x="0" y="170" type="curve" smooth="yes"/>
      <point x="-17" y="95"/>
      <point x="29" y="-3"/>
      <point x="207" y="-3" type="curve" smooth="yes"/>
      <point x="286" y="-3"/>
      <point x="354" y="23"/>
      <point x="410" y="64" type="curve"/>
      <point x="445" y="22"/>
      <point x="509" y="-3"/>
      <point x="604" y="-3" type="curve" smooth="yes"/>
      <point x="774" y="-3"/>
      <point x="849" y="99"/>
      <point x="848" y="163" type="curve" smooth="yes"/>
      <point x="848" y="173"/>
      <point x="844" y="176"/>
      <point x="837" y="176" type="curve" smooth="yes"/>
      <point x="816" y="176"/>
      <point x="756" y="144"/>
      <point x="697" y="144" type="curve" smooth="yes"/>
      <point x="635" y="144"/>
      <point x="587" y="164"/>
      <point x="588" y="238" type="curve"/>
      <point x="706" y="221"/>
      <point x="893" y="232"/>
      <point x="921" y="355" type="curve" smooth="yes"/>
      <point x="940" y="440"/>
      <point x="896" y="534"/>
      <point x="684" y="534" type="curve" smooth="yes"/>
      <point x="624" y="534"/>
      <point x="568" y="522"/>
    </contour>
    <contour>
      <point x="675" y="451" type="curve" smooth="yes"/>
      <point x="684" y="451"/>
      <point x="690" y="442"/>
      <point x="691" y="423" type="curve"/>
      <point x="692" y="363"/>
      <point x="663" y="289"/>
      <point x="595" y="298" type="curve"/>
      <point x="616" y="401"/>
      <point x="655" y="451"/>
    </contour>
    <contour>
      <point x="238" y="168" type="curve" smooth="yes"/>
      <point x="251" y="208"/>
      <point x="271" y="226"/>
      <point x="301" y="226" type="curve" smooth="yes"/>
      <point x="313" y="226"/>
      <point x="327" y="224"/>
      <point x="337" y="220" type="curve"/>
      <point x="306" y="131" type="line" smooth="yes"/>
      <point x="296" y="107"/>
      <point x="282" y="95"/>
      <point x="264" y="95" type="curve" smooth="yes"/>
      <point x="234" y="95"/>
      <point x="224" y="125"/>
    </contour>
  </outline>
</glyph>
<glyph name="divide" format="1">
  <advance width="599"/>
  <unicode hex="00F7"/>
  <outline>
    <contour>
      <point x="87" y="289" type="curve" smooth="yes"/>
      <point x="530" y="289" type="line" smooth="yes"/>
      <point x="575" y="289"/>
      <point x="602" y="311"/>
      <point x="614" y="350" type="curve" smooth="yes"/>
      <point x="623" y="389"/>
      <point x="605" y="411"/>
      <point x="561" y="411" type="curve" smooth="yes"/>
      <point x="118" y="411" type="line" smooth="yes"/>
      <point x="75" y="411"/>
      <point x="45" y="389"/>
      <point x="35" y="350" type="curve" smooth="yes"/>
      <point x="24" y="311"/>
      <point x="43" y="289"/>
    </contour>
    <contour>
      <point x="205" y="158" type="curve" smooth="yes"/>
      <point x="206" y="120"/>
      <point x="236" y="89"/>
      <point x="275" y="89" type="curve" smooth="yes"/>
      <point x="328" y="89"/>
      <point x="362" y="134"/>
      <point x="361" y="175" type="curve" smooth="yes"/>
      <point x="360" y="214"/>
      <point x="329" y="244"/>
      <point x="289" y="244" type="curve" smooth="yes"/>
      <point x="238" y="244"/>
      <point x="205" y="199"/>
    </contour>
    <contour>
      <point x="290" y="525" type="curve" smooth="yes"/>
      <point x="291" y="487"/>
      <point x="321" y="456"/>
      <point x="360" y="456" type="curve" smooth="yes"/>
      <point x="413" y="456"/>
      <point x="447" y="501"/>
      <point x="446" y="542" type="curve" smooth="yes"/>
      <point x="445" y="581"/>
      <point x="414" y="611"/>
      <point x="374" y="611" type="curve" smooth="yes"/>
      <point x="323" y="611"/>
      <point x="290" y="566"/>
    </contour>
  </outline>
</glyph>
<glyph name="lcaron" format="1">
  <advance width="548"/>
  <unicode hex="013E"/>
  <outline>
    <contour>
      <point x="312" y="705" type="move" name="top"/>
    </contour>
    <contour>
      <point x="137" y="682" type="curve" smooth="yes"/>
      <point x="129" y="649"/>
      <point x="185" y="654"/>
      <point x="170" y="605" type="curve" smooth="yes"/>
      <point x="18" y="106" type="line" smooth="yes"/>
      <point x="0" y="46"/>
      <point x="-36" y="59"/>
      <point x="-45" y="31" type="curve" smooth="yes"/>
      <point x="-50" y="13"/>
      <point x="-35" y="0"/>
      <point x="1" y="0" type="curve" smooth="yes"/>
      <point x="229" y="0" type="line" smooth="yes"/>
      <point x="272" y="0"/>
      <point x="289" y="8"/>
      <point x="295" y="25" type="curve" smooth="yes"/>
      <point x="302" y="51"/>
      <point x="251" y="48"/>
      <point x="268" y="104" type="curve" smooth="yes"/>
      <point x="425" y="614" type="line" smooth="yes"/>
      <point x="446" y="683"/>
      <point x="423" y="739"/>
      <point x="319" y="739" type="curve" smooth="yes"/>
      <point x="239" y="739"/>
      <point x="145" y="713"/>
    </contour>
    <contour>
      <point x="476" y="684" type="curve" smooth="yes"/>
      <point x="465" y="638"/>
      <point x="513" y="618"/>
      <point x="503" y="580" type="curve" smooth="yes"/>
      <point x="492" y="540"/>
      <point x="444" y="528"/>
      <point x="438" y="500" type="curve" smooth="yes"/>
      <point x="434" y="481"/>
      <point x="447" y="470"/>
      <point x="469" y="470" type="curve" smooth="yes"/>
      <point x="535" y="470"/>
      <point x="613" y="527"/>
      <point x="632" y="606" type="curve" smooth="yes"/>
      <point x="650" y="681"/>
      <point x="617" y="739"/>
      <point x="550" y="739" type="curve" smooth="yes"/>
      <point x="513" y="739"/>
      <point x="484" y="717"/>
    </contour>
  </outline>
</glyph>
<glyph name="Lslash" format="1">
  <advance width="639"/>
  <unicode hex="0141"/>
  <outline>
    <contour>
      <point x="44" y="275" type="curve" smooth="yes"/>
      <point x="394" y="312" type="line" smooth="yes"/>
      <point x="428" y="316"/>
      <point x="448" y="329"/>
      <point x="457" y="358" type="curve" smooth="yes"/>
      <point x="464" y="387"/>
      <point x="451" y="408"/>
      <point x="417" y="404" type="curve" smooth="yes"/>
      <point x="68" y="367" type="line" smooth="yes"/>
      <point x="35" y="364"/>
      <point x="13" y="350"/>
      <point x="5" y="321" type="curve" smooth="yes"/>
      <point x="-3" y="292"/>
      <point x="11" y="272"/>
    </contour>
    <component base="L" xOffset="-3"/>
  </outline>
</glyph>
<glyph name="florin" format="1">
  <advance width="510"/>
  <unicode hex="0192"/>
  <outline>
    <contour>
      <point x="203" y="514" type="curve" smooth="yes"/>
      <point x="56" y="-45" type="line" smooth="yes"/>
      <point x="51" y="-63"/>
      <point x="43" y="-73"/>
      <point x="27" y="-73" type="curve" smooth="yes"/>
      <point x="2" y="-73"/>
      <point x="-4" y="-38"/>
      <point x="-35" y="-38" type="curve" smooth="yes"/>
      <point x="-53" y="-38"/>
      <point x="-68" y="-50"/>
      <point x="-74" y="-69" type="curve" smooth="yes"/>
      <point x="-90" y="-123"/>
      <point x="-15" y="-195"/>
      <point x="105" y="-195" type="curve" smooth="yes"/>
      <point x="210" y="-195"/>
      <point x="277" y="-148"/>
      <point x="305" y="-43" type="curve" smooth="yes"/>
      <point x="453" y="516" type="line" smooth="yes"/>
      <point x="458" y="534"/>
      <point x="466" y="544"/>
      <point x="482" y="544" type="curve" smooth="yes"/>
      <point x="507" y="544"/>
      <point x="513" y="509"/>
      <point x="544" y="509" type="curve" smooth="yes"/>
      <point x="562" y="509"/>
      <point x="577" y="521"/>
      <point x="583" y="540" type="curve" smooth="yes"/>
      <point x="599" y="594"/>
      <point x="524" y="666"/>
      <point x="404" y="666" type="curve" smooth="yes"/>
      <point x="299" y="666"/>
      <point x="230" y="618"/>
    </contour>
    <contour>
      <point x="89" y="302" type="curve" smooth="yes"/>
      <point x="461" y="302" type="line" smooth="yes"/>
      <point x="495" y="302"/>
      <point x="516" y="319"/>
      <point x="524" y="348" type="curve" smooth="yes"/>
      <point x="532" y="377"/>
      <point x="518" y="394"/>
      <point x="484" y="394" type="curve" smooth="yes"/>
      <point x="113" y="394" type="line" smooth="yes"/>
      <point x="80" y="394"/>
      <point x="57" y="377"/>
      <point x="50" y="348" type="curve" smooth="yes"/>
      <point x="43" y="319"/>
      <point x="56" y="302"/>
    </contour>
  </outline>
</glyph>
<glyph name="circumflex" format="1">
  <advance width="413"/>
  <unicode hex="02C6"/>
  <outline>
    <contour>
      <point x="269" y="500" type="move" name="_top"/>
    </contour>
    <contour>
      <point x="422" y="721" type="line" smooth="yes"/>
      <point x="394" y="785"/>
      <point x="330" y="770"/>
      <point x="283" y="725" type="curve" smooth="yes"/>
      <point x="181" y="629" type="line" smooth="yes"/>
      <point x="149" y="598"/>
      <point x="151" y="559"/>
      <point x="185" y="559" type="curve" smooth="yes"/>
      <point x="212" y="559"/>
      <point x="252" y="578"/>
      <point x="291" y="603" type="curve" smooth="yes"/>
      <point x="411" y="682" type="line"/>
      <point x="291" y="693" type="line"/>
      <point x="343" y="622" type="line" smooth="yes"/>
      <point x="374" y="580"/>
      <point x="402" y="552"/>
      <point x="435" y="552" type="curve" smooth="yes"/>
      <point x="462" y="552"/>
      <point x="486" y="575"/>
      <point x="466" y="622" type="curve" smooth="yes"/>
    </contour>
  </outline>
</glyph>
<glyph name="dotaccent" format="1">
  <advance width="238"/>
  <unicode hex="02D9"/>
  <outline>
    <contour>
      <point x="145" y="500" type="move" name="_top"/>
    </contour>
    <contour>
      <point x="120" y="644" type="curve" smooth="yes"/>
      <point x="121" y="594"/>
      <point x="159" y="555"/>
      <point x="210" y="555" type="curve" smooth="yes"/>
      <point x="274" y="555"/>
      <point x="317" y="611"/>
      <point x="316" y="664" type="curve" smooth="yes"/>
      <point x="315" y="712"/>
      <point x="276" y="750"/>
      <point x="225" y="750" type="curve" smooth="yes"/>
      <point x="161" y="750"/>
      <point x="120" y="693"/>
    </contour>
  </outline>
</glyph>
<glyph name="tilde" format="1">
  <advance width="356"/>
  <unicode hex="02DC"/>
  <outline>
    <contour>
      <point x="218" y="500" type="move" name="_top"/>
    </contour>
    <contour>
      <point x="440" y="667" type="curve" smooth="yes"/>
      <point x="450" y="702"/>
      <point x="444" y="732"/>
      <point x="431" y="732" type="curve" smooth="yes"/>
      <point x="416" y="732"/>
      <point x="400" y="697"/>
      <point x="366" y="697" type="curve" smooth="yes"/>
      <point x="331" y="697"/>
      <point x="289" y="745"/>
      <point x="239" y="745" type="curve" smooth="yes"/>
      <point x="180" y="745"/>
      <point x="125" y="704"/>
      <point x="109" y="641" type="curve" smooth="yes"/>
      <point x="100" y="606"/>
      <point x="106" y="576"/>
      <point x="119" y="576" type="curve" smooth="yes"/>
      <point x="134" y="576"/>
      <point x="150" y="611"/>
      <point x="184" y="611" type="curve" smooth="yes"/>
      <point x="219" y="611"/>
      <point x="257" y="563"/>
      <point x="311" y="563" type="curve" smooth="yes"/>
      <point x="370" y="563"/>
      <point x="425" y="604"/>
    </contour>
  </outline>
</glyph>
<glyph name="commaaccentcomb" format="1">
  <advance width="0"/>
  <unicode hex="0326"/>
  <outline>
    <contour>
      <point x="-62" y="0" type="move" name="_bottom"/>
    </contour>
    <contour>
      <point x="-213" y="-90" type="curve" smooth="yes"/>
      <point x="-233" y="-160"/>
      <point x="-149" y="-158"/>
      <point x="-160" y="-195" type="curve" smooth="yes"/>
      <point x="-169" y="-225"/>
      <point x="-242" y="-223"/>
      <point x="-251" y="-255" type="curve" smooth="yes"/>
      <point x="-257" y="-277"/>
      <point x="-237" y="-296"/>
      <point x="-195" y="-296" type="curve" smooth="yes"/>
      <point x="-119" y="-296"/>
      <point x="-46" y="-258"/>
      <point x="-24" y="-179" type="curve" smooth="yes"/>
      <point x="-4" y="-106"/>
      <point x="-48" y="-36"/>
      <point x="-126" y="-36" type="curve" smooth="yes"/>
      <point x="-168" y="-36"/>
      <point x="-203" y="-55"/>
    </contour>
  </outline>
</glyph>
<glyph name="doubledanda" format="1">
  <advance width="715"/>
  <unicode hex="0965"/>
  <outline>
    <contour>
      <point x="23" y="67" type="line" smooth="yes"/>
      <point x="8" y="15"/>
      <point x="26" y="0"/>
      <point x="64" y="0" type="curve" smooth="yes"/>
      <point x="183" y="0" type="line" smooth="yes"/>
      <point x="229" y="0"/>
      <point x="245" y="14"/>
      <point x="260" y="69" type="curve" smooth="yes"/>
      <point x="395" y="552" type="line" smooth="yes"/>
      <point x="410" y="604"/>
      <point x="396" y="619"/>
      <point x="358" y="619" type="curve" smooth="yes"/>
      <point x="237" y="619" type="line" smooth="yes"/>
      <point x="193" y="619"/>
      <point x="176" y="605"/>
      <point x="160" y="550" type="curve" smooth="yes"/>
    </contour>
    <contour>
      <point x="360" y="67" type="line" smooth="yes"/>
      <point x="345" y="15"/>
      <point x="363" y="0"/>
      <point x="401" y="0" type="curve" smooth="yes"/>
      <point x="520" y="0" type="line" smooth="yes"/>
      <point x="566" y="0"/>
      <point x="582" y="14"/>
      <point x="597" y="69" type="curve" smooth="yes"/>
      <point x="732" y="552" type="line" smooth="yes"/>
      <point x="747" y="604"/>
      <point x="733" y="619"/>
      <point x="695" y="619" type="curve" smooth="yes"/>
      <point x="574" y="619" type="line" smooth="yes"/>
      <point x="530" y="619"/>
      <point x="513" y="605"/>
      <point x="497" y="550" type="curve" smooth="yes"/>
    </contour>
  </outline>
</glyph>
<glyph name="gjCandrabindu" format="1">
  <advance width="0"/>
  <unicode hex="0A81"/>
  <outline>
    <contour>
      <point x="-87" y="615" type="move" name="_abvm"/>
    </contour>
    <contour>
      <point x="153" y="776" type="curve" smooth="yes"/>
      <point x="167" y="822"/>
      <point x="150" y="853"/>
      <point x="130" y="853" type="curve" smooth="yes"/>
      <point x="95" y="853"/>
      <point x="52" y="770"/>
      <point x="-60" y="770" type="curve" smooth="yes"/>
      <point x="-168" y="770"/>
      <point x="-184" y="862"/>
      <point x="-220" y="862" type="curve" smooth="yes"/>
      <point x="-229" y="862"/>
      <point x="-237" y="856"/>
      <point x="-241" y="845" type="curve" smooth="yes"/>
      <point x="-261" y="788"/>
      <point x="-195" y="659"/>
      <point x="-39" y="659" type="curve" smooth="yes"/>
      <point x="58" y="659"/>
      <point x="133" y="711"/>
    </contour>
    <contour>
      <point x="53" y="894" type="curve" smooth="yes"/>
      <point x="65" y="935"/>
      <point x="39" y="971"/>
      <point x="-5" y="976" type="curve" smooth="yes"/>
      <point x="-64" y="983"/>
      <point x="-115" y="937"/>
      <point x="-127" y="896" type="curve" smooth="yes"/>
      <point x="-139" y="854"/>
      <point x="-113" y="815"/>
      <point x="-68" y="810" type="curve" smooth="yes"/>
      <point x="-14" y="804"/>
      <point x="40" y="847"/>
    </contour>
  </outline>
</glyph>
<glyph name="gjAnusvara" format="1">
  <advance width="0"/>
  <unicode hex="0A82"/>
  <outline>
    <contour>
      <point x="-77" y="615" type="move" name="_abvm"/>
    </contour>
    <contour>
      <point x="-137" y="768" type="curve" smooth="yes"/>
      <point x="-137" y="718"/>
      <point x="-100" y="678"/>
      <point x="-49" y="678" type="curve" smooth="yes"/>
      <point x="17" y="678"/>
      <point x="61" y="735"/>
      <point x="61" y="788" type="curve" smooth="yes"/>
      <point x="61" y="837"/>
      <point x="23" y="875"/>
      <point x="-28" y="875" type="curve" smooth="yes"/>
      <point x="-94" y="875"/>
      <point x="-137" y="818"/>
    </contour>
  </outline>
</glyph>
<glyph name="gjA" format="1">
  <advance width="990"/>
  <unicode hex="0A85"/>
  <outline>
    <contour>
      <point x="481" y="415" type="curve" smooth="yes"/>
      <point x="471" y="382"/>
      <point x="476" y="343"/>
      <point x="499" y="309" type="curve"/>
      <point x="454" y="262"/>
      <point x="396" y="234"/>
      <point x="339" y="234" type="curve" smooth="yes"/>
      <point x="313" y="234"/>
      <point x="294" y="239"/>
      <point x="276" y="248" type="curve"/>
      <point x="376" y="276"/>
      <point x="432" y="354"/>
      <point x="452" y="430" type="curve" smooth="yes"/>
      <point x="477" y="530"/>
      <point x="432" y="628"/>
      <point x="308" y="628" type="curve" smooth="yes"/>
      <point x="206" y="628"/>
      <point x="134" y="565"/>
      <point x="111" y="491" type="curve" smooth="yes"/>
      <point x="102" y="463"/>
      <point x="109" y="451"/>
      <point x="118" y="451" type="curve" smooth="yes"/>
      <point x="128" y="451"/>
      <point x="139" y="467"/>
      <point x="161" y="467" type="curve" smooth="yes"/>
      <point x="181" y="467"/>
      <point x="190" y="452"/>
      <point x="185" y="430" type="curve" smooth="yes"/>
      <point x="180" y="410"/>
      <point x="162" y="384"/>
      <point x="129" y="359" type="curve"/>
      <point x="109" y="372"/>
      <point x="93" y="379"/>
      <point x="72" y="379" type="curve" smooth="yes"/>
      <point x="49" y="379"/>
      <point x="26" y="369"/>
      <point x="17" y="341" type="curve" smooth="yes"/>
      <point x="-2" y="280"/>
      <point x="55" y="214"/>
      <point x="168" y="214" type="curve"/>
      <point x="190" y="126"/>
      <point x="265" y="70"/>
      <point x="367" y="70" type="curve" smooth="yes"/>
      <point x="471" y="70"/>
      <point x="574" y="134"/>
      <point x="611" y="255" type="curve" smooth="yes"/>
      <point x="657" y="406"/>
      <point x="595" y="467"/>
      <point x="547" y="467" type="curve" smooth="yes"/>
      <point x="516" y="467"/>
      <point x="492" y="450"/>
    </contour>
    <contour>
      <point x="748" y="542" type="curve" smooth="yes"/>
      <point x="666" y="279" type="line" smooth="yes"/>
      <point x="644" y="213"/>
      <point x="634" y="172"/>
      <point x="634" y="137" type="curve" smooth="yes"/>
      <point x="634" y="63"/>
      <point x="678" y="-3"/>
      <point x="796" y="-3" type="curve" smooth="yes"/>
      <point x="899" y="-3"/>
      <point x="970" y="73"/>
      <point x="970" y="136" type="curve" smooth="yes"/>
      <point x="970" y="149"/>
      <point x="964" y="163"/>
      <point x="956" y="163" type="curve" smooth="yes"/>
      <point x="946" y="163"/>
      <point x="941" y="138"/>
      <point x="919" y="138" type="curve" smooth="yes"/>
      <point x="904" y="138"/>
      <point x="899" y="150"/>
      <point x="904" y="169" type="curve" smooth="yes"/>
      <point x="1020" y="542" type="line" smooth="yes"/>
      <point x="1023" y="555"/>
      <point x="1025" y="566"/>
      <point x="1025" y="575" type="curve" smooth="yes"/>
      <point x="1025" y="599"/>
      <point x="1015" y="624"/>
      <point x="950" y="624" type="curve" smooth="yes"/>
      <point x="876" y="624"/>
      <point x="767" y="599"/>
    </contour>
    <contour>
      <point x="616" y="332" type="curve"/>
      <point x="560" y="260" type="line"/>
      <point x="603" y="234"/>
      <point x="651" y="219"/>
      <point x="702" y="219" type="curve"/>
      <point x="702" y="390" type="line"/>
      <point x="688" y="346"/>
      <point x="664" y="332"/>
    </contour>
  </outline>
</glyph>
<glyph name="gjI" format="1">
  <advance width="636"/>
  <unicode hex="0A87"/>
  <outline>
    <contour>
      <point x="118" y="499" type="curve" smooth="yes"/>
      <point x="95" y="423"/>
      <point x="134" y="350"/>
      <point x="227" y="330" type="curve"/>
      <point x="199" y="386" type="line"/>
      <point x="121" y="375"/>
      <point x="48" y="326"/>
      <point x="26" y="254" type="curve" smooth="yes"/>
      <point x="-17" y="113"/>
      <point x="94" y="0"/>
      <point x="293" y="0" type="curve" smooth="yes"/>
      <point x="465" y="0"/>
      <point x="557" y="81"/>
      <point x="591" y="191" type="curve" smooth="yes"/>
      <point x="626" y="306"/>
      <point x="578" y="503"/>
      <point x="585" y="544" type="curve" smooth="yes"/>
      <point x="587" y="555"/>
      <point x="592" y="557"/>
      <point x="604" y="557" type="curve" smooth="yes"/>
      <point x="650" y="557" type="line" smooth="yes"/>
      <point x="668" y="557"/>
      <point x="684" y="566"/>
      <point x="690" y="590" type="curve" smooth="yes"/>
      <point x="706" y="654"/>
      <point x="670" y="739"/>
      <point x="603" y="739" type="curve" smooth="yes"/>
      <point x="569" y="739"/>
      <point x="542" y="719"/>
      <point x="526" y="678" type="curve" smooth="yes"/>
      <point x="491" y="584"/>
      <point x="537" y="425"/>
      <point x="502" y="309" type="curve" smooth="yes"/>
      <point x="472" y="211"/>
      <point x="412" y="182"/>
      <point x="352" y="182" type="curve" smooth="yes"/>
      <point x="280" y="182"/>
      <point x="260" y="219"/>
      <point x="272" y="258" type="curve" smooth="yes"/>
      <point x="280" y="283"/>
      <point x="300" y="305"/>
      <point x="370" y="324" type="curve" smooth="yes"/>
      <point x="433" y="341"/>
      <point x="438" y="346"/>
      <point x="442" y="357" type="curve" smooth="yes"/>
      <point x="452" y="389"/>
      <point x="331" y="411"/>
      <point x="354" y="486" type="curve" smooth="yes"/>
      <point x="360" y="507"/>
      <point x="373" y="514"/>
      <point x="385" y="514" type="curve" smooth="yes"/>
      <point x="400" y="514"/>
      <point x="407" y="502"/>
      <point x="411" y="482" type="curve" smooth="yes"/>
      <point x="414" y="469"/>
      <point x="417" y="466"/>
      <point x="424" y="466" type="curve" smooth="yes"/>
      <point x="441" y="466"/>
      <point x="458" y="479"/>
      <point x="464" y="500" type="curve" smooth="yes"/>
      <point x="487" y="573"/>
      <point x="423" y="632"/>
      <point x="320" y="632" type="curve" smooth="yes"/>
      <point x="219" y="632"/>
      <point x="143" y="582"/>
    </contour>
  </outline>
</glyph>
<glyph name="gjU" format="1">
  <advance width="695"/>
  <unicode hex="0A89"/>
  <outline>
    <contour>
      <point x="178" y="468" type="curve" smooth="yes"/>
      <point x="219" y="599"/>
      <point x="348" y="704"/>
      <point x="495" y="704" type="curve" smooth="yes"/>
      <point x="629" y="704"/>
      <point x="685" y="628"/>
      <point x="714" y="628" type="curve" smooth="yes"/>
      <point x="735" y="628"/>
      <point x="763" y="659"/>
      <point x="777" y="702" type="curve" smooth="yes"/>
      <point x="815" y="819"/>
      <point x="745" y="931"/>
      <point x="573" y="931" type="curve" smooth="yes"/>
      <point x="385" y="931"/>
      <point x="169" y="786"/>
      <point x="96" y="551" type="curve" smooth="yes"/>
      <point x="13" y="284"/>
      <point x="111" y="0"/>
      <point x="379" y="0" type="curve" smooth="yes"/>
      <point x="488" y="0"/>
      <point x="579" y="56"/>
      <point x="608" y="146" type="curve" smooth="yes"/>
      <point x="645" y="262"/>
      <point x="577" y="357"/>
      <point x="477" y="376" type="curve"/>
      <point x="453" y="310" type="line"/>
      <point x="542" y="326"/>
      <point x="620" y="366"/>
      <point x="646" y="449" type="curve" smooth="yes"/>
      <point x="677" y="548"/>
      <point x="616" y="632"/>
      <point x="496" y="632" type="curve" smooth="yes"/>
      <point x="409" y="632"/>
      <point x="344" y="584"/>
      <point x="320" y="512" type="curve" smooth="yes"/>
      <point x="311" y="486"/>
      <point x="315" y="466"/>
      <point x="331" y="466" type="curve" smooth="yes"/>
      <point x="353" y="466"/>
      <point x="361" y="504"/>
      <point x="391" y="504" type="curve" smooth="yes"/>
      <point x="414" y="504"/>
      <point x="425" y="475"/>
      <point x="407" y="446" type="curve" smooth="yes"/>
      <point x="377" y="397"/>
      <point x="283" y="393"/>
      <point x="275" y="368" type="curve" smooth="yes"/>
      <point x="270" y="353"/>
      <point x="281" y="339"/>
      <point x="317" y="322" type="curve" smooth="yes"/>
      <point x="365" y="299"/>
      <point x="378" y="277"/>
      <point x="371" y="247" type="curve" smooth="yes"/>
      <point x="365" y="219"/>
      <point x="341" y="202"/>
      <point x="294" y="202" type="curve" smooth="yes"/>
      <point x="184" y="202"/>
      <point x="136" y="334"/>
    </contour>
  </outline>
</glyph>
<glyph name="gjUU" format="1">
  <advance width="1041"/>
  <unicode hex="0A8A"/>
  <outline>
    <contour>
      <point x="173" y="444" type="curve" smooth="yes"/>
      <point x="204" y="569"/>
      <point x="314" y="717"/>
      <point x="543" y="717" type="curve" smooth="yes"/>
      <point x="745" y="717"/>
      <point x="817" y="594"/>
      <point x="775" y="461" type="curve" smooth="yes"/>
      <point x="717" y="279" type="line" smooth="yes"/>
      <point x="697" y="213"/>
      <point x="688" y="172"/>
      <point x="688" y="137" type="curve" smooth="yes"/>
      <point x="688" y="63"/>
      <point x="731" y="-3"/>
      <point x="849" y="-3" type="curve" smooth="yes"/>
      <point x="952" y="-3"/>
      <point x="1021" y="73"/>
      <point x="1021" y="136" type="curve" smooth="yes"/>
      <point x="1021" y="149"/>
      <point x="1017" y="163"/>
      <point x="1009" y="163" type="curve" smooth="yes"/>
      <point x="999" y="163"/>
      <point x="993" y="138"/>
      <point x="970" y="138" type="curve" smooth="yes"/>
      <point x="958" y="138"/>
      <point x="951" y="150"/>
      <point x="958" y="169" type="curve" smooth="yes"/>
      <point x="1040" y="441" type="line" smooth="yes"/>
      <point x="1119" y="701"/>
      <point x="927" y="884"/>
      <point x="617" y="884" type="curve" smooth="yes"/>
      <point x="302" y="884"/>
      <point x="136" y="709"/>
      <point x="85" y="515" type="curve" smooth="yes"/>
      <point x="16" y="251"/>
      <point x="132" y="-3"/>
      <point x="379" y="-3" type="curve" smooth="yes"/>
      <point x="488" y="-3"/>
      <point x="579" y="56"/>
      <point x="608" y="146" type="curve" smooth="yes"/>
      <point x="645" y="262"/>
      <point x="577" y="357"/>
      <point x="477" y="376" type="curve"/>
      <point x="453" y="310" type="line"/>
      <point x="542" y="326"/>
      <point x="620" y="366"/>
      <point x="646" y="449" type="curve" smooth="yes"/>
      <point x="677" y="548"/>
      <point x="616" y="632"/>
      <point x="496" y="632" type="curve" smooth="yes"/>
      <point x="409" y="632"/>
      <point x="344" y="584"/>
      <point x="320" y="512" type="curve" smooth="yes"/>
      <point x="311" y="486"/>
      <point x="315" y="466"/>
      <point x="331" y="466" type="curve" smooth="yes"/>
      <point x="353" y="466"/>
      <point x="361" y="504"/>
      <point x="391" y="504" type="curve" smooth="yes"/>
      <point x="414" y="504"/>
      <point x="425" y="475"/>
      <point x="407" y="446" type="curve" smooth="yes"/>
      <point x="377" y="397"/>
      <point x="283" y="393"/>
      <point x="275" y="368" type="curve" smooth="yes"/>
      <point x="270" y="353"/>
      <point x="281" y="339"/>
      <point x="317" y="322" type="curve" smooth="yes"/>
      <point x="365" y="299"/>
      <point x="378" y="277"/>
      <point x="371" y="247" type="curve" smooth="yes"/>
      <point x="365" y="219"/>
      <point x="341" y="202"/>
      <point x="294" y="202" type="curve" smooth="yes"/>
      <point x="177" y="202"/>
      <point x="143" y="331"/>
    </contour>
  </outline>
</glyph>
<glyph name="gjvR" format="1">
  <advance width="1148"/>
  <unicode hex="0A8B"/>
  <outline>
    <contour>
      <point x="630" y="615" type="move" name="abvm"/>
    </contour>
    <contour>
      <point x="77" y="506" type="curve" smooth="yes"/>
      <point x="77" y="445"/>
      <point x="133" y="401"/>
      <point x="156" y="401" type="curve" smooth="yes"/>
      <point x="189" y="401"/>
      <point x="219" y="439"/>
      <point x="268" y="439" type="curve" smooth="yes"/>
      <point x="308" y="439"/>
      <point x="344" y="411"/>
      <point x="375" y="367" type="curve"/>
      <point x="220" y="292"/>
      <point x="29" y="373"/>
      <point x="29" y="282" type="curve" smooth="yes"/>
      <point x="29" y="204"/>
      <point x="124" y="125"/>
      <point x="193" y="125" type="curve" smooth="yes"/>
      <point x="253" y="125"/>
      <point x="300" y="169"/>
      <point x="413" y="316" type="curve"/>
      <point x="439" y="377" type="line"/>
      <point x="409" y="475" type="line" smooth="yes"/>
      <point x="376" y="582"/>
      <point x="323" y="633"/>
      <point x="230" y="633" type="curve" smooth="yes"/>
      <point x="165" y="633"/>
      <point x="77" y="580"/>
    </contour>
    <contour>
      <point x="847" y="322" type="line"/>
      <point x="863" y="309"/>
      <point x="866" y="296"/>
      <point x="866" y="285" type="curve" smooth="yes"/>
      <point x="866" y="260"/>
      <point x="849" y="238"/>
      <point x="812" y="238" type="curve" smooth="yes"/>
      <point x="756" y="238"/>
      <point x="722" y="272"/>
      <point x="701" y="272" type="curve" smooth="yes"/>
      <point x="694" y="272"/>
      <point x="687" y="261"/>
      <point x="687" y="246" type="curve" smooth="yes"/>
      <point x="687" y="189"/>
      <point x="760" y="92"/>
      <point x="921" y="92" type="curve" smooth="yes"/>
      <point x="1027" y="92"/>
      <point x="1074" y="143"/>
      <point x="1074" y="197" type="curve" smooth="yes"/>
      <point x="1074" y="252"/>
      <point x="1031" y="305"/>
      <point x="867" y="351" type="curve"/>
    </contour>
    <contour>
      <point x="760" y="482" type="curve" smooth="yes"/>
      <point x="760" y="440"/>
      <point x="791" y="399"/>
      <point x="824" y="380" type="curve"/>
      <point x="873" y="404" type="line"/>
      <point x="861" y="422"/>
      <point x="856" y="444"/>
      <point x="861" y="464" type="curve" smooth="yes"/>
      <point x="865" y="481"/>
      <point x="876" y="497"/>
      <point x="896" y="497" type="curve" smooth="yes"/>
      <point x="916" y="497"/>
      <point x="928" y="482"/>
      <point x="921" y="455" type="curve" smooth="yes"/>
      <point x="907" y="406"/>
      <point x="834" y="375"/>
      <point x="659" y="413" type="curve"/>
      <point x="625" y="334" type="line"/>
      <point x="1049" y="253"/>
      <point x="1175" y="367"/>
      <point x="1175" y="472" type="curve" smooth="yes"/>
      <point x="1175" y="563"/>
      <point x="1074" y="633"/>
      <point x="955" y="633" type="curve" smooth="yes"/>
      <point x="831" y="633"/>
      <point x="760" y="571"/>
    </contour>
    <contour>
      <point x="472" y="542" type="curve" smooth="yes"/>
      <point x="390" y="279" type="line" smooth="yes"/>
      <point x="368" y="213"/>
      <point x="360" y="172"/>
      <point x="360" y="137" type="curve" smooth="yes"/>
      <point x="360" y="63"/>
      <point x="403" y="-3"/>
      <point x="520" y="-3" type="curve" smooth="yes"/>
      <point x="624" y="-3"/>
      <point x="694" y="73"/>
      <point x="694" y="136" type="curve" smooth="yes"/>
      <point x="694" y="149"/>
      <point x="689" y="163"/>
      <point x="679" y="163" type="curve" smooth="yes"/>
      <point x="671" y="163"/>
      <point x="664" y="138"/>
      <point x="643" y="138" type="curve" smooth="yes"/>
      <point x="629" y="138"/>
      <point x="623" y="150"/>
      <point x="629" y="169" type="curve" smooth="yes"/>
      <point x="744" y="542" type="line" smooth="yes"/>
      <point x="747" y="555"/>
      <point x="749" y="566"/>
      <point x="749" y="575" type="curve" smooth="yes"/>
      <point x="749" y="599"/>
      <point x="740" y="624"/>
      <point x="674" y="624" type="curve" smooth="yes"/>
      <point x="601" y="624"/>
      <point x="490" y="599"/>
    </contour>
  </outline>
</glyph>
<glyph name="gjvL" format="1">
  <advance width="900"/>
  <unicode hex="0A8C"/>
  <outline>
    <contour>
      <point x="799" y="615" type="move" name="abvm"/>
    </contour>
    <contour>
      <point x="766" y="402" type="line"/>
      <point x="888" y="507" type="line" smooth="yes"/>
      <point x="914" y="528"/>
      <point x="923" y="547"/>
      <point x="923" y="570" type="curve" smooth="yes"/>
      <point x="923" y="601"/>
      <point x="885" y="625"/>
      <point x="805" y="625" type="curve" smooth="yes"/>
      <point x="730" y="625"/>
      <point x="661" y="601"/>
      <point x="654" y="545" type="curve" smooth="yes"/>
      <point x="636" y="402" type="line"/>
    </contour>
    <contour>
      <point x="276" y="520" type="curve" smooth="yes"/>
      <point x="179" y="520"/>
      <point x="73" y="462"/>
      <point x="33" y="341" type="curve" smooth="yes"/>
      <point x="-13" y="193"/>
      <point x="85" y="97"/>
      <point x="208" y="97" type="curve" smooth="yes"/>
      <point x="347" y="97"/>
      <point x="410" y="205"/>
      <point x="410" y="264" type="curve" smooth="yes"/>
      <point x="410" y="275"/>
      <point x="406" y="282"/>
      <point x="399" y="282" type="curve" smooth="yes"/>
      <point x="378" y="282"/>
      <point x="366" y="266"/>
      <point x="337" y="266" type="curve" smooth="yes"/>
      <point x="295" y="266"/>
      <point x="267" y="299"/>
      <point x="274" y="330" type="curve" smooth="yes"/>
      <point x="281" y="361"/>
      <point x="306" y="373"/>
      <point x="335" y="373" type="curve" smooth="yes"/>
      <point x="389" y="373"/>
      <point x="406" y="307"/>
      <point x="448" y="307" type="curve" smooth="yes"/>
      <point x="492" y="307"/>
      <point x="524" y="367"/>
      <point x="571" y="367" type="curve" smooth="yes"/>
      <point x="598" y="367"/>
      <point x="612" y="350"/>
      <point x="602" y="322" type="curve" smooth="yes"/>
      <point x="584" y="274"/>
      <point x="492" y="225"/>
      <point x="470" y="145" type="curve" smooth="yes"/>
      <point x="466" y="132"/>
      <point x="466" y="120"/>
      <point x="466" y="108" type="curve" smooth="yes"/>
      <point x="470" y="45"/>
      <point x="516" y="-4"/>
      <point x="626" y="-4" type="curve" smooth="yes"/>
      <point x="746" y="-4"/>
      <point x="830" y="56"/>
      <point x="844" y="109" type="curve" smooth="yes"/>
      <point x="854" y="147"/>
      <point x="829" y="130"/>
      <point x="805" y="130" type="curve" smooth="yes"/>
      <point x="780" y="130"/>
      <point x="770" y="143"/>
      <point x="769" y="159" type="curve" smooth="yes"/>
      <point x="766" y="212"/>
      <point x="884" y="265"/>
      <point x="905" y="357" type="curve" smooth="yes"/>
      <point x="918" y="417"/>
      <point x="884" y="492"/>
      <point x="727" y="492" type="curve" smooth="yes"/>
      <point x="611" y="492"/>
      <point x="526" y="468"/>
      <point x="448" y="387" type="curve"/>
      <point x="504" y="383" type="line"/>
      <point x="452" y="495"/>
      <point x="370" y="520"/>
    </contour>
  </outline>
</glyph>
<glyph name="gjAU" format="1">
  <advance width="1360"/>
  <unicode hex="0A94"/>
  <outline>
    <contour>
      <point x="481" y="415" type="curve" smooth="yes"/>
      <point x="471" y="382"/>
      <point x="476" y="343"/>
      <point x="499" y="309" type="curve"/>
      <point x="454" y="262"/>
      <point x="396" y="234"/>
      <point x="339" y="234" type="curve" smooth="yes"/>
      <point x="313" y="234"/>
      <point x="294" y="239"/>
      <point x="276" y="248" type="curve"/>
      <point x="376" y="276"/>
      <point x="432" y="354"/>
      <point x="452" y="430" type="curve" smooth="yes"/>
      <point x="477" y="530"/>
      <point x="432" y="628"/>
      <point x="308" y="628" type="curve" smooth="yes"/>
      <point x="206" y="628"/>
      <point x="134" y="565"/>
      <point x="111" y="491" type="curve" smooth="yes"/>
      <point x="102" y="463"/>
      <point x="109" y="451"/>
      <point x="118" y="451" type="curve" smooth="yes"/>
      <point x="128" y="451"/>
      <point x="139" y="467"/>
      <point x="161" y="467" type="curve" smooth="yes"/>
      <point x="181" y="467"/>
      <point x="190" y="452"/>
      <point x="185" y="430" type="curve" smooth="yes"/>
      <point x="180" y="410"/>
      <point x="162" y="384"/>
      <point x="129" y="359" type="curve"/>
      <point x="109" y="372"/>
      <point x="93" y="379"/>
      <point x="72" y="379" type="curve" smooth="yes"/>
      <point x="49" y="379"/>
      <point x="26" y="369"/>
      <point x="17" y="341" type="curve" smooth="yes"/>
      <point x="-2" y="280"/>
      <point x="55" y="214"/>
      <point x="168" y="214" type="curve"/>
      <point x="190" y="126"/>
      <point x="265" y="70"/>
      <point x="367" y="70" type="curve" smooth="yes"/>
      <point x="471" y="70"/>
      <point x="574" y="134"/>
      <point x="611" y="255" type="curve" smooth="yes"/>
      <point x="657" y="406"/>
      <point x="595" y="467"/>
      <point x="547" y="467" type="curve" smooth="yes"/>
      <point x="516" y="467"/>
      <point x="492" y="450"/>
    </contour>
    <contour>
      <point x="748" y="542" type="curve" smooth="yes"/>
      <point x="666" y="279" type="line" smooth="yes"/>
      <point x="644" y="213"/>
      <point x="634" y="172"/>
      <point x="634" y="137" type="curve" smooth="yes"/>
      <point x="634" y="63"/>
      <point x="678" y="-3"/>
      <point x="796" y="-3" type="curve" smooth="yes"/>
      <point x="899" y="-3"/>
      <point x="970" y="73"/>
      <point x="970" y="136" type="curve" smooth="yes"/>
      <point x="970" y="149"/>
      <point x="964" y="163"/>
      <point x="956" y="163" type="curve" smooth="yes"/>
      <point x="946" y="163"/>
      <point x="941" y="138"/>
      <point x="919" y="138" type="curve" smooth="yes"/>
      <point x="904" y="138"/>
      <point x="899" y="150"/>
      <point x="904" y="169" type="curve" smooth="yes"/>
      <point x="1020" y="542" type="line" smooth="yes"/>
      <point x="1023" y="555"/>
      <point x="1025" y="566"/>
      <point x="1025" y="575" type="curve" smooth="yes"/>
      <point x="1025" y="599"/>
      <point x="1015" y="624"/>
      <point x="950" y="624" type="curve" smooth="yes"/>
      <point x="876" y="624"/>
      <point x="767" y="599"/>
    </contour>
    <contour>
      <point x="616" y="332" type="curve"/>
      <point x="560" y="260" type="line"/>
      <point x="603" y="234"/>
      <point x="651" y="219"/>
      <point x="702" y="219" type="curve"/>
      <point x="702" y="390" type="line"/>
      <point x="688" y="346"/>
      <point x="664" y="332"/>
    </contour>
    <contour>
      <point x="1119" y="542" type="curve" smooth="yes"/>
      <point x="1036" y="279" type="line" smooth="yes"/>
      <point x="1014" y="213"/>
      <point x="1006" y="172"/>
      <point x="1006" y="137" type="curve" smooth="yes"/>
      <point x="1006" y="63"/>
      <point x="1050" y="-3"/>
      <point x="1167" y="-3" type="curve" smooth="yes"/>
      <point x="1271" y="-3"/>
      <point x="1340" y="73"/>
      <point x="1340" y="136" type="curve" smooth="yes"/>
      <point x="1340" y="149"/>
      <point x="1336" y="163"/>
      <point x="1327" y="163" type="curve" smooth="yes"/>
      <point x="1317" y="163"/>
      <point x="1310" y="138"/>
      <point x="1290" y="138" type="curve" smooth="yes"/>
      <point x="1276" y="138"/>
      <point x="1269" y="150"/>
      <point x="1276" y="169" type="curve" smooth="yes"/>
      <point x="1390" y="542" type="line" smooth="yes"/>
      <point x="1393" y="555"/>
      <point x="1395" y="566"/>
      <point x="1395" y="575" type="curve" smooth="yes"/>
      <point x="1395" y="599"/>
      <point x="1386" y="624"/>
      <point x="1321" y="624" type="curve" smooth="yes"/>
      <point x="1246" y="624"/>
      <point x="1137" y="599"/>
    </contour>
    <contour>
      <point x="1308" y="844" type="curve" smooth="yes"/>
      <point x="1308" y="806"/>
      <point x="1323" y="764"/>
      <point x="1369" y="699" type="curve"/>
      <point x="1369" y="705" type="line"/>
      <point x="1302" y="770" type="line" smooth="yes"/>
      <point x="1203" y="867"/>
      <point x="1176" y="886"/>
      <point x="1138" y="886" type="curve" smooth="yes"/>
      <point x="1095" y="886"/>
      <point x="1067" y="861"/>
      <point x="1067" y="816" type="curve" smooth="yes"/>
      <point x="1067" y="699"/>
      <point x="1290" y="653"/>
      <point x="1382" y="653" type="curve" smooth="yes"/>
      <point x="1417" y="653"/>
      <point x="1459" y="716"/>
      <point x="1459" y="810" type="curve" smooth="yes"/>
      <point x="1459" y="895"/>
      <point x="1421" y="931"/>
      <point x="1379" y="931" type="curve" smooth="yes"/>
      <point x="1338" y="931"/>
      <point x="1308" y="896"/>
    </contour>
  </outline>
</glyph>
<glyph name="gjKA" format="1">
  <advance width="539"/>
  <unicode hex="0A95"/>
  <outline>
    <contour>
      <point x="231" y="0" type="move" name="blwm"/>
    </contour>
    <contour>
      <point x="340" y="615" type="move" name="abvm"/>
    </contour>
    <contour>
      <point x="271" y="307" type="line"/>
      <point x="305" y="287"/>
      <point x="322" y="270"/>
      <point x="319" y="241" type="curve" smooth="yes"/>
      <point x="319" y="212"/>
      <point x="295" y="189"/>
      <point x="243" y="189" type="curve" smooth="yes"/>
      <point x="122" y="189"/>
      <point x="101" y="254"/>
      <point x="77" y="254" type="curve" smooth="yes"/>
      <point x="61" y="254"/>
      <point x="20" y="215"/>
      <point x="15" y="158" type="curve" smooth="yes"/>
      <point x="11" y="66"/>
      <point x="115" y="-3"/>
      <point x="261" y="-3" type="curve" smooth="yes"/>
      <point x="417" y="-3"/>
      <point x="519" y="68"/>
      <point x="525" y="165" type="curve" smooth="yes"/>
      <point x="527" y="238"/>
      <point x="448" y="293"/>
      <point x="353" y="324" type="curve"/>
    </contour>
    <contour>
      <point x="373" y="391" type="curve" smooth="yes"/>
      <point x="299" y="353" type="line"/>
      <point x="147" y="353" type="line" smooth="yes"/>
      <point x="113" y="353"/>
      <point x="103" y="335"/>
      <point x="103" y="320" type="curve" smooth="yes"/>
      <point x="101" y="289"/>
      <point x="165" y="253"/>
      <point x="209" y="253" type="curve" smooth="yes"/>
      <point x="227" y="253"/>
      <point x="254" y="264"/>
      <point x="345" y="310" type="curve"/>
      <point x="457" y="310" type="line" smooth="yes"/>
      <point x="499" y="310"/>
      <point x="506" y="325"/>
      <point x="507" y="340" type="curve" smooth="yes"/>
      <point x="509" y="367"/>
      <point x="464" y="409"/>
      <point x="432" y="409" type="curve" smooth="yes"/>
      <point x="419" y="409"/>
      <point x="404" y="405"/>
    </contour>
    <contour>
      <point x="161" y="476" type="curve" smooth="yes"/>
      <point x="161" y="417"/>
      <point x="207" y="363"/>
      <point x="263" y="337" type="curve"/>
      <point x="341" y="356" type="line"/>
      <point x="330" y="363"/>
      <point x="319" y="376"/>
      <point x="319" y="397" type="curve" smooth="yes"/>
      <point x="322" y="432"/>
      <point x="352" y="456"/>
      <point x="401" y="456" type="curve" smooth="yes"/>
      <point x="470" y="456"/>
      <point x="503" y="420"/>
      <point x="530" y="420" type="curve" smooth="yes"/>
      <point x="542" y="420"/>
      <point x="558" y="432"/>
      <point x="558" y="465" type="curve" smooth="yes"/>
      <point x="558" y="545"/>
      <point x="485" y="633"/>
      <point x="340" y="633" type="curve" smooth="yes"/>
      <point x="221" y="633"/>
      <point x="161" y="556"/>
    </contour>
  </outline>
</glyph>
<glyph name="gjKHA" format="1">
  <advance width="929"/>
  <unicode hex="0A96"/>
  <outline>
    <contour>
      <point x="62" y="496" type="curve" smooth="yes"/>
      <point x="62" y="481"/>
      <point x="66" y="468"/>
      <point x="75" y="468" type="curve" smooth="yes"/>
      <point x="83" y="468"/>
      <point x="88" y="493"/>
      <point x="111" y="493" type="curve" smooth="yes"/>
      <point x="121" y="493"/>
      <point x="127" y="487"/>
      <point x="127" y="474" type="curve" smooth="yes"/>
      <point x="127" y="471"/>
      <point x="126" y="466"/>
      <point x="125" y="462" type="curve" smooth="yes"/>
      <point x="95" y="373" type="line" smooth="yes"/>
      <point x="82" y="337"/>
      <point x="76" y="306"/>
      <point x="76" y="274" type="curve" smooth="yes"/>
      <point x="76" y="186"/>
      <point x="128" y="125"/>
      <point x="263" y="125" type="curve" smooth="yes"/>
      <point x="416" y="125"/>
      <point x="591" y="267"/>
      <point x="591" y="418" type="curve" smooth="yes"/>
      <point x="591" y="470"/>
      <point x="562" y="500"/>
      <point x="517" y="500" type="curve" smooth="yes"/>
      <point x="471" y="500"/>
      <point x="425" y="466"/>
      <point x="425" y="397" type="curve" smooth="yes"/>
      <point x="425" y="361"/>
      <point x="439" y="340"/>
      <point x="451" y="322" type="curve"/>
      <point x="431" y="297"/>
      <point x="409" y="282"/>
      <point x="379" y="282" type="curve" smooth="yes"/>
      <point x="352" y="282"/>
      <point x="340" y="305"/>
      <point x="352" y="336" type="curve" smooth="yes"/>
      <point x="378" y="402" type="line" smooth="yes"/>
      <point x="392" y="432"/>
      <point x="400" y="465"/>
      <point x="400" y="497" type="curve" smooth="yes"/>
      <point x="400" y="572"/>
      <point x="342" y="633"/>
      <point x="233" y="633" type="curve" smooth="yes"/>
      <point x="128" y="633"/>
      <point x="62" y="559"/>
    </contour>
    <contour>
      <point x="576" y="348" type="curve"/>
      <point x="463" y="304" type="line"/>
      <point x="517" y="261"/>
      <point x="578" y="235"/>
      <point x="646" y="235" type="curve"/>
      <point x="646" y="406" type="line"/>
      <point x="632" y="362"/>
      <point x="608" y="348"/>
    </contour>
    <contour>
      <point x="687" y="542" type="curve" smooth="yes"/>
      <point x="605" y="279" type="line" smooth="yes"/>
      <point x="583" y="213"/>
      <point x="573" y="172"/>
      <point x="573" y="137" type="curve" smooth="yes"/>
      <point x="573" y="63"/>
      <point x="617" y="-3"/>
      <point x="735" y="-3" type="curve" smooth="yes"/>
      <point x="839" y="-3"/>
      <point x="909" y="73"/>
      <point x="909" y="136" type="curve" smooth="yes"/>
      <point x="909" y="149"/>
      <point x="904" y="163"/>
      <point x="896" y="163" type="curve" smooth="yes"/>
      <point x="886" y="163"/>
      <point x="879" y="138"/>
      <point x="858" y="138" type="curve" smooth="yes"/>
      <point x="845" y="138"/>
      <point x="838" y="150"/>
      <point x="845" y="169" type="curve" smooth="yes"/>
      <point x="958" y="542" type="line" smooth="yes"/>
      <point x="962" y="555"/>
      <point x="964" y="566"/>
      <point x="964" y="575" type="curve" smooth="yes"/>
      <point x="964" y="599"/>
      <point x="955" y="624"/>
      <point x="889" y="624" type="curve" smooth="yes"/>
      <point x="815" y="624"/>
      <point x="706" y="599"/>
    </contour>
  </outline>
</glyph>
<glyph name="gjGHA" format="1">
  <advance width="777"/>
  <unicode hex="0A98"/>
  <outline>
    <contour>
      <point x="87" y="478" type="curve" smooth="yes"/>
      <point x="87" y="420"/>
      <point x="135" y="369"/>
      <point x="204" y="347" type="curve"/>
      <point x="198" y="412" type="line"/>
      <point x="93" y="394"/>
      <point x="25" y="349"/>
      <point x="25" y="265" type="curve" smooth="yes"/>
      <point x="25" y="185"/>
      <point x="90" y="125"/>
      <point x="211" y="125" type="curve" smooth="yes"/>
      <point x="361" y="125"/>
      <point x="466" y="214"/>
      <point x="526" y="359" type="curve"/>
      <point x="491" y="397" type="line"/>
      <point x="467" y="320"/>
      <point x="416" y="263"/>
      <point x="344" y="263" type="curve" smooth="yes"/>
      <point x="303" y="263"/>
      <point x="284" y="275"/>
      <point x="284" y="300" type="curve" smooth="yes"/>
      <point x="284" y="363"/>
      <point x="430" y="355"/>
      <point x="430" y="392" type="curve" smooth="yes"/>
      <point x="430" y="415"/>
      <point x="335" y="420"/>
      <point x="335" y="486" type="curve" smooth="yes"/>
      <point x="335" y="509"/>
      <point x="352" y="524"/>
      <point x="369" y="524" type="curve" smooth="yes"/>
      <point x="393" y="524"/>
      <point x="410" y="487"/>
      <point x="432" y="487" type="curve" smooth="yes"/>
      <point x="441" y="487"/>
      <point x="447" y="495"/>
      <point x="447" y="508" type="curve" smooth="yes"/>
      <point x="447" y="574"/>
      <point x="371" y="633"/>
      <point x="265" y="633" type="curve" smooth="yes"/>
      <point x="157" y="633"/>
      <point x="87" y="563"/>
    </contour>
    <contour>
      <point x="535" y="542" type="curve" smooth="yes"/>
      <point x="454" y="279" type="line" smooth="yes"/>
      <point x="432" y="213"/>
      <point x="423" y="172"/>
      <point x="423" y="137" type="curve" smooth="yes"/>
      <point x="423" y="63"/>
      <point x="467" y="-3"/>
      <point x="584" y="-3" type="curve" smooth="yes"/>
      <point x="687" y="-3"/>
      <point x="757" y="73"/>
      <point x="757" y="136" type="curve" smooth="yes"/>
      <point x="757" y="149"/>
      <point x="753" y="163"/>
      <point x="744" y="163" type="curve" smooth="yes"/>
      <point x="735" y="163"/>
      <point x="728" y="138"/>
      <point x="707" y="138" type="curve" smooth="yes"/>
      <point x="693" y="138"/>
      <point x="686" y="150"/>
      <point x="693" y="169" type="curve" smooth="yes"/>
      <point x="808" y="542" type="line" smooth="yes"/>
      <point x="811" y="555"/>
      <point x="813" y="566"/>
      <point x="813" y="575" type="curve" smooth="yes"/>
      <point x="813" y="599"/>
      <point x="803" y="624"/>
      <point x="738" y="624" type="curve" smooth="yes"/>
      <point x="664" y="624"/>
      <point x="555" y="599"/>
    </contour>
  </outline>
</glyph>
<glyph name="gjNGA" format="1">
  <advance width="552"/>
  <unicode hex="0A99"/>
  <outline>
    <contour>
      <point x="212" y="0" type="move" name="blwm"/>
    </contour>
    <contour>
      <point x="351" y="615" type="move" name="abvm"/>
    </contour>
    <contour>
      <point x="577" y="528" type="curve" smooth="yes"/>
      <point x="577" y="462"/>
      <point x="540" y="416"/>
      <point x="485" y="416" type="curve" smooth="yes"/>
      <point x="435" y="416"/>
      <point x="400" y="452"/>
      <point x="400" y="501" type="curve" smooth="yes"/>
      <point x="400" y="567"/>
      <point x="437" y="613"/>
      <point x="492" y="613" type="curve" smooth="yes"/>
      <point x="542" y="613"/>
      <point x="577" y="577"/>
    </contour>
    <contour>
      <point x="245" y="633" type="curve" smooth="yes"/>
      <point x="180" y="633"/>
      <point x="140" y="589"/>
      <point x="140" y="536" type="curve" smooth="yes"/>
      <point x="140" y="422"/>
      <point x="330" y="365"/>
      <point x="330" y="284" type="curve" smooth="yes"/>
      <point x="330" y="238"/>
      <point x="294" y="212"/>
      <point x="238" y="212" type="curve" smooth="yes"/>
      <point x="146" y="212"/>
      <point x="70" y="298"/>
      <point x="46" y="298" type="curve" smooth="yes"/>
      <point x="32" y="298"/>
      <point x="18" y="265"/>
      <point x="18" y="217" type="curve" smooth="yes"/>
      <point x="18" y="95"/>
      <point x="112" y="-3"/>
      <point x="272" y="-3" type="curve" smooth="yes"/>
      <point x="399" y="-3"/>
      <point x="483" y="53"/>
      <point x="503" y="132" type="curve" smooth="yes"/>
      <point x="527" y="228"/>
      <point x="485" y="284"/>
      <point x="363" y="400" type="curve" smooth="yes"/>
      <point x="321" y="440"/>
      <point x="313" y="459"/>
      <point x="317" y="480" type="curve" smooth="yes"/>
      <point x="320" y="495"/>
      <point x="328" y="502"/>
      <point x="346" y="502" type="curve" smooth="yes"/>
      <point x="363" y="502"/>
      <point x="372" y="505"/>
      <point x="375" y="518" type="curve" smooth="yes"/>
      <point x="386" y="562"/>
      <point x="323" y="633"/>
    </contour>
  </outline>
</glyph>
<glyph name="gjJA" format="1">
  <advance width="700"/>
  <unicode hex="0A9C"/>
  <outline>
    <contour>
      <point x="341" y="0" type="move" name="blwm"/>
    </contour>
    <contour>
      <point x="370" y="615" type="move" name="abvm"/>
    </contour>
    <contour>
      <point x="458" y="580" type="curve" smooth="yes"/>
      <point x="458" y="559"/>
      <point x="489" y="565"/>
      <point x="489" y="543" type="curve" smooth="yes"/>
      <point x="489" y="522"/>
      <point x="469" y="496"/>
      <point x="359" y="405" type="curve" smooth="yes"/>
      <point x="238" y="305"/>
      <point x="204" y="251"/>
      <point x="204" y="181" type="curve" smooth="yes"/>
      <point x="204" y="74"/>
      <point x="293" y="-3"/>
      <point x="416" y="-3" type="curve" smooth="yes"/>
      <point x="524" y="-3"/>
      <point x="594" y="57"/>
      <point x="594" y="141" type="curve" smooth="yes"/>
      <point x="594" y="193"/>
      <point x="567" y="230"/>
      <point x="511" y="259" type="curve"/>
      <point x="593" y="303" type="line" smooth="yes"/>
      <point x="735" y="379"/>
      <point x="780" y="435"/>
      <point x="780" y="514" type="curve" smooth="yes"/>
      <point x="780" y="592"/>
      <point x="708" y="663"/>
      <point x="605" y="663" type="curve" smooth="yes"/>
      <point x="508" y="663"/>
      <point x="458" y="611"/>
    </contour>
    <contour>
      <point x="457" y="210" type="line" smooth="yes"/>
      <point x="487" y="171"/>
      <point x="464" y="135"/>
      <point x="432" y="135" type="curve" smooth="yes"/>
      <point x="413" y="135"/>
      <point x="399" y="147"/>
      <point x="399" y="168" type="curve" smooth="yes"/>
      <point x="399" y="186"/>
      <point x="413" y="204"/>
      <point x="447" y="223" type="curve"/>
    </contour>
    <contour>
      <point x="71" y="548" type="curve" smooth="yes"/>
      <point x="42" y="456"/>
      <point x="108" y="352"/>
      <point x="204" y="352" type="curve" smooth="yes"/>
      <point x="219" y="352"/>
      <point x="225" y="359"/>
      <point x="225" y="367" type="curve" smooth="yes"/>
      <point x="225" y="378"/>
      <point x="212" y="389"/>
      <point x="212" y="405" type="curve" smooth="yes"/>
      <point x="212" y="428"/>
      <point x="229" y="441"/>
      <point x="254" y="441" type="curve" smooth="yes"/>
      <point x="282" y="441"/>
      <point x="307" y="424"/>
      <point x="329" y="394" type="curve" smooth="yes"/>
      <point x="343" y="375" type="line"/>
      <point x="399" y="415" type="line"/>
      <point x="345" y="580"/>
      <point x="272" y="633"/>
      <point x="194" y="633" type="curve" smooth="yes"/>
      <point x="135" y="633"/>
      <point x="89" y="604"/>
    </contour>
  </outline>
</glyph>
<glyph name="gjJHA" format="1">
  <advance width="725"/>
  <unicode hex="0A9D"/>
  <outline>
    <contour>
      <point x="393" y="0" type="move" name="blwm"/>
    </contour>
    <contour>
      <point x="452" y="615" type="move" name="abvm"/>
    </contour>
    <contour>
      <point x="323" y="303" type="curve"/>
      <point x="361" y="280" type="line"/>
      <point x="375" y="301"/>
      <point x="385" y="307"/>
      <point x="397" y="307" type="curve" smooth="yes"/>
      <point x="413" y="307"/>
      <point x="425" y="285"/>
      <point x="422" y="252" type="curve" smooth="yes"/>
      <point x="417" y="197"/>
      <point x="384" y="139"/>
      <point x="353" y="139" type="curve" smooth="yes"/>
      <point x="334" y="139"/>
      <point x="330" y="170"/>
      <point x="319" y="170" type="curve" smooth="yes"/>
      <point x="311" y="170"/>
      <point x="305" y="160"/>
      <point x="302" y="146" type="curve" smooth="yes"/>
      <point x="287" y="75"/>
      <point x="326" y="-4"/>
      <point x="453" y="-4" type="curve" smooth="yes"/>
      <point x="566" y="-4"/>
      <point x="666" y="88"/>
      <point x="681" y="232" type="curve" smooth="yes"/>
      <point x="692" y="341"/>
      <point x="624" y="431"/>
      <point x="516" y="431" type="curve" smooth="yes"/>
      <point x="422" y="431"/>
      <point x="378" y="393"/>
    </contour>
    <contour>
      <point x="648" y="335" type="line"/>
      <point x="756" y="524" type="line" smooth="yes"/>
      <point x="767" y="544"/>
      <point x="773" y="557"/>
      <point x="773" y="571" type="curve" smooth="yes"/>
      <point x="773" y="603"/>
      <point x="743" y="624"/>
      <point x="686" y="624" type="curve" smooth="yes"/>
      <point x="611" y="624"/>
      <point x="506" y="600"/>
      <point x="490" y="542" type="curve" smooth="yes"/>
      <point x="436" y="348" type="line" smooth="yes"/>
    </contour>
    <contour>
      <point x="413" y="454" type="curve" smooth="yes"/>
      <point x="413" y="553"/>
      <point x="352" y="633"/>
      <point x="237" y="633" type="curve" smooth="yes"/>
      <point x="149" y="633"/>
      <point x="85" y="572"/>
      <point x="85" y="511" type="curve" smooth="yes"/>
      <point x="85" y="499"/>
      <point x="89" y="485"/>
      <point x="97" y="485" type="curve" smooth="yes"/>
      <point x="109" y="485"/>
      <point x="117" y="509"/>
      <point x="135" y="509" type="curve" smooth="yes"/>
      <point x="146" y="509"/>
      <point x="153" y="497"/>
      <point x="153" y="474" type="curve" smooth="yes"/>
      <point x="153" y="409"/>
      <point x="119" y="339"/>
      <point x="80" y="339" type="curve" smooth="yes"/>
      <point x="61" y="339"/>
      <point x="57" y="370"/>
      <point x="46" y="370" type="curve" smooth="yes"/>
      <point x="38" y="370"/>
      <point x="32" y="360"/>
      <point x="29" y="346" type="curve" smooth="yes"/>
      <point x="14" y="275"/>
      <point x="53" y="196"/>
      <point x="180" y="196" type="curve" smooth="yes"/>
      <point x="325" y="196"/>
      <point x="413" y="300"/>
    </contour>
  </outline>
</glyph>
<glyph name="gjTTHA" format="1">
  <advance width="623"/>
  <unicode hex="0AA0"/>
  <outline>
    <contour>
      <point x="241" y="-23" type="move" name="blwm"/>
    </contour>
    <contour>
      <point x="370" y="615" type="move" name="abvm"/>
    </contour>
    <contour>
      <point x="453" y="472" type="curve" smooth="yes"/>
      <point x="488" y="472"/>
      <point x="527" y="437"/>
      <point x="559" y="437" type="curve" smooth="yes"/>
      <point x="568" y="437"/>
      <point x="575" y="450"/>
      <point x="575" y="467" type="curve" smooth="yes"/>
      <point x="575" y="557"/>
      <point x="493" y="633"/>
      <point x="371" y="633" type="curve" smooth="yes"/>
      <point x="274" y="633"/>
      <point x="231" y="577"/>
      <point x="231" y="534" type="curve" smooth="yes"/>
      <point x="231" y="507"/>
      <point x="244" y="486"/>
      <point x="267" y="461" type="curve"/>
      <point x="156" y="461"/>
      <point x="59" y="410"/>
      <point x="30" y="300" type="curve" smooth="yes"/>
      <point x="-14" y="120"/>
      <point x="146" y="-7"/>
      <point x="339" y="-7" type="curve" smooth="yes"/>
      <point x="505" y="-7"/>
      <point x="599" y="101"/>
      <point x="599" y="211" type="curve" smooth="yes"/>
      <point x="599" y="289"/>
      <point x="560" y="330"/>
      <point x="483" y="381" type="curve" smooth="yes"/>
      <point x="432" y="417"/>
      <point x="424" y="429"/>
      <point x="424" y="445" type="curve" smooth="yes"/>
      <point x="424" y="460"/>
      <point x="435" y="472"/>
    </contour>
    <contour>
      <point x="345" y="222" type="curve" smooth="yes"/>
      <point x="322" y="125"/>
      <point x="306" y="103"/>
      <point x="279" y="103" type="curve" smooth="yes"/>
      <point x="254" y="103"/>
      <point x="251" y="125"/>
      <point x="273" y="222" type="curve" smooth="yes"/>
      <point x="299" y="328"/>
      <point x="315" y="358"/>
      <point x="341" y="358" type="curve" smooth="yes"/>
      <point x="367" y="358"/>
      <point x="369" y="328"/>
    </contour>
  </outline>
</glyph>
<glyph name="gjDDA" format="1">
  <advance width="530"/>
  <unicode hex="0AA1"/>
  <outline>
    <contour>
      <point x="202" y="0" type="move" name="blwm"/>
    </contour>
    <contour>
      <point x="271" y="615" type="move" name="abvm"/>
    </contour>
    <contour>
      <point x="136" y="530" type="curve" smooth="yes"/>
      <point x="136" y="422"/>
      <point x="330" y="365"/>
      <point x="330" y="284" type="curve" smooth="yes"/>
      <point x="330" y="238"/>
      <point x="294" y="212"/>
      <point x="238" y="212" type="curve" smooth="yes"/>
      <point x="146" y="212"/>
      <point x="70" y="298"/>
      <point x="46" y="298" type="curve" smooth="yes"/>
      <point x="32" y="298"/>
      <point x="18" y="265"/>
      <point x="18" y="217" type="curve" smooth="yes"/>
      <point x="18" y="95"/>
      <point x="112" y="-3"/>
      <point x="283" y="-3" type="curve" smooth="yes"/>
      <point x="420" y="-3"/>
      <point x="511" y="85"/>
      <point x="511" y="189" type="curve" smooth="yes"/>
      <point x="511" y="320"/>
      <point x="351" y="372"/>
      <point x="351" y="429" type="curve" smooth="yes"/>
      <point x="351" y="450"/>
      <point x="363" y="461"/>
      <point x="381" y="461" type="curve" smooth="yes"/>
      <point x="419" y="461"/>
      <point x="439" y="420"/>
      <point x="462" y="420" type="curve" smooth="yes"/>
      <point x="473" y="420"/>
      <point x="483" y="437"/>
      <point x="482" y="466" type="curve" smooth="yes"/>
      <point x="479" y="547"/>
      <point x="401" y="633"/>
      <point x="272" y="633" type="curve" smooth="yes"/>
      <point x="182" y="633"/>
      <point x="136" y="589"/>
    </contour>
  </outline>
</glyph>
<glyph name="gjDDHA" format="1">
  <advance width="616"/>
  <unicode hex="0AA2"/>
  <outline>
    <contour>
      <point x="264" y="-39" type="move" name="blwm"/>
    </contour>
    <contour>
      <point x="381" y="615" type="move" name="abvm"/>
    </contour>
    <contour>
      <point x="227" y="573" type="curve" smooth="yes"/>
      <point x="219" y="550"/>
      <point x="267" y="542"/>
      <point x="257" y="509" type="curve" smooth="yes"/>
      <point x="254" y="498"/>
      <point x="240" y="488"/>
      <point x="168" y="446" type="curve" smooth="yes"/>
      <point x="75" y="392"/>
      <point x="20" y="326"/>
      <point x="18" y="241" type="curve" smooth="yes"/>
      <point x="14" y="92"/>
      <point x="146" y="-7"/>
      <point x="324" y="-7" type="curve" smooth="yes"/>
      <point x="447" y="-7"/>
      <point x="587" y="38"/>
      <point x="618" y="137" type="curve" smooth="yes"/>
      <point x="644" y="220"/>
      <point x="595" y="300"/>
      <point x="475" y="300" type="curve" smooth="yes"/>
      <point x="395" y="300"/>
      <point x="299" y="258"/>
      <point x="271" y="171" type="curve" smooth="yes"/>
      <point x="264" y="147"/>
      <point x="261" y="121"/>
      <point x="267" y="88" type="curve"/>
      <point x="226" y="101"/>
      <point x="200" y="138"/>
      <point x="219" y="198" type="curve" smooth="yes"/>
      <point x="233" y="243"/>
      <point x="283" y="287"/>
      <point x="435" y="340" type="curve" smooth="yes"/>
      <point x="566" y="386"/>
      <point x="604" y="412"/>
      <point x="618" y="457" type="curve" smooth="yes"/>
      <point x="646" y="549"/>
      <point x="561" y="631"/>
      <point x="406" y="631" type="curve" smooth="yes"/>
      <point x="321" y="631"/>
      <point x="237" y="604"/>
    </contour>
    <contour>
      <point x="398" y="156" type="curve" smooth="yes"/>
      <point x="421" y="156"/>
      <point x="434" y="138"/>
      <point x="428" y="117" type="curve" smooth="yes"/>
      <point x="419" y="88"/>
      <point x="378" y="81"/>
      <point x="343" y="81" type="curve"/>
      <point x="342" y="92"/>
      <point x="344" y="106"/>
      <point x="347" y="116" type="curve" smooth="yes"/>
      <point x="355" y="142"/>
      <point x="377" y="156"/>
    </contour>
  </outline>
</glyph>
<glyph name="gjNNA" format="1">
  <advance width="1110"/>
  <unicode hex="0AA3"/>
  <outline>
    <contour>
      <point x="443" y="511" type="curve" smooth="yes"/>
      <point x="443" y="499"/>
      <point x="447" y="485"/>
      <point x="456" y="485" type="curve" smooth="yes"/>
      <point x="466" y="485"/>
      <point x="473" y="509"/>
      <point x="492" y="509" type="curve" smooth="yes"/>
      <point x="505" y="509"/>
      <point x="510" y="497"/>
      <point x="510" y="474" type="curve" smooth="yes"/>
      <point x="510" y="409"/>
      <point x="475" y="339"/>
      <point x="436" y="339" type="curve" smooth="yes"/>
      <point x="412" y="339"/>
      <point x="410" y="363"/>
      <point x="399" y="363" type="curve" smooth="yes"/>
      <point x="392" y="363"/>
      <point x="386" y="352"/>
      <point x="386" y="330" type="curve" smooth="yes"/>
      <point x="386" y="253"/>
      <point x="453" y="198"/>
      <point x="553" y="198" type="curve" smooth="yes"/>
      <point x="678" y="198"/>
      <point x="769" y="300"/>
      <point x="769" y="454" type="curve" smooth="yes"/>
      <point x="769" y="553"/>
      <point x="709" y="633"/>
      <point x="595" y="633" type="curve" smooth="yes"/>
      <point x="506" y="633"/>
      <point x="443" y="572"/>
    </contour>
    <contour>
      <point x="125" y="542" type="curve" smooth="yes"/>
      <point x="56" y="322" type="line" smooth="yes"/>
      <point x="30" y="240"/>
      <point x="54" y="196"/>
      <point x="141" y="166" type="curve" smooth="yes"/>
      <point x="464" y="54" type="line" smooth="yes"/>
      <point x="505" y="40"/>
      <point x="516" y="30"/>
      <point x="516" y="12" type="curve" smooth="yes"/>
      <point x="516" y="-13"/>
      <point x="498" y="-26"/>
      <point x="467" y="-26" type="curve" smooth="yes"/>
      <point x="439" y="-26"/>
      <point x="427" y="-14"/>
      <point x="413" y="-14" type="curve" smooth="yes"/>
      <point x="404" y="-14"/>
      <point x="397" y="-26"/>
      <point x="397" y="-48" type="curve" smooth="yes"/>
      <point x="397" y="-130"/>
      <point x="461" y="-201"/>
      <point x="566" y="-201" type="curve" smooth="yes"/>
      <point x="662" y="-201"/>
      <point x="729" y="-135"/>
      <point x="729" y="-52" type="curve" smooth="yes"/>
      <point x="729" y="32"/>
      <point x="669" y="81"/>
      <point x="567" y="118" type="curve" smooth="yes"/>
      <point x="363" y="188" type="line" smooth="yes"/>
      <point x="305" y="209"/>
      <point x="293" y="221"/>
      <point x="307" y="262" type="curve" smooth="yes"/>
      <point x="397" y="542" type="line" smooth="yes"/>
      <point x="401" y="555"/>
      <point x="403" y="566"/>
      <point x="403" y="575" type="curve" smooth="yes"/>
      <point x="403" y="599"/>
      <point x="393" y="624"/>
      <point x="326" y="624" type="curve" smooth="yes"/>
      <point x="253" y="624"/>
      <point x="144" y="599"/>
    </contour>
    <contour>
      <point x="870" y="542" type="curve" smooth="yes"/>
      <point x="788" y="279" type="line" smooth="yes"/>
      <point x="766" y="213"/>
      <point x="757" y="172"/>
      <point x="757" y="137" type="curve" smooth="yes"/>
      <point x="757" y="63"/>
      <point x="800" y="-3"/>
      <point x="918" y="-3" type="curve" smooth="yes"/>
      <point x="1022" y="-3"/>
      <point x="1090" y="73"/>
      <point x="1090" y="136" type="curve" smooth="yes"/>
      <point x="1090" y="149"/>
      <point x="1085" y="163"/>
      <point x="1078" y="163" type="curve" smooth="yes"/>
      <point x="1068" y="163"/>
      <point x="1063" y="138"/>
      <point x="1040" y="138" type="curve" smooth="yes"/>
      <point x="1026" y="138"/>
      <point x="1022" y="150"/>
      <point x="1026" y="169" type="curve" smooth="yes"/>
      <point x="1140" y="542" type="line" smooth="yes"/>
      <point x="1144" y="555"/>
      <point x="1148" y="566"/>
      <point x="1148" y="575" type="curve" smooth="yes"/>
      <point x="1148" y="599"/>
      <point x="1137" y="624"/>
      <point x="1073" y="624" type="curve" smooth="yes"/>
      <point x="997" y="624"/>
      <point x="888" y="599"/>
    </contour>
  </outline>
</glyph>
<glyph name="gjDHA" format="1">
  <advance width="769"/>
  <unicode hex="0AA7"/>
  <outline>
    <contour>
      <point x="217" y="388" type="curve"/>
      <point x="199" y="432" type="line"/>
      <point x="108" y="423"/>
      <point x="51" y="370"/>
      <point x="33" y="314" type="curve" smooth="yes"/>
      <point x="3" y="221"/>
      <point x="77" y="127"/>
      <point x="217" y="127" type="curve" smooth="yes"/>
      <point x="373" y="127"/>
      <point x="481" y="220"/>
      <point x="534" y="346" type="curve"/>
      <point x="484" y="399" type="line"/>
      <point x="455" y="307"/>
      <point x="406" y="265"/>
      <point x="348" y="265" type="curve" smooth="yes"/>
      <point x="307" y="265"/>
      <point x="284" y="292"/>
      <point x="295" y="323" type="curve" smooth="yes"/>
      <point x="309" y="364"/>
      <point x="416" y="389"/>
      <point x="427" y="421" type="curve" smooth="yes"/>
      <point x="438" y="453"/>
      <point x="347" y="483"/>
      <point x="357" y="521" type="curve" smooth="yes"/>
      <point x="359" y="529"/>
      <point x="366" y="538"/>
      <point x="410" y="565" type="curve" smooth="yes"/>
      <point x="456" y="593"/>
      <point x="475" y="606"/>
      <point x="480" y="626" type="curve" smooth="yes"/>
      <point x="493" y="677"/>
      <point x="405" y="739"/>
      <point x="336" y="739" type="curve" smooth="yes"/>
      <point x="254" y="739"/>
      <point x="138" y="657"/>
      <point x="109" y="563" type="curve" smooth="yes"/>
      <point x="90" y="502"/>
      <point x="110" y="440"/>
    </contour>
    <contour>
      <point x="529" y="542" type="curve" smooth="yes"/>
      <point x="446" y="279" type="line" smooth="yes"/>
      <point x="423" y="213"/>
      <point x="414" y="172"/>
      <point x="414" y="137" type="curve" smooth="yes"/>
      <point x="414" y="63"/>
      <point x="458" y="-3"/>
      <point x="575" y="-3" type="curve" smooth="yes"/>
      <point x="679" y="-3"/>
      <point x="749" y="73"/>
      <point x="749" y="136" type="curve" smooth="yes"/>
      <point x="749" y="149"/>
      <point x="744" y="163"/>
      <point x="737" y="163" type="curve" smooth="yes"/>
      <point x="725" y="163"/>
      <point x="720" y="138"/>
      <point x="699" y="138" type="curve" smooth="yes"/>
      <point x="686" y="138"/>
      <point x="679" y="150"/>
      <point x="686" y="169" type="curve" smooth="yes"/>
      <point x="799" y="542" type="line" smooth="yes"/>
      <point x="803" y="555"/>
      <point x="805" y="566"/>
      <point x="805" y="575" type="curve" smooth="yes"/>
      <point x="805" y="599"/>
      <point x="796" y="624"/>
      <point x="730" y="624" type="curve" smooth="yes"/>
      <point x="655" y="624"/>
      <point x="546" y="599"/>
    </contour>
  </outline>
</glyph>
<glyph name="gjPHA" format="1">
  <advance width="521"/>
  <unicode hex="0AAB"/>
  <outline>
    <contour>
      <point x="207" y="-235" type="move" name="blwm"/>
    </contour>
    <contour>
      <point x="322" y="615" type="move" name="abvm"/>
    </contour>
    <contour>
      <point x="357" y="388" type="curve" smooth="yes"/>
      <point x="282" y="350" type="line"/>
      <point x="131" y="350" type="line" smooth="yes"/>
      <point x="96" y="350"/>
      <point x="87" y="330"/>
      <point x="86" y="318" type="curve" smooth="yes"/>
      <point x="84" y="286"/>
      <point x="148" y="250"/>
      <point x="192" y="250" type="curve" smooth="yes"/>
      <point x="212" y="250"/>
      <point x="237" y="261"/>
      <point x="328" y="308" type="curve"/>
      <point x="441" y="308" type="line" smooth="yes"/>
      <point x="483" y="308"/>
      <point x="491" y="323"/>
      <point x="491" y="337" type="curve" smooth="yes"/>
      <point x="493" y="363"/>
      <point x="448" y="405"/>
      <point x="416" y="405" type="curve" smooth="yes"/>
      <point x="403" y="405"/>
      <point x="387" y="402"/>
    </contour>
    <contour>
      <point x="144" y="476" type="curve" smooth="yes"/>
      <point x="144" y="417"/>
      <point x="190" y="363"/>
      <point x="246" y="337" type="curve"/>
      <point x="323" y="356" type="line"/>
      <point x="314" y="363"/>
      <point x="303" y="376"/>
      <point x="304" y="397" type="curve" smooth="yes"/>
      <point x="307" y="432"/>
      <point x="335" y="456"/>
      <point x="385" y="456" type="curve" smooth="yes"/>
      <point x="454" y="456"/>
      <point x="486" y="420"/>
      <point x="514" y="420" type="curve" smooth="yes"/>
      <point x="524" y="420"/>
      <point x="542" y="432"/>
      <point x="542" y="465" type="curve" smooth="yes"/>
      <point x="542" y="545"/>
      <point x="468" y="633"/>
      <point x="322" y="633" type="curve" smooth="yes"/>
      <point x="206" y="633"/>
      <point x="144" y="556"/>
    </contour>
    <contour>
      <point x="256" y="303" type="line"/>
      <point x="288" y="283"/>
      <point x="304" y="265"/>
      <point x="304" y="238" type="curve" smooth="yes"/>
      <point x="304" y="180"/>
      <point x="224" y="166"/>
      <point x="161" y="172" type="curve"/>
      <point x="143" y="226"/>
      <point x="115" y="251"/>
      <point x="77" y="251" type="curve" smooth="yes"/>
      <point x="49" y="251"/>
      <point x="27" y="235"/>
      <point x="18" y="205" type="curve" smooth="yes"/>
      <point x="-12" y="106"/>
      <point x="91" y="-4"/>
      <point x="286" y="-4" type="curve" smooth="yes"/>
      <point x="421" y="-4"/>
      <point x="509" y="59"/>
      <point x="509" y="150" type="curve" smooth="yes"/>
      <point x="509" y="227"/>
      <point x="439" y="285"/>
      <point x="336" y="320" type="curve"/>
    </contour>
    <contour>
      <point x="297" y="-240" type="curve" smooth="yes"/>
      <point x="380" y="-240"/>
      <point x="431" y="-184"/>
      <point x="431" y="-104" type="curve" smooth="yes"/>
      <point x="431" y="-59"/>
      <point x="410" y="-27"/>
      <point x="393" y="-27" type="curve" smooth="yes"/>
      <point x="379" y="-27"/>
      <point x="358" y="-56"/>
      <point x="293" y="-56" type="curve" smooth="yes"/>
      <point x="241" y="-56"/>
      <point x="183" y="-26"/>
      <point x="183" y="51" type="curve"/>
      <point x="132" y="63" type="line"/>
      <point x="82" y="-116"/>
      <point x="168" y="-240"/>
    </contour>
  </outline>
</glyph>
<glyph name="gjMA" format="1">
  <advance width="734"/>
  <unicode hex="0AAE"/>
  <outline>
    <contour>
      <point x="245" y="357" type="line"/>
      <point x="245" y="265" type="line"/>
      <point x="497" y="265" type="line"/>
      <point x="497" y="357" type="line"/>
    </contour>
    <contour>
      <point x="245" y="357" type="line"/>
      <point x="245" y="265" type="line"/>
      <point x="497" y="265" type="line"/>
      <point x="497" y="357" type="line"/>
    </contour>
    <contour>
      <point x="496" y="542" type="curve" smooth="yes"/>
      <point x="411" y="279" type="line" smooth="yes"/>
      <point x="391" y="213"/>
      <point x="382" y="172"/>
      <point x="382" y="137" type="curve" smooth="yes"/>
      <point x="382" y="63"/>
      <point x="425" y="-3"/>
      <point x="543" y="-3" type="curve" smooth="yes"/>
      <point x="646" y="-3"/>
      <point x="714" y="73"/>
      <point x="714" y="136" type="curve" smooth="yes"/>
      <point x="714" y="149"/>
      <point x="710" y="163"/>
      <point x="703" y="163" type="curve" smooth="yes"/>
      <point x="693" y="163"/>
      <point x="688" y="138"/>
      <point x="665" y="138" type="curve" smooth="yes"/>
      <point x="651" y="138"/>
      <point x="646" y="150"/>
      <point x="651" y="169" type="curve" smooth="yes"/>
      <point x="765" y="542" type="line" smooth="yes"/>
      <point x="770" y="555"/>
      <point x="773" y="566"/>
      <point x="773" y="575" type="curve" smooth="yes"/>
      <point x="773" y="599"/>
      <point x="762" y="624"/>
      <point x="697" y="624" type="curve" smooth="yes"/>
      <point x="623" y="624"/>
      <point x="512" y="599"/>
    </contour>
    <contour>
      <point x="398" y="497" type="curve" smooth="yes"/>
      <point x="398" y="574"/>
      <point x="347" y="633"/>
      <point x="242" y="633" type="curve" smooth="yes"/>
      <point x="123" y="633"/>
      <point x="63" y="559"/>
      <point x="63" y="496" type="curve" smooth="yes"/>
      <point x="63" y="481"/>
      <point x="67" y="468"/>
      <point x="74" y="468" type="curve" smooth="yes"/>
      <point x="84" y="468"/>
      <point x="90" y="493"/>
      <point x="113" y="493" type="curve" smooth="yes"/>
      <point x="122" y="493"/>
      <point x="126" y="487"/>
      <point x="126" y="474" type="curve" smooth="yes"/>
      <point x="126" y="471"/>
      <point x="125" y="466"/>
      <point x="124" y="462" type="curve" smooth="yes"/>
      <point x="92" y="357" type="line"/>
      <point x="78" y="357" type="line" smooth="yes"/>
      <point x="48" y="357"/>
      <point x="29" y="339"/>
      <point x="22" y="318" type="curve" smooth="yes"/>
      <point x="-2" y="221"/>
      <point x="103" y="125"/>
      <point x="194" y="125" type="curve" smooth="yes"/>
      <point x="264" y="125"/>
      <point x="305" y="164"/>
      <point x="337" y="270" type="curve" smooth="yes"/>
      <point x="377" y="402" type="line" smooth="yes"/>
      <point x="387" y="436"/>
      <point x="398" y="466"/>
    </contour>
  </outline>
</glyph>
